M48
;DRILL file {KiCad 4.0.2+e4-6225~38~ubuntu14.04.1-stable} date Mon Aug  1 15:26:05 2016
;FORMAT={-:-/ absolute / metric / decimal}
FMAT,2
METRIC,TZ
T1C0.305
T2C0.550
T3C0.600
T4C1.016
%
G90
G05
M71
T1
X21.336Y-22.904
X21.336Y-25.08
X21.336Y-27.256
X21.336Y-29.432
X21.336Y-31.608
X21.336Y-33.784
X21.336Y-35.96
X21.336Y-35.96
X21.336Y-38.136
X21.336Y-38.136
X21.336Y-40.312
X21.336Y-40.312
X21.336Y-42.488
X21.336Y-44.664
X21.336Y-46.84
X21.336Y-49.016
X21.336Y-51.191
X21.336Y-53.367
X21.336Y-55.543
X21.336Y-57.719
X21.336Y-59.895
X21.336Y-62.071
X21.336Y-64.247
X21.336Y-66.423
X21.336Y-68.59
X21.336Y-68.599
X21.336Y-70.766
X21.336Y-70.775
X21.336Y-72.942
X21.336Y-72.951
X21.336Y-75.118
X21.336Y-75.127
X21.336Y-77.294
X21.336Y-77.303
X21.336Y-79.47
X21.336Y-79.479
X21.336Y-81.646
X21.336Y-81.655
X21.336Y-83.822
X21.336Y-85.998
X21.336Y-88.174
X21.336Y-90.35
X21.336Y-92.526
X22.225Y-94.482
X23.749Y-94.482
X25.019Y-35.96
X25.019Y-38.136
X25.019Y-40.312
X25.019Y-42.488
X25.019Y-42.488
X25.019Y-44.664
X25.019Y-46.84
X25.019Y-49.016
X25.019Y-49.016
X25.019Y-51.191
X25.019Y-53.367
X25.019Y-55.543
X25.019Y-55.543
X25.019Y-57.719
X25.019Y-59.895
X25.019Y-62.071
X25.019Y-62.071
X25.019Y-64.247
X25.019Y-66.423
X25.019Y-68.599
X25.019Y-68.599
X25.019Y-70.775
X25.019Y-72.951
X25.019Y-75.127
X25.019Y-75.127
X25.019Y-77.303
X25.019Y-79.479
X25.019Y-81.655
X25.273Y-94.482
X26.652Y-70.387
X26.655Y-35.96
X26.655Y-38.136
X26.655Y-40.312
X26.655Y-42.488
X26.655Y-42.488
X26.655Y-44.664
X26.655Y-46.84
X26.655Y-49.016
X26.655Y-49.016
X26.655Y-51.191
X26.655Y-53.367
X26.655Y-55.543
X26.655Y-55.543
X26.655Y-57.719
X26.655Y-59.895
X26.655Y-62.071
X26.655Y-62.071
X26.655Y-64.247
X26.655Y-66.423
X26.655Y-68.599
X26.655Y-68.599
X26.655Y-75.127
X26.655Y-75.127
X26.655Y-77.303
X26.655Y-79.479
X26.655Y-81.655
X26.797Y-94.482
X26.797Y-94.482
X28.153Y-35.96
X28.153Y-38.136
X28.153Y-40.312
X28.153Y-42.488
X28.153Y-42.488
X28.153Y-44.664
X28.153Y-46.84
X28.153Y-49.016
X28.153Y-49.016
X28.153Y-51.191
X28.153Y-53.367
X28.153Y-55.543
X28.153Y-55.543
X28.153Y-57.719
X28.153Y-59.895
X28.153Y-62.071
X28.153Y-62.071
X28.153Y-64.247
X28.153Y-66.423
X28.153Y-68.599
X28.153Y-68.599
X28.153Y-70.775
X28.153Y-72.951
X28.153Y-75.127
X28.153Y-75.127
X28.153Y-77.303
X28.153Y-81.655
X28.321Y-94.482
X28.321Y-94.482
X29.66Y-35.96
X29.66Y-38.136
X29.66Y-40.312
X29.66Y-42.488
X29.66Y-42.488
X29.66Y-44.664
X29.66Y-46.84
X29.66Y-49.016
X29.66Y-49.016
X29.66Y-51.191
X29.66Y-53.367
X29.66Y-55.543
X29.66Y-55.543
X29.66Y-57.719
X29.66Y-59.895
X29.66Y-62.071
X29.66Y-62.071
X29.66Y-64.247
X29.66Y-66.423
X29.66Y-68.599
X29.66Y-68.599
X29.66Y-70.775
X29.66Y-75.127
X29.66Y-75.127
X29.66Y-77.303
X29.66Y-79.479
X29.66Y-81.655
X29.845Y-94.482
X29.845Y-94.482
X31.064Y-35.96
X31.064Y-38.136
X31.064Y-40.312
X31.064Y-42.488
X31.064Y-42.488
X31.064Y-44.664
X31.064Y-46.84
X31.064Y-49.016
X31.064Y-49.016
X31.064Y-51.191
X31.064Y-53.367
X31.064Y-55.543
X31.064Y-55.543
X31.064Y-57.719
X31.064Y-59.895
X31.064Y-62.071
X31.064Y-62.071
X31.064Y-64.247
X31.064Y-66.423
X31.064Y-68.599
X31.064Y-68.599
X31.064Y-70.775
X31.064Y-72.951
X31.064Y-75.127
X31.064Y-75.127
X31.064Y-77.303
X31.064Y-81.655
X32.639Y-35.96
X32.639Y-38.136
X32.639Y-40.312
X32.639Y-42.488
X32.639Y-42.488
X32.639Y-44.664
X32.639Y-46.84
X32.639Y-49.016
X32.639Y-49.016
X32.639Y-51.191
X32.639Y-53.367
X32.639Y-55.543
X32.639Y-55.543
X32.639Y-57.719
X32.639Y-59.895
X32.639Y-62.071
X32.639Y-62.071
X32.639Y-64.247
X32.639Y-66.423
X32.639Y-68.599
X32.639Y-68.599
X32.639Y-70.775
X32.639Y-72.951
X32.639Y-77.303
X32.639Y-79.479
X32.639Y-81.655
X32.893Y-94.482
X33.386Y-76.419
X34.417Y-94.482
X34.468Y-88.595
X34.468Y-90.805
X34.493Y-42.479
X34.493Y-70.292
X34.646Y-53.367
X35.255Y-47.346
X35.738Y-53.367
X35.75Y-33.591
X35.865Y-94.158
X36.144Y-88.595
X36.144Y-90.805
X36.576Y-86.462
X36.639Y-32.322
X36.779Y-92.608
X37.008Y-47.346
X37.135Y-53.365
X37.16Y-82.626
X37.668Y-42.479
X37.668Y-70.292
X38.329Y-53.365
X38.329Y-84.709
X38.354Y-47.346
X38.786Y-26.695
X38.786Y-28.981
X39.218Y-82.728
X39.7Y-53.365
X39.929Y-47.346
X40.843Y-70.292
X40.869Y-53.367
X40.97Y-42.479
X41.173Y-93.409
X41.58Y-26.695
X41.58Y-28.981
X42.037Y-81.99
X43.307Y-80.289
X44.425Y-92.888
X44.526Y-26.695
X44.526Y-28.981
X46.533Y-30.988
X46.533Y-35.744
X46.533Y-40.5
X46.533Y-45.256
X46.533Y-50.013
X46.533Y-60.192
X46.533Y-63.7
X46.533Y-67.208
X46.914Y-93.37
X48.844Y-92.583
X49.428Y-30.988
X49.428Y-35.744
X49.428Y-40.5
X49.428Y-45.256
X49.428Y-50.013
X49.428Y-60.192
X49.428Y-63.7
X49.428Y-67.208
X49.682Y-90.729
T2
X25.742Y-32.31
X25.742Y-85.038
X26.242Y-30.81
X26.242Y-86.538
X26.742Y-33.81
X26.742Y-83.538
X27.242Y-32.31
X27.242Y-85.038
X27.742Y-30.81
X27.742Y-86.538
X28.242Y-33.81
X28.242Y-83.538
X28.742Y-32.31
X28.742Y-85.038
X29.242Y-30.81
X29.242Y-86.538
X29.742Y-33.81
X29.742Y-83.538
X30.242Y-32.31
X30.242Y-85.038
X30.742Y-30.81
X30.742Y-86.538
X31.242Y-33.81
X31.242Y-83.538
X31.742Y-32.31
X31.742Y-85.038
X32.242Y-30.81
X32.242Y-86.538
X32.742Y-33.81
X32.742Y-83.538
X33.242Y-32.31
X33.242Y-85.038
X33.742Y-30.81
X33.742Y-86.538
X34.242Y-33.81
X34.242Y-83.538
X34.742Y-32.31
X34.742Y-85.038
X35.242Y-30.81
X35.242Y-86.538
T4
X35.192Y-48.892
X35.192Y-51.432
X35.192Y-55.242
X35.192Y-57.782
X35.192Y-61.592
X35.192Y-64.132
X37.732Y-48.892
X37.732Y-51.432
X37.732Y-55.242
X37.732Y-57.782
X37.732Y-61.592
X37.732Y-64.132
X40.272Y-48.892
X40.272Y-51.432
X40.272Y-55.242
X40.272Y-57.782
X40.272Y-61.592
X40.272Y-64.132
X42.812Y-55.242
X42.812Y-57.782
X45.207Y-68.453
X45.207Y-70.993
X45.207Y-73.533
X45.207Y-76.073
X45.207Y-78.613
X45.207Y-81.153
X45.207Y-83.693
X45.207Y-86.233
X45.207Y-88.773
X45.207Y-91.313
X45.352Y-55.242
X45.352Y-57.782
X47.747Y-68.453
X47.747Y-70.993
X47.747Y-73.533
X47.747Y-76.073
X47.747Y-78.613
X47.747Y-81.153
X47.747Y-83.693
X47.747Y-86.233
X47.747Y-88.773
X47.747Y-91.313
X47.892Y-55.242
X47.892Y-57.782
T3
X22.992Y-25.23G85X22.992Y-24.73
G05
X22.992Y-32.26G85X22.992Y-31.26
G05
X22.992Y-86.088G85X22.992Y-85.088
G05
X22.992Y-92.618G85X22.992Y-92.118
G05
X39.492Y-25.23G85X39.492Y-24.73
G05
X39.492Y-32.26G85X39.492Y-31.26
G05
X39.492Y-86.088G85X39.492Y-85.088
G05
X39.492Y-92.618G85X39.492Y-92.118
G05
T0
M30
