G04 #@! TF.FileFunction,Soldermask,Top*
%FSLAX46Y46*%
G04 Gerber Fmt 4.6, Leading zero omitted, Abs format (unit mm)*
G04 Created by KiCad (PCBNEW 4.0.2+e4-6225~38~ubuntu14.04.1-stable) date Mon Aug  1 15:26:05 2016*
%MOMM*%
G01*
G04 APERTURE LIST*
%ADD10C,0.350000*%
%ADD11C,0.100000*%
%ADD12C,1.400000*%
%ADD13O,1.200000X1.700000*%
%ADD14O,1.200000X2.200000*%
%ADD15C,1.000000*%
%ADD16R,1.727200X1.727200*%
%ADD17O,1.727200X1.727200*%
%ADD18R,1.500000X1.250000*%
%ADD19R,0.900000X1.200000*%
%ADD20R,1.200000X0.900000*%
%ADD21C,0.254000*%
G04 APERTURE END LIST*
D10*
D11*
X50520600Y-22275800D02*
X20574000Y-22275800D01*
X50520600Y-95123000D02*
X50520600Y-22275800D01*
X20574000Y-95123000D02*
X50520600Y-95123000D01*
X20574000Y-22273033D02*
X20574000Y-95123070D01*
D12*
X31242000Y-93268000D03*
D13*
X39492000Y-92368000D03*
X22992000Y-92368000D03*
D14*
X39492000Y-85588000D03*
X22992000Y-85588000D03*
D15*
X31242000Y-83538000D03*
X32742000Y-83538000D03*
X34242000Y-83538000D03*
X29742000Y-83538000D03*
X28242000Y-83538000D03*
X26742000Y-83538000D03*
X31742000Y-85038000D03*
X33242000Y-85038000D03*
X34742000Y-85038000D03*
X30242000Y-85038000D03*
X28742000Y-85038000D03*
X27242000Y-85038000D03*
X25742000Y-85038000D03*
X32242000Y-86538000D03*
X33742000Y-86538000D03*
X35242000Y-86538000D03*
X30742000Y-86538000D03*
X29242000Y-86538000D03*
X27742000Y-86538000D03*
X26242000Y-86538000D03*
D16*
X45206920Y-68453000D03*
D17*
X47746920Y-68453000D03*
X45206920Y-70993000D03*
X47746920Y-70993000D03*
X45206920Y-73533000D03*
X47746920Y-73533000D03*
X45206920Y-76073000D03*
X47746920Y-76073000D03*
X45206920Y-78613000D03*
X47746920Y-78613000D03*
X45206920Y-81153000D03*
X47746920Y-81153000D03*
X45206920Y-83693000D03*
X47746920Y-83693000D03*
X45206920Y-86233000D03*
X47746920Y-86233000D03*
X45206920Y-88773000D03*
X47746920Y-88773000D03*
X45206920Y-91313000D03*
X47746920Y-91313000D03*
D16*
X35191700Y-51432460D03*
D17*
X35191700Y-48892460D03*
X37731700Y-51432460D03*
X37731700Y-48892460D03*
X40271700Y-51432460D03*
X40271700Y-48892460D03*
D18*
X37520560Y-76840080D03*
X40020560Y-76840080D03*
D19*
X35532060Y-76670080D03*
X35532060Y-74470080D03*
X42164000Y-77978000D03*
X42164000Y-80178000D03*
D18*
X38455920Y-78994000D03*
X35955920Y-78994000D03*
D16*
X35191700Y-57782460D03*
D17*
X35191700Y-55242460D03*
X37731700Y-57782460D03*
X37731700Y-55242460D03*
X40271700Y-57782460D03*
X40271700Y-55242460D03*
X42811700Y-57782460D03*
X42811700Y-55242460D03*
X45351700Y-57782460D03*
X45351700Y-55242460D03*
X47891700Y-57782460D03*
X47891700Y-55242460D03*
D20*
X35978920Y-81026000D03*
X38178920Y-81026000D03*
D19*
X40380920Y-79100500D03*
X40380920Y-81300500D03*
X34493200Y-69105960D03*
X34493200Y-66905960D03*
X37668200Y-69105960D03*
X37668200Y-66905960D03*
X40843200Y-69105960D03*
X40843200Y-66905960D03*
X34493200Y-43918960D03*
X34493200Y-46118960D03*
X37668200Y-43918960D03*
X37668200Y-46118960D03*
D16*
X35191700Y-61592460D03*
D17*
X35191700Y-64132460D03*
X37731700Y-61592460D03*
X37731700Y-64132460D03*
X40271700Y-61592460D03*
X40271700Y-64132460D03*
D12*
X31242000Y-24080000D03*
D13*
X39492000Y-24980000D03*
X22992000Y-24980000D03*
D14*
X39492000Y-31760000D03*
X22992000Y-31760000D03*
D15*
X31242000Y-33810000D03*
X32742000Y-33810000D03*
X34242000Y-33810000D03*
X29742000Y-33810000D03*
X28242000Y-33810000D03*
X26742000Y-33810000D03*
X31742000Y-32310000D03*
X33242000Y-32310000D03*
X34742000Y-32310000D03*
X30242000Y-32310000D03*
X28742000Y-32310000D03*
X27242000Y-32310000D03*
X25742000Y-32310000D03*
X32242000Y-30810000D03*
X33742000Y-30810000D03*
X35242000Y-30810000D03*
X30742000Y-30810000D03*
X29242000Y-30810000D03*
X27742000Y-30810000D03*
X26242000Y-30810000D03*
D19*
X40970200Y-43918960D03*
X40970200Y-46118960D03*
D21*
G36*
X50190400Y-23625504D02*
X50190400Y-27127200D01*
X41681400Y-27127200D01*
X41681400Y-22606000D01*
X49123477Y-22606000D01*
X50190400Y-23625504D01*
X50190400Y-23625504D01*
G37*
X50190400Y-23625504D02*
X50190400Y-27127200D01*
X41681400Y-27127200D01*
X41681400Y-22606000D01*
X49123477Y-22606000D01*
X50190400Y-23625504D01*
M02*
