G04 #@! TF.FileFunction,Copper,L4,Bot,Signal*
%FSLAX46Y46*%
G04 Gerber Fmt 4.6, Leading zero omitted, Abs format (unit mm)*
G04 Created by KiCad (PCBNEW 4.0.2+e4-6225~38~ubuntu14.04.1-stable) date Mon Aug  1 15:26:05 2016*
%MOMM*%
G01*
G04 APERTURE LIST*
%ADD10C,0.350000*%
%ADD11C,0.100000*%
%ADD12O,1.200000X1.700000*%
%ADD13O,1.200000X2.200000*%
%ADD14C,1.000000*%
%ADD15R,1.727200X1.727200*%
%ADD16O,1.727200X1.727200*%
%ADD17R,1.500000X1.250000*%
%ADD18R,0.900000X1.200000*%
%ADD19R,1.200000X0.900000*%
%ADD20C,0.609600*%
%ADD21C,0.127000*%
%ADD22C,0.600000*%
%ADD23C,0.609600*%
%ADD24C,0.304800*%
%ADD25C,0.350000*%
%ADD26O,0.600000X1.100000*%
%ADD27O,0.600000X1.600000*%
G04 APERTURE END LIST*
D10*
D11*
X50520600Y-22275800D02*
X20574000Y-22275800D01*
X50520600Y-95123000D02*
X50520600Y-22275800D01*
X20574000Y-95123000D02*
X50520600Y-95123000D01*
X20574000Y-22273033D02*
X20574000Y-95123070D01*
D12*
X39492000Y-92368000D03*
X22992000Y-92368000D03*
D13*
X39492000Y-85588000D03*
X22992000Y-85588000D03*
D14*
X31242000Y-83538000D03*
X32742000Y-83538000D03*
X34242000Y-83538000D03*
X29742000Y-83538000D03*
X28242000Y-83538000D03*
X26742000Y-83538000D03*
X31742000Y-85038000D03*
X33242000Y-85038000D03*
X34742000Y-85038000D03*
X30242000Y-85038000D03*
X28742000Y-85038000D03*
X27242000Y-85038000D03*
X25742000Y-85038000D03*
X32242000Y-86538000D03*
X33742000Y-86538000D03*
X35242000Y-86538000D03*
X30742000Y-86538000D03*
X29242000Y-86538000D03*
X27742000Y-86538000D03*
X26242000Y-86538000D03*
D15*
X45206920Y-68453000D03*
D16*
X47746920Y-68453000D03*
X45206920Y-70993000D03*
X47746920Y-70993000D03*
X45206920Y-73533000D03*
X47746920Y-73533000D03*
X45206920Y-76073000D03*
X47746920Y-76073000D03*
X45206920Y-78613000D03*
X47746920Y-78613000D03*
X45206920Y-81153000D03*
X47746920Y-81153000D03*
X45206920Y-83693000D03*
X47746920Y-83693000D03*
X45206920Y-86233000D03*
X47746920Y-86233000D03*
X45206920Y-88773000D03*
X47746920Y-88773000D03*
X45206920Y-91313000D03*
X47746920Y-91313000D03*
D15*
X35191700Y-51432460D03*
D16*
X35191700Y-48892460D03*
X37731700Y-51432460D03*
X37731700Y-48892460D03*
X40271700Y-51432460D03*
X40271700Y-48892460D03*
D17*
X37520560Y-76840080D03*
X40020560Y-76840080D03*
D18*
X35532060Y-74470080D03*
X35532060Y-76670080D03*
X42164000Y-80178000D03*
X42164000Y-77978000D03*
D17*
X38455920Y-78994000D03*
X35955920Y-78994000D03*
D15*
X35191700Y-57782460D03*
D16*
X35191700Y-55242460D03*
X37731700Y-57782460D03*
X37731700Y-55242460D03*
X40271700Y-57782460D03*
X40271700Y-55242460D03*
X42811700Y-57782460D03*
X42811700Y-55242460D03*
X45351700Y-57782460D03*
X45351700Y-55242460D03*
X47891700Y-57782460D03*
X47891700Y-55242460D03*
D19*
X38178920Y-81026000D03*
X35978920Y-81026000D03*
D18*
X40380920Y-81300500D03*
X40380920Y-79100500D03*
D15*
X35191700Y-61592460D03*
D16*
X35191700Y-64132460D03*
X37731700Y-61592460D03*
X37731700Y-64132460D03*
X40271700Y-61592460D03*
X40271700Y-64132460D03*
D12*
X39492000Y-24980000D03*
X22992000Y-24980000D03*
D13*
X39492000Y-31760000D03*
X22992000Y-31760000D03*
D14*
X31242000Y-33810000D03*
X32742000Y-33810000D03*
X34242000Y-33810000D03*
X29742000Y-33810000D03*
X28242000Y-33810000D03*
X26742000Y-33810000D03*
X31742000Y-32310000D03*
X33242000Y-32310000D03*
X34742000Y-32310000D03*
X30242000Y-32310000D03*
X28742000Y-32310000D03*
X27242000Y-32310000D03*
X25742000Y-32310000D03*
X32242000Y-30810000D03*
X33742000Y-30810000D03*
X35242000Y-30810000D03*
X30742000Y-30810000D03*
X29242000Y-30810000D03*
X27742000Y-30810000D03*
X26242000Y-30810000D03*
D20*
X35750500Y-33591500D03*
X36639500Y-32321500D03*
X21336000Y-53367426D03*
X34417000Y-94481559D03*
X32893000Y-94481559D03*
X29845000Y-94481559D03*
X28321000Y-94481559D03*
X26797000Y-94481559D03*
X29845000Y-94481559D03*
X28321000Y-94481559D03*
X26797000Y-94481559D03*
X25273000Y-94481559D03*
X23749000Y-94481559D03*
X22225000Y-94481559D03*
X44526200Y-26695400D03*
X41579800Y-26695400D03*
X38785800Y-26695400D03*
X21336000Y-68590493D03*
X21336000Y-72942360D03*
X21336000Y-75118293D03*
X21336000Y-77294226D03*
X21336000Y-70766426D03*
X21336000Y-83822026D03*
X21336000Y-81646093D03*
X21336000Y-79470160D03*
X21336000Y-90349826D03*
X21336000Y-92525759D03*
X21336000Y-85997960D03*
X21336000Y-88173893D03*
X21336000Y-40311826D03*
X21336000Y-38135893D03*
X21336000Y-35959960D03*
X21336000Y-33784026D03*
X21336000Y-31608093D03*
X21336000Y-27256226D03*
X21336000Y-25080293D03*
X21336000Y-81654559D03*
X21336000Y-79478626D03*
X21336000Y-77302693D03*
X21336000Y-75126760D03*
X21336000Y-72950826D03*
X21336000Y-70774893D03*
X21336000Y-68598960D03*
X21336000Y-66423026D03*
X21336000Y-64247093D03*
X21336000Y-62071160D03*
X21336000Y-59895226D03*
X21336000Y-57719293D03*
X21336000Y-55543360D03*
X21336000Y-51191493D03*
X21336000Y-49015560D03*
X21336000Y-46839626D03*
X21336000Y-44663693D03*
X21336000Y-42487760D03*
X21336000Y-40311826D03*
X21336000Y-38135893D03*
X21336000Y-35959960D03*
X46532800Y-67208400D03*
X49428400Y-67208400D03*
X49428400Y-63700025D03*
X49428400Y-60191650D03*
X46532800Y-63700025D03*
X49428400Y-30988000D03*
X49428400Y-35744150D03*
X49428400Y-40500300D03*
X49428400Y-45256450D03*
X49428400Y-50012600D03*
X46532800Y-40500300D03*
X37007800Y-47345600D03*
X38354000Y-47345600D03*
X39928800Y-47345600D03*
X35255200Y-47345600D03*
X34645600Y-53367426D03*
X35737800Y-53367426D03*
X38328600Y-53365400D03*
X37134796Y-53365400D03*
X39700204Y-53365400D03*
X40868600Y-53367426D03*
X44526200Y-28981400D03*
X21336000Y-29432160D03*
X21336000Y-22904360D03*
X46532800Y-60191650D03*
X46532800Y-50012600D03*
X46532800Y-45256450D03*
X46532800Y-35744150D03*
X46532800Y-30988000D03*
X41579800Y-28981400D03*
X38785800Y-28981400D03*
X48844200Y-92583000D03*
X46913800Y-93370400D03*
X49682400Y-90728800D03*
X36779200Y-92608400D03*
X34467800Y-90805008D03*
X34467796Y-88595200D03*
X35864800Y-94157800D03*
X41173400Y-93408510D03*
X36144200Y-90805000D03*
X36144200Y-88595200D03*
X36576000Y-86461600D03*
X44424600Y-92887800D03*
X38328600Y-84709000D03*
X42037000Y-81990452D03*
X39217600Y-82727800D03*
X43307000Y-80289400D03*
X37160200Y-82626200D03*
X25019000Y-81654559D03*
X25019000Y-79478626D03*
X25019000Y-77302693D03*
X25019000Y-75126760D03*
X25019000Y-75126759D03*
X26652170Y-70387273D03*
X29660073Y-81654559D03*
X31064200Y-81654559D03*
X32639000Y-79478626D03*
X29660073Y-79478626D03*
X29660073Y-77302693D03*
X31064200Y-77302693D03*
X32639000Y-77302693D03*
X31064200Y-75126760D03*
X29660073Y-75126760D03*
X28153155Y-81654559D03*
X28153155Y-77302693D03*
X28153155Y-75126760D03*
X26655331Y-75126760D03*
X26655331Y-77302693D03*
X26655331Y-79478626D03*
X29660073Y-75126759D03*
X31064200Y-75126759D03*
X32639000Y-72950826D03*
X31064200Y-72950826D03*
X29660073Y-70774893D03*
X31064200Y-70774893D03*
X32639000Y-70774893D03*
X32639000Y-68598960D03*
X31064200Y-68598960D03*
X29660073Y-68598960D03*
X28153155Y-75126759D03*
X28153155Y-72950826D03*
X28153155Y-70774893D03*
X28153155Y-68598960D03*
X26655331Y-68598960D03*
X26655331Y-75126759D03*
X29660073Y-68598959D03*
X31064200Y-68598959D03*
X32639000Y-68598959D03*
X32639000Y-66423026D03*
X31064200Y-66423026D03*
X29660073Y-66423026D03*
X29660073Y-64247093D03*
X31064200Y-64247093D03*
X32639000Y-64247093D03*
X32639000Y-62071160D03*
X31064200Y-62071160D03*
X29660073Y-62071160D03*
X28153155Y-68598959D03*
X28153155Y-66423026D03*
X28153155Y-64247093D03*
X28153155Y-62071160D03*
X26655331Y-62071160D03*
X26655331Y-64247093D03*
X26655331Y-66423026D03*
X26655331Y-68598959D03*
X29660073Y-62071159D03*
X31064200Y-62071159D03*
X32639000Y-62071159D03*
X32639000Y-59895226D03*
X31064200Y-59895226D03*
X29660073Y-59895226D03*
X29660073Y-57719293D03*
X31064200Y-57719293D03*
X32639000Y-57719293D03*
X32639000Y-55543360D03*
X31064200Y-55543360D03*
X29660073Y-55543360D03*
X28153155Y-62071159D03*
X28153155Y-59895226D03*
X28153155Y-57719293D03*
X28153155Y-55543360D03*
X26655331Y-55543360D03*
X26655331Y-57719293D03*
X26655331Y-59895226D03*
X26655331Y-62071159D03*
X29660073Y-55543359D03*
X31064200Y-55543359D03*
X32639000Y-55543359D03*
X32639000Y-53367426D03*
X31064200Y-53367426D03*
X29660073Y-53367426D03*
X29660073Y-51191493D03*
X31064200Y-51191493D03*
X32639000Y-51191493D03*
X32639000Y-49015560D03*
X31064200Y-49015560D03*
X29660073Y-49015560D03*
X28153155Y-55543359D03*
X28153155Y-53367426D03*
X28153155Y-51191493D03*
X28153155Y-49015560D03*
X26655331Y-49015560D03*
X26655331Y-51191493D03*
X26655331Y-53367426D03*
X26655331Y-55543359D03*
X29660073Y-49015559D03*
X31064200Y-49015559D03*
X32639000Y-49015559D03*
X32639000Y-46839626D03*
X31064200Y-46839626D03*
X29660073Y-46839626D03*
X29660073Y-44663693D03*
X31064200Y-44663693D03*
X32639000Y-44663693D03*
X32639000Y-42487760D03*
X31064200Y-42487760D03*
X29660073Y-42487760D03*
X28153155Y-49015559D03*
X28153155Y-46839626D03*
X28153155Y-44663693D03*
X28153155Y-42487760D03*
X26655331Y-42487760D03*
X26655331Y-44663693D03*
X26655331Y-46839626D03*
X26655331Y-49015559D03*
X32639000Y-42487759D03*
X31064200Y-42487759D03*
X29660073Y-42487759D03*
X28153155Y-42487759D03*
X26655331Y-42487759D03*
X32639000Y-40311826D03*
X31064200Y-40311826D03*
X29660073Y-40311826D03*
X28153155Y-40311826D03*
X26655331Y-40311826D03*
X32639000Y-38135893D03*
X31064200Y-38135893D03*
X29660073Y-38135893D03*
X28153155Y-38135893D03*
X26655331Y-38135893D03*
X29660073Y-35959960D03*
X28153155Y-35959960D03*
X31064200Y-35959960D03*
X25019000Y-72950826D03*
X25019000Y-70774893D03*
X25019000Y-68598960D03*
X25019000Y-68598959D03*
X25019000Y-66423026D03*
X25019000Y-64247093D03*
X25019000Y-62071160D03*
X25019000Y-62071159D03*
X25019000Y-59895226D03*
X25019000Y-57719293D03*
X25019000Y-55543360D03*
X25019000Y-55543359D03*
X25019000Y-53367426D03*
X25019000Y-51191493D03*
X25019000Y-49015560D03*
X25019000Y-49015559D03*
X25019000Y-46839626D03*
X25019000Y-44663693D03*
X32639000Y-81654559D03*
X26655331Y-81654559D03*
X32639000Y-35959960D03*
X26655331Y-35959960D03*
X25019000Y-42487760D03*
X25019000Y-42487759D03*
X25019000Y-40311826D03*
X25019000Y-38135893D03*
X25019000Y-35959960D03*
X37668200Y-42478960D03*
X40970200Y-42478960D03*
X34493200Y-42478960D03*
X37668200Y-70291960D03*
X34493200Y-70291960D03*
X40843200Y-70291960D03*
X33385579Y-76418621D03*
D21*
X37731700Y-61592460D02*
X37731700Y-57782460D01*
X40271700Y-57782460D02*
X40271700Y-61592460D01*
X34242000Y-83538000D02*
X34949106Y-83538000D01*
X34949106Y-83538000D02*
X37134800Y-81352306D01*
X37134800Y-81352306D02*
X37134800Y-78282800D01*
X38455600Y-77927200D02*
X38785800Y-77597000D01*
X43985606Y-73533000D02*
X45206920Y-73533000D01*
X37134800Y-78282800D02*
X37490400Y-77927200D01*
X38785800Y-77597000D02*
X38785800Y-76317338D01*
X37490400Y-77927200D02*
X38455600Y-77927200D01*
X38785800Y-76317338D02*
X41570138Y-73533000D01*
X41570138Y-73533000D02*
X43985606Y-73533000D01*
X31742000Y-32310000D02*
X32467001Y-33035001D01*
X32467001Y-33035001D02*
X35194001Y-33035001D01*
X35194001Y-33035001D02*
X35750500Y-33591500D01*
X36639500Y-32131000D02*
X36639500Y-32321500D01*
X36093499Y-31584999D02*
X36639500Y-32131000D01*
X32242000Y-30810000D02*
X33016999Y-31584999D01*
X33016999Y-31584999D02*
X36093499Y-31584999D01*
X21336000Y-53367426D02*
X21336000Y-52936374D01*
X21336000Y-52936374D02*
X21336000Y-51191493D01*
X21336000Y-55543360D02*
X21336000Y-55112308D01*
X21336000Y-55112308D02*
X21336000Y-53367426D01*
X34417000Y-94481559D02*
X35541041Y-94481559D01*
X35541041Y-94481559D02*
X35560001Y-94462599D01*
X32893000Y-94481559D02*
X33324052Y-94481559D01*
X33324052Y-94481559D02*
X34417000Y-94481559D01*
X29845000Y-94481559D02*
X32893000Y-94481559D01*
X28321000Y-94481559D02*
X29845000Y-94481559D01*
X26797000Y-94481559D02*
X27228052Y-94481559D01*
X27228052Y-94481559D02*
X28321000Y-94481559D01*
X25273000Y-94481559D02*
X26797000Y-94481559D01*
X23749000Y-94481559D02*
X24180052Y-94481559D01*
X24180052Y-94481559D02*
X25273000Y-94481559D01*
X22225000Y-94481559D02*
X23749000Y-94481559D01*
X21336000Y-92525759D02*
X21336000Y-93592559D01*
X21336000Y-93592559D02*
X22225000Y-94481559D01*
X21336000Y-90349826D02*
X21336000Y-92525759D01*
X21336000Y-88173893D02*
X21336000Y-88604945D01*
X21336000Y-88604945D02*
X21336000Y-90349826D01*
X21336000Y-85997960D02*
X21336000Y-86429012D01*
X21336000Y-86429012D02*
X21336000Y-88173893D01*
X21336000Y-83822026D02*
X21336000Y-85997960D01*
X21336000Y-81646093D02*
X21336000Y-83822026D01*
X21336000Y-79478626D02*
X21336000Y-81646093D01*
X21336000Y-77302693D02*
X21336000Y-79478626D01*
X21336000Y-75126760D02*
X21336000Y-77302693D01*
X21336000Y-72950826D02*
X21336000Y-73381878D01*
X21336000Y-73381878D02*
X21336000Y-75126760D01*
X21336000Y-70774893D02*
X21336000Y-72950826D01*
X21336000Y-68598960D02*
X21336000Y-70774893D01*
X21336000Y-66423026D02*
X21336000Y-68598960D01*
X21336000Y-64247093D02*
X21336000Y-66423026D01*
X21336000Y-62071160D02*
X21336000Y-62502212D01*
X21336000Y-62502212D02*
X21336000Y-64247093D01*
X21336000Y-59895226D02*
X21336000Y-60326278D01*
X21336000Y-60326278D02*
X21336000Y-62071160D01*
X21336000Y-57719293D02*
X21336000Y-59895226D01*
X21336000Y-55543360D02*
X21336000Y-55974412D01*
X21336000Y-55974412D02*
X21336000Y-57719293D01*
X21336000Y-49015560D02*
X21336000Y-51191493D01*
X21336000Y-46839626D02*
X21336000Y-49015560D01*
X21336000Y-44663693D02*
X21336000Y-46839626D01*
X21336000Y-42487760D02*
X21336000Y-44663693D01*
X21336000Y-40311826D02*
X21336000Y-42487760D01*
X21336000Y-38135893D02*
X21336000Y-40311826D01*
X21336000Y-35959960D02*
X21336000Y-36391012D01*
X21336000Y-36391012D02*
X21336000Y-38135893D01*
X21336000Y-33784026D02*
X21336000Y-35959960D01*
X21336000Y-31608093D02*
X21336000Y-32039145D01*
X21336000Y-32039145D02*
X21336000Y-33784026D01*
X21336000Y-29432160D02*
X21336000Y-31608093D01*
X21336000Y-27256226D02*
X21336000Y-29432160D01*
X21336000Y-25080293D02*
X21336000Y-25511345D01*
X21336000Y-25511345D02*
X21336000Y-27256226D01*
X21336000Y-22904360D02*
X21336000Y-23335412D01*
X21336000Y-23335412D02*
X21336000Y-25080293D01*
X37007800Y-47345600D02*
X38354000Y-47345600D01*
X35255200Y-47345600D02*
X37007800Y-47345600D01*
X38354000Y-47345600D02*
X39928800Y-47345600D01*
X40030400Y-47345600D02*
X44443650Y-47345600D01*
X40030400Y-47345600D02*
X39928800Y-47345600D01*
X33144974Y-47345600D02*
X35255200Y-47345600D01*
X32639000Y-46839626D02*
X33144974Y-47345600D01*
X44443650Y-47345600D02*
X46532800Y-45256450D01*
X34721800Y-53367426D02*
X35737800Y-53367426D01*
X32639000Y-53367426D02*
X34645600Y-53367426D01*
X34721800Y-53367426D02*
X34645600Y-53367426D01*
X35890200Y-53367426D02*
X37132770Y-53367426D01*
X35890200Y-53367426D02*
X35737800Y-53367426D01*
X38328600Y-53365400D02*
X37134796Y-53365400D01*
X39700204Y-53365400D02*
X38328600Y-53365400D01*
X37132770Y-53367426D02*
X37134796Y-53365400D01*
X39702230Y-53367426D02*
X39700204Y-53365400D01*
X40868600Y-53367426D02*
X39702230Y-53367426D01*
X43476666Y-53367426D02*
X41579800Y-53367426D01*
X41579800Y-53367426D02*
X40868600Y-53367426D01*
X45351700Y-55242460D02*
X43476666Y-53367426D01*
X26242000Y-30810000D02*
X24864160Y-29432160D01*
X24864160Y-29432160D02*
X21336000Y-29432160D01*
X25019000Y-35959960D02*
X25019000Y-31572200D01*
X25019000Y-31572200D02*
X25781000Y-30810200D01*
X25781000Y-30810200D02*
X26289000Y-30810200D01*
X35560001Y-94462599D02*
X35864800Y-94157800D01*
X24892000Y-22860000D02*
X21336000Y-22860000D01*
X37083999Y-92913199D02*
X36779200Y-92608400D01*
X36474401Y-92303601D02*
X36779200Y-92608400D01*
X41173400Y-93408510D02*
X37579310Y-93408510D01*
X36144200Y-91973400D02*
X36474401Y-92303601D01*
X37579310Y-93408510D02*
X37083999Y-92913199D01*
X36144200Y-90805000D02*
X36144200Y-91973400D01*
X34467796Y-88595200D02*
X34467796Y-90805004D01*
X34467796Y-90805004D02*
X34467800Y-90805008D01*
X34467800Y-92760800D02*
X34467800Y-91236060D01*
X35864800Y-94157800D02*
X34467800Y-92760800D01*
X34467800Y-91236060D02*
X34467800Y-90805008D01*
X34467796Y-88164148D02*
X34467796Y-88595200D01*
X34467796Y-86019310D02*
X34467796Y-88164148D01*
X34742000Y-85745106D02*
X34467796Y-86019310D01*
X34742000Y-85038000D02*
X34742000Y-85745106D01*
X41173400Y-93408510D02*
X43903890Y-93408510D01*
X36144200Y-88595200D02*
X36144200Y-90805000D01*
X36144200Y-86893400D02*
X36144200Y-88595200D01*
X36576000Y-86461600D02*
X36144200Y-86893400D01*
X38328600Y-84709000D02*
X36576000Y-86461600D01*
X43903890Y-93408510D02*
X44424600Y-92887800D01*
X39217600Y-82727800D02*
X39217600Y-83820000D01*
X39217600Y-83820000D02*
X38328600Y-84709000D01*
X42037000Y-81990452D02*
X41299652Y-82727800D01*
X43307000Y-80720452D02*
X42037000Y-81990452D01*
X43307000Y-80289400D02*
X43307000Y-80720452D01*
X41299652Y-82727800D02*
X39217600Y-82727800D01*
X45206920Y-88773000D02*
X43307000Y-86873080D01*
X43307000Y-86873080D02*
X43307000Y-80289400D01*
X25019000Y-75126759D02*
X25019000Y-77302693D01*
X25019000Y-72950826D02*
X25019000Y-75126759D01*
X25019000Y-79478626D02*
X25019000Y-81654559D01*
X25019000Y-77302693D02*
X25019000Y-79478626D01*
X32639000Y-49015559D02*
X32639000Y-46839626D01*
X32639000Y-51191493D02*
X32639000Y-49015559D01*
X32639000Y-53367426D02*
X32639000Y-51191493D01*
X32639000Y-55543359D02*
X32639000Y-53367426D01*
X32639000Y-57719293D02*
X32639000Y-55543359D01*
X32639000Y-59895226D02*
X32639000Y-57719293D01*
X32639000Y-62071160D02*
X32639000Y-59895226D01*
X32639000Y-64247093D02*
X32639000Y-62071160D01*
X32639000Y-66423026D02*
X32639000Y-64247093D01*
X32639000Y-68598959D02*
X32639000Y-66423026D01*
X32639000Y-70774893D02*
X32639000Y-68598959D01*
X32639000Y-72950826D02*
X32639000Y-70774893D01*
X32639000Y-77302693D02*
X32639000Y-72950826D01*
X32639000Y-79478626D02*
X32639000Y-77302693D01*
X32639000Y-81654559D02*
X32639000Y-79478626D01*
X31064200Y-77302693D02*
X31064200Y-81654559D01*
X31064200Y-75126759D02*
X31064200Y-77302693D01*
X31064200Y-72950826D02*
X31064200Y-75126759D01*
X31064200Y-70774893D02*
X31064200Y-72950826D01*
X31064200Y-68598959D02*
X31064200Y-70774893D01*
X31064200Y-66423026D02*
X31064200Y-68598959D01*
X31064200Y-64247093D02*
X31064200Y-66423026D01*
X31064200Y-62071160D02*
X31064200Y-64247093D01*
X31064200Y-59895226D02*
X31064200Y-62071160D01*
X31064200Y-57719293D02*
X31064200Y-59895226D01*
X31064200Y-55543359D02*
X31064200Y-57719293D01*
X31064200Y-53367426D02*
X31064200Y-55543359D01*
X31064200Y-51191493D02*
X31064200Y-53367426D01*
X31064200Y-49015559D02*
X31064200Y-51191493D01*
X31064200Y-46839626D02*
X31064200Y-49015559D01*
X29660073Y-49015559D02*
X29660073Y-46839626D01*
X29660073Y-51191493D02*
X29660073Y-49015559D01*
X29660073Y-53367426D02*
X29660073Y-51191493D01*
X29660073Y-55543360D02*
X29660073Y-53367426D01*
X29660073Y-57719293D02*
X29660073Y-55543360D01*
X29660073Y-59895226D02*
X29660073Y-57719293D01*
X29660073Y-62071160D02*
X29660073Y-59895226D01*
X29660073Y-64247093D02*
X29660073Y-62071160D01*
X29660073Y-66423026D02*
X29660073Y-64247093D01*
X29660073Y-68598960D02*
X29660073Y-66423026D01*
X29660073Y-70774893D02*
X29660073Y-68598960D01*
X29660073Y-75126759D02*
X29660073Y-70774893D01*
X29660073Y-77302693D02*
X29660073Y-75126759D01*
X29660073Y-79478626D02*
X29660073Y-77302693D01*
X29660073Y-81654559D02*
X29660073Y-79478626D01*
X28153155Y-75126760D02*
X28153155Y-77302693D01*
X28153155Y-72950826D02*
X28153155Y-75126760D01*
X28153155Y-70774893D02*
X28153155Y-72950826D01*
X28153155Y-68598959D02*
X28153155Y-70774893D01*
X28153155Y-66423026D02*
X28153155Y-68598959D01*
X28153155Y-64247093D02*
X28153155Y-66423026D01*
X28153155Y-62071160D02*
X28153155Y-64247093D01*
X28153155Y-59895226D02*
X28153155Y-62071160D01*
X28153155Y-57719293D02*
X28153155Y-59895226D01*
X28153155Y-55543359D02*
X28153155Y-57719293D01*
X28153155Y-53367426D02*
X28153155Y-55543359D01*
X28153155Y-51191493D02*
X28153155Y-53367426D01*
X28153155Y-49015559D02*
X28153155Y-51191493D01*
X28153155Y-46839626D02*
X28153155Y-49015559D01*
X28153155Y-44663693D02*
X28153155Y-46839626D01*
X29660073Y-44663693D02*
X29660073Y-46839626D01*
X31064200Y-44663693D02*
X31064200Y-46839626D01*
X32639000Y-44663693D02*
X32639000Y-46839626D01*
X32639000Y-42487759D02*
X32639000Y-44663693D01*
X31064200Y-42487759D02*
X31064200Y-44663693D01*
X29660073Y-42487760D02*
X29660073Y-44663693D01*
X28153155Y-42487759D02*
X28153155Y-44663693D01*
X32639000Y-40311826D02*
X32639000Y-42487759D01*
X31064200Y-40311826D02*
X31064200Y-42487759D01*
X29660073Y-40311826D02*
X29660073Y-42487760D01*
X28153155Y-40311826D02*
X28153155Y-42487759D01*
X32639000Y-38135893D02*
X32639000Y-40311826D01*
X31064200Y-38135893D02*
X31064200Y-40311826D01*
X29660073Y-38135893D02*
X29660073Y-40311826D01*
X28153155Y-38135893D02*
X28153155Y-40311826D01*
X32639000Y-35959960D02*
X32639000Y-38135893D01*
X31064200Y-35959960D02*
X31064200Y-38135893D01*
X29660073Y-35959960D02*
X29660073Y-38135893D01*
X28153155Y-35959960D02*
X28153155Y-38135893D01*
X28153155Y-81654559D02*
X28153155Y-77302693D01*
X26655331Y-79478626D02*
X26655331Y-81654559D01*
X26655331Y-77302693D02*
X26655331Y-79478626D01*
X26655331Y-75126760D02*
X26655331Y-77302693D01*
X26652170Y-70387273D02*
X26652170Y-75123599D01*
X26652170Y-75123599D02*
X26655331Y-75126760D01*
X26655331Y-68598959D02*
X26655331Y-70384112D01*
X26655331Y-70384112D02*
X26652170Y-70387273D01*
X26655331Y-66423026D02*
X26655331Y-68598959D01*
X26655331Y-64247093D02*
X26655331Y-66423026D01*
X26655331Y-62071159D02*
X26655331Y-64247093D01*
X26655331Y-59895226D02*
X26655331Y-62071159D01*
X26655331Y-57719293D02*
X26655331Y-59895226D01*
X26655331Y-55543359D02*
X26655331Y-57719293D01*
X26655331Y-53367426D02*
X26655331Y-55543359D01*
X26655331Y-51191493D02*
X26655331Y-53367426D01*
X26655331Y-49015559D02*
X26655331Y-51191493D01*
X26655331Y-46839626D02*
X26655331Y-49015559D01*
X26655331Y-44663693D02*
X26655331Y-46839626D01*
X26655331Y-42487759D02*
X26655331Y-44663693D01*
X26655331Y-40311826D02*
X26655331Y-42487759D01*
X26655331Y-38135893D02*
X26655331Y-40311826D01*
X26655331Y-35959960D02*
X26655331Y-38135893D01*
X31064200Y-35959960D02*
X32639000Y-35959960D01*
X29660073Y-35959960D02*
X31064200Y-35959960D01*
X28153155Y-35959960D02*
X29660073Y-35959960D01*
X26655331Y-35959960D02*
X28153155Y-35959960D01*
X26655331Y-35959960D02*
X25019000Y-35959960D01*
X25019000Y-57719293D02*
X25019000Y-55543359D01*
X25019000Y-70774893D02*
X25019000Y-72950826D01*
X25019000Y-68598959D02*
X25019000Y-70774893D01*
X25019000Y-66423026D02*
X25019000Y-68598959D01*
X25019000Y-64247093D02*
X25019000Y-66423026D01*
X25019000Y-62071159D02*
X25019000Y-64247093D01*
X25019000Y-59895226D02*
X25019000Y-62071159D01*
X25019000Y-57719293D02*
X25019000Y-59895226D01*
X25019000Y-53367426D02*
X25019000Y-55543359D01*
X25019000Y-51191493D02*
X25019000Y-53367426D01*
X25019000Y-49015559D02*
X25019000Y-51191493D01*
X25019000Y-46839626D02*
X25019000Y-49015559D01*
X25019000Y-44663693D02*
X25019000Y-46839626D01*
X25019000Y-42487759D02*
X25019000Y-44678600D01*
X25019000Y-40311826D02*
X25019000Y-42487759D01*
X25019000Y-38135893D02*
X25019000Y-40311826D01*
X25019000Y-35959960D02*
X25019000Y-38135893D01*
X34493200Y-42478960D02*
X40970200Y-42478960D01*
X40418936Y-70291960D02*
X34493200Y-70291960D01*
X40843200Y-70291960D02*
X40418936Y-70291960D01*
D22*
X35242000Y-92357468D02*
X37118532Y-94234000D01*
X37118532Y-94234000D02*
X44825920Y-94234000D01*
X35242000Y-86538000D02*
X35242000Y-92357468D01*
X44825920Y-94234000D02*
X46883321Y-92176599D01*
X46883321Y-92176599D02*
X47746920Y-91313000D01*
X49530000Y-89529920D02*
X49530000Y-70236080D01*
D23*
X47891700Y-30375860D02*
X45519340Y-28003500D01*
X47891700Y-55242460D02*
X47891700Y-30375860D01*
X47891700Y-57782460D02*
X47891700Y-55242460D01*
X47746920Y-68453000D02*
X47746920Y-57927240D01*
X47746920Y-57927240D02*
X47891700Y-57782460D01*
D22*
X45519340Y-28003500D02*
X38048500Y-28003500D01*
X38048500Y-28003500D02*
X35741999Y-30310001D01*
X35741999Y-30310001D02*
X35242000Y-30810000D01*
X45206920Y-91313000D02*
X47746920Y-91313000D01*
X47746920Y-91313000D02*
X49530000Y-89529920D01*
X49530000Y-70236080D02*
X47746920Y-68453000D01*
X47746920Y-68453000D02*
X45206920Y-68453000D01*
X40380920Y-81300500D02*
X39644500Y-81300500D01*
X39378920Y-81026000D02*
X38178920Y-81026000D01*
X39644500Y-81291580D02*
X39378920Y-81026000D01*
X39644500Y-81300500D02*
X39644500Y-81291580D01*
X41041500Y-81300500D02*
X42164000Y-80178000D01*
X40380920Y-81300500D02*
X41041500Y-81300500D01*
X38178920Y-83601080D02*
X35242000Y-86538000D01*
X38178920Y-81026000D02*
X38178920Y-83601080D01*
D21*
X33467001Y-84189999D02*
X33467001Y-82814199D01*
X33967001Y-84689999D02*
X33467001Y-84189999D01*
X33967001Y-85605893D02*
X33967001Y-84689999D01*
X33742000Y-85830894D02*
X33967001Y-85605893D01*
X33742000Y-86538000D02*
X33742000Y-85830894D01*
X35978920Y-79017000D02*
X35955920Y-78994000D01*
X35978920Y-81026000D02*
X35978920Y-79017000D01*
X33467001Y-82814199D02*
X35255200Y-81026000D01*
X35255200Y-81026000D02*
X35978920Y-81026000D01*
X33385579Y-76418621D02*
X33721454Y-76418621D01*
X33721454Y-76418621D02*
X33972913Y-76670080D01*
X33972913Y-76670080D02*
X34625678Y-76670080D01*
X34625678Y-76670080D02*
X35532060Y-76670080D01*
X37350560Y-76670080D02*
X37520560Y-76840080D01*
X35532060Y-76670080D02*
X37350560Y-76670080D01*
X40274420Y-78994000D02*
X40380920Y-79100500D01*
X38455920Y-78994000D02*
X40274420Y-78994000D01*
X43154420Y-79100500D02*
X45206920Y-81153000D01*
X40380920Y-79100500D02*
X43154420Y-79100500D01*
X47746920Y-81153000D02*
X46482000Y-79888080D01*
X46482000Y-79888080D02*
X46482000Y-77724000D01*
X46482000Y-77724000D02*
X45974000Y-77216000D01*
X45974000Y-77216000D02*
X42776000Y-77216000D01*
X42776000Y-77216000D02*
X42164000Y-77828000D01*
X42164000Y-77828000D02*
X42164000Y-77978000D01*
X41176080Y-76840080D02*
X42164000Y-77828000D01*
X40020560Y-76840080D02*
X41176080Y-76840080D01*
G36*
X50254700Y-94857100D02*
X20839900Y-94857100D01*
X20839900Y-92097118D01*
X22176100Y-92097118D01*
X22176100Y-92638882D01*
X22238207Y-92951113D01*
X22415072Y-93215810D01*
X22679769Y-93392675D01*
X22992000Y-93454782D01*
X23019132Y-93449385D01*
X30325941Y-93449385D01*
X30465085Y-93786138D01*
X30722507Y-94044010D01*
X31059017Y-94183741D01*
X31423385Y-94184059D01*
X31760138Y-94044915D01*
X32018010Y-93787493D01*
X32157741Y-93450983D01*
X32158059Y-93086615D01*
X32018915Y-92749862D01*
X31761493Y-92491990D01*
X31424983Y-92352259D01*
X31060615Y-92351941D01*
X30723862Y-92491085D01*
X30465990Y-92748507D01*
X30326259Y-93085017D01*
X30325941Y-93449385D01*
X23019132Y-93449385D01*
X23304231Y-93392675D01*
X23568928Y-93215810D01*
X23745793Y-92951113D01*
X23807900Y-92638882D01*
X23807900Y-92097118D01*
X23745793Y-91784887D01*
X23568928Y-91520190D01*
X23304231Y-91343325D01*
X22992000Y-91281218D01*
X22679769Y-91343325D01*
X22415072Y-91520190D01*
X22238207Y-91784887D01*
X22176100Y-92097118D01*
X20839900Y-92097118D01*
X20839900Y-87330534D01*
X25718873Y-87330534D01*
X25763805Y-87520277D01*
X26176107Y-87628504D01*
X26598441Y-87570710D01*
X26720195Y-87520277D01*
X26765127Y-87330534D01*
X27218873Y-87330534D01*
X27263805Y-87520277D01*
X27676107Y-87628504D01*
X28098441Y-87570710D01*
X28220195Y-87520277D01*
X28265127Y-87330534D01*
X28718873Y-87330534D01*
X28763805Y-87520277D01*
X29176107Y-87628504D01*
X29598441Y-87570710D01*
X29720195Y-87520277D01*
X29765127Y-87330534D01*
X30218873Y-87330534D01*
X30263805Y-87520277D01*
X30676107Y-87628504D01*
X31098441Y-87570710D01*
X31220195Y-87520277D01*
X31265127Y-87330534D01*
X30742000Y-86807408D01*
X30218873Y-87330534D01*
X29765127Y-87330534D01*
X29242000Y-86807408D01*
X28718873Y-87330534D01*
X28265127Y-87330534D01*
X27742000Y-86807408D01*
X27218873Y-87330534D01*
X26765127Y-87330534D01*
X26242000Y-86807408D01*
X25718873Y-87330534D01*
X20839900Y-87330534D01*
X20839900Y-85062220D01*
X22176100Y-85062220D01*
X22176100Y-86113780D01*
X22238207Y-86426011D01*
X22415072Y-86690708D01*
X22679769Y-86867573D01*
X22992000Y-86929680D01*
X23304231Y-86867573D01*
X23568928Y-86690708D01*
X23714992Y-86472107D01*
X25151496Y-86472107D01*
X25209290Y-86894441D01*
X25259723Y-87016195D01*
X25449466Y-87061127D01*
X25972592Y-86538000D01*
X26511408Y-86538000D01*
X26684152Y-86710745D01*
X26709290Y-86894441D01*
X26759723Y-87016195D01*
X26949466Y-87061127D01*
X26992000Y-87018593D01*
X27034534Y-87061127D01*
X27224277Y-87016195D01*
X27306096Y-86704496D01*
X27472592Y-86538000D01*
X28011408Y-86538000D01*
X28184152Y-86710745D01*
X28209290Y-86894441D01*
X28259723Y-87016195D01*
X28449466Y-87061127D01*
X28492000Y-87018593D01*
X28534534Y-87061127D01*
X28724277Y-87016195D01*
X28806096Y-86704496D01*
X28972592Y-86538000D01*
X29511408Y-86538000D01*
X29684152Y-86710745D01*
X29709290Y-86894441D01*
X29759723Y-87016195D01*
X29949466Y-87061127D01*
X29992000Y-87018593D01*
X30034534Y-87061127D01*
X30224277Y-87016195D01*
X30306096Y-86704496D01*
X30472592Y-86538000D01*
X31011408Y-86538000D01*
X31534534Y-87061127D01*
X31710957Y-87019349D01*
X31835946Y-87144556D01*
X32098974Y-87253775D01*
X32383777Y-87254024D01*
X32646995Y-87145264D01*
X32848556Y-86944054D01*
X32957775Y-86681026D01*
X32958024Y-86396223D01*
X32849264Y-86133005D01*
X32648054Y-85931444D01*
X32385026Y-85822225D01*
X32100223Y-85821976D01*
X31837005Y-85930736D01*
X31710887Y-86056634D01*
X31534534Y-86014873D01*
X31011408Y-86538000D01*
X30472592Y-86538000D01*
X30299848Y-86365255D01*
X30274710Y-86181559D01*
X30224277Y-86059805D01*
X30034534Y-86014873D01*
X29992000Y-86057407D01*
X29949466Y-86014873D01*
X29759723Y-86059805D01*
X29677904Y-86371504D01*
X29511408Y-86538000D01*
X28972592Y-86538000D01*
X28799848Y-86365255D01*
X28774710Y-86181559D01*
X28724277Y-86059805D01*
X28534534Y-86014873D01*
X28492000Y-86057407D01*
X28449466Y-86014873D01*
X28259723Y-86059805D01*
X28177904Y-86371504D01*
X28011408Y-86538000D01*
X27472592Y-86538000D01*
X27299848Y-86365255D01*
X27274710Y-86181559D01*
X27224277Y-86059805D01*
X27034534Y-86014873D01*
X26992000Y-86057407D01*
X26949466Y-86014873D01*
X26759723Y-86059805D01*
X26677904Y-86371504D01*
X26511408Y-86538000D01*
X25972592Y-86538000D01*
X25449466Y-86014873D01*
X25259723Y-86059805D01*
X25151496Y-86472107D01*
X23714992Y-86472107D01*
X23745793Y-86426011D01*
X23807900Y-86113780D01*
X23807900Y-85179777D01*
X25025976Y-85179777D01*
X25134736Y-85442995D01*
X25335946Y-85644556D01*
X25598974Y-85753775D01*
X25727294Y-85753887D01*
X26242000Y-86268592D01*
X26765127Y-85745466D01*
X26720195Y-85555723D01*
X26337360Y-85455231D01*
X26348556Y-85444054D01*
X26457775Y-85181026D01*
X26457776Y-85179777D01*
X26525976Y-85179777D01*
X26634736Y-85442995D01*
X26835946Y-85644556D01*
X27098974Y-85753775D01*
X27227294Y-85753887D01*
X27742000Y-86268592D01*
X28265127Y-85745466D01*
X28220195Y-85555723D01*
X27837360Y-85455231D01*
X27848556Y-85444054D01*
X27957775Y-85181026D01*
X27957776Y-85179777D01*
X28025976Y-85179777D01*
X28134736Y-85442995D01*
X28335946Y-85644556D01*
X28598974Y-85753775D01*
X28727294Y-85753887D01*
X29242000Y-86268592D01*
X29765127Y-85745466D01*
X29720195Y-85555723D01*
X29337360Y-85455231D01*
X29348556Y-85444054D01*
X29457775Y-85181026D01*
X29457776Y-85179777D01*
X29525976Y-85179777D01*
X29634736Y-85442995D01*
X29835946Y-85644556D01*
X30098974Y-85753775D01*
X30227294Y-85753887D01*
X30742000Y-86268592D01*
X31265127Y-85745466D01*
X31220195Y-85555723D01*
X30837360Y-85455231D01*
X30848556Y-85444054D01*
X30957775Y-85181026D01*
X30957776Y-85179777D01*
X31025976Y-85179777D01*
X31134736Y-85442995D01*
X31335946Y-85644556D01*
X31598974Y-85753775D01*
X31883777Y-85754024D01*
X32146995Y-85645264D01*
X32273113Y-85519366D01*
X32449466Y-85561127D01*
X32972592Y-85038000D01*
X32449466Y-84514873D01*
X32273043Y-84556651D01*
X32148054Y-84431444D01*
X31885026Y-84322225D01*
X31600223Y-84321976D01*
X31337005Y-84430736D01*
X31135444Y-84631946D01*
X31026225Y-84894974D01*
X31025976Y-85179777D01*
X30957776Y-85179777D01*
X30958024Y-84896223D01*
X30849264Y-84633005D01*
X30648054Y-84431444D01*
X30385026Y-84322225D01*
X30100223Y-84321976D01*
X29837005Y-84430736D01*
X29635444Y-84631946D01*
X29526225Y-84894974D01*
X29525976Y-85179777D01*
X29457776Y-85179777D01*
X29458024Y-84896223D01*
X29349264Y-84633005D01*
X29148054Y-84431444D01*
X28885026Y-84322225D01*
X28600223Y-84321976D01*
X28337005Y-84430736D01*
X28135444Y-84631946D01*
X28026225Y-84894974D01*
X28025976Y-85179777D01*
X27957776Y-85179777D01*
X27958024Y-84896223D01*
X27849264Y-84633005D01*
X27648054Y-84431444D01*
X27385026Y-84322225D01*
X27100223Y-84321976D01*
X26837005Y-84430736D01*
X26635444Y-84631946D01*
X26526225Y-84894974D01*
X26525976Y-85179777D01*
X26457776Y-85179777D01*
X26458024Y-84896223D01*
X26349264Y-84633005D01*
X26148054Y-84431444D01*
X25885026Y-84322225D01*
X25600223Y-84321976D01*
X25337005Y-84430736D01*
X25135444Y-84631946D01*
X25026225Y-84894974D01*
X25025976Y-85179777D01*
X23807900Y-85179777D01*
X23807900Y-85062220D01*
X23745793Y-84749989D01*
X23568928Y-84485292D01*
X23304231Y-84308427D01*
X22992000Y-84246320D01*
X22679769Y-84308427D01*
X22415072Y-84485292D01*
X22238207Y-84749989D01*
X22176100Y-85062220D01*
X20839900Y-85062220D01*
X20839900Y-83679777D01*
X26025976Y-83679777D01*
X26134736Y-83942995D01*
X26335946Y-84144556D01*
X26598974Y-84253775D01*
X26883777Y-84254024D01*
X27146995Y-84145264D01*
X27348556Y-83944054D01*
X27457775Y-83681026D01*
X27457776Y-83679777D01*
X27525976Y-83679777D01*
X27634736Y-83942995D01*
X27835946Y-84144556D01*
X28098974Y-84253775D01*
X28383777Y-84254024D01*
X28646995Y-84145264D01*
X28848556Y-83944054D01*
X28957775Y-83681026D01*
X28957776Y-83679777D01*
X29025976Y-83679777D01*
X29134736Y-83942995D01*
X29335946Y-84144556D01*
X29598974Y-84253775D01*
X29883777Y-84254024D01*
X30146995Y-84145264D01*
X30348556Y-83944054D01*
X30457775Y-83681026D01*
X30457776Y-83679777D01*
X30525976Y-83679777D01*
X30634736Y-83942995D01*
X30835946Y-84144556D01*
X31098974Y-84253775D01*
X31383777Y-84254024D01*
X31646995Y-84145264D01*
X31848556Y-83944054D01*
X31957775Y-83681026D01*
X31958024Y-83396223D01*
X31849264Y-83133005D01*
X31648054Y-82931444D01*
X31385026Y-82822225D01*
X31100223Y-82821976D01*
X30837005Y-82930736D01*
X30635444Y-83131946D01*
X30526225Y-83394974D01*
X30525976Y-83679777D01*
X30457776Y-83679777D01*
X30458024Y-83396223D01*
X30349264Y-83133005D01*
X30148054Y-82931444D01*
X29885026Y-82822225D01*
X29600223Y-82821976D01*
X29337005Y-82930736D01*
X29135444Y-83131946D01*
X29026225Y-83394974D01*
X29025976Y-83679777D01*
X28957776Y-83679777D01*
X28958024Y-83396223D01*
X28849264Y-83133005D01*
X28648054Y-82931444D01*
X28385026Y-82822225D01*
X28100223Y-82821976D01*
X27837005Y-82930736D01*
X27635444Y-83131946D01*
X27526225Y-83394974D01*
X27525976Y-83679777D01*
X27457776Y-83679777D01*
X27458024Y-83396223D01*
X27349264Y-83133005D01*
X27148054Y-82931444D01*
X26885026Y-82822225D01*
X26600223Y-82821976D01*
X26337005Y-82930736D01*
X26135444Y-83131946D01*
X26026225Y-83394974D01*
X26025976Y-83679777D01*
X20839900Y-83679777D01*
X20839900Y-74803455D01*
X34510560Y-74803455D01*
X34510560Y-75183758D01*
X34597566Y-75393808D01*
X34758331Y-75554574D01*
X34968381Y-75641580D01*
X35198685Y-75641580D01*
X35341560Y-75498705D01*
X35341560Y-74660580D01*
X35722560Y-74660580D01*
X35722560Y-75498705D01*
X35865435Y-75641580D01*
X36095739Y-75641580D01*
X36305789Y-75554574D01*
X36466554Y-75393808D01*
X36553560Y-75183758D01*
X36553560Y-74803455D01*
X36410685Y-74660580D01*
X35722560Y-74660580D01*
X35341560Y-74660580D01*
X34653435Y-74660580D01*
X34510560Y-74803455D01*
X20839900Y-74803455D01*
X20839900Y-73756402D01*
X34510560Y-73756402D01*
X34510560Y-74136705D01*
X34653435Y-74279580D01*
X35341560Y-74279580D01*
X35341560Y-73441455D01*
X35722560Y-73441455D01*
X35722560Y-74279580D01*
X36410685Y-74279580D01*
X36553560Y-74136705D01*
X36553560Y-73756402D01*
X36466554Y-73546352D01*
X36305789Y-73385586D01*
X36095739Y-73298580D01*
X35865435Y-73298580D01*
X35722560Y-73441455D01*
X35341560Y-73441455D01*
X35198685Y-73298580D01*
X34968381Y-73298580D01*
X34758331Y-73385586D01*
X34597566Y-73546352D01*
X34510560Y-73756402D01*
X20839900Y-73756402D01*
X20839900Y-71403669D01*
X43831818Y-71403669D01*
X44093648Y-71898637D01*
X44524963Y-72255730D01*
X44796253Y-72368087D01*
X45016420Y-72271106D01*
X45016420Y-71183500D01*
X45397420Y-71183500D01*
X45397420Y-72271106D01*
X45617587Y-72368087D01*
X45888877Y-72255730D01*
X46320192Y-71898637D01*
X46476920Y-71602356D01*
X46633648Y-71898637D01*
X47064963Y-72255730D01*
X47336253Y-72368087D01*
X47556420Y-72271106D01*
X47556420Y-71183500D01*
X45397420Y-71183500D01*
X45016420Y-71183500D01*
X43927380Y-71183500D01*
X43831818Y-71403669D01*
X20839900Y-71403669D01*
X20839900Y-70582331D01*
X43831818Y-70582331D01*
X43927380Y-70802500D01*
X45016420Y-70802500D01*
X45016420Y-69714894D01*
X45397420Y-69714894D01*
X45397420Y-70802500D01*
X47556420Y-70802500D01*
X47556420Y-69714894D01*
X47336253Y-69617913D01*
X47064963Y-69730270D01*
X46633648Y-70087363D01*
X46476920Y-70383644D01*
X46320192Y-70087363D01*
X45888877Y-69730270D01*
X45617587Y-69617913D01*
X45397420Y-69714894D01*
X45016420Y-69714894D01*
X44796253Y-69617913D01*
X44524963Y-69730270D01*
X44093648Y-70087363D01*
X43831818Y-70582331D01*
X20839900Y-70582331D01*
X20839900Y-64111311D01*
X34112200Y-64111311D01*
X34112200Y-64153609D01*
X34194372Y-64566716D01*
X34428378Y-64916931D01*
X34778593Y-65150937D01*
X35191700Y-65233109D01*
X35604807Y-65150937D01*
X35955022Y-64916931D01*
X36189028Y-64566716D01*
X36271200Y-64153609D01*
X36271200Y-64111311D01*
X36652200Y-64111311D01*
X36652200Y-64153609D01*
X36734372Y-64566716D01*
X36968378Y-64916931D01*
X37318593Y-65150937D01*
X37731700Y-65233109D01*
X38144807Y-65150937D01*
X38495022Y-64916931D01*
X38729028Y-64566716D01*
X38811200Y-64153609D01*
X38811200Y-64111311D01*
X39192200Y-64111311D01*
X39192200Y-64153609D01*
X39274372Y-64566716D01*
X39508378Y-64916931D01*
X39858593Y-65150937D01*
X40271700Y-65233109D01*
X40684807Y-65150937D01*
X41035022Y-64916931D01*
X41269028Y-64566716D01*
X41351200Y-64153609D01*
X41351200Y-64111311D01*
X41269028Y-63698204D01*
X41035022Y-63347989D01*
X40684807Y-63113983D01*
X40271700Y-63031811D01*
X39858593Y-63113983D01*
X39508378Y-63347989D01*
X39274372Y-63698204D01*
X39192200Y-64111311D01*
X38811200Y-64111311D01*
X38729028Y-63698204D01*
X38495022Y-63347989D01*
X38144807Y-63113983D01*
X37731700Y-63031811D01*
X37318593Y-63113983D01*
X36968378Y-63347989D01*
X36734372Y-63698204D01*
X36652200Y-64111311D01*
X36271200Y-64111311D01*
X36189028Y-63698204D01*
X35955022Y-63347989D01*
X35604807Y-63113983D01*
X35191700Y-63031811D01*
X34778593Y-63113983D01*
X34428378Y-63347989D01*
X34194372Y-63698204D01*
X34112200Y-64111311D01*
X20839900Y-64111311D01*
X20839900Y-60728860D01*
X34107971Y-60728860D01*
X34107971Y-62456060D01*
X34123025Y-62536068D01*
X34170310Y-62609550D01*
X34242457Y-62658846D01*
X34328100Y-62676189D01*
X36055300Y-62676189D01*
X36135308Y-62661135D01*
X36208790Y-62613850D01*
X36258086Y-62541703D01*
X36275429Y-62456060D01*
X36275429Y-60728860D01*
X36260375Y-60648852D01*
X36213090Y-60575370D01*
X36140943Y-60526074D01*
X36055300Y-60508731D01*
X34328100Y-60508731D01*
X34248092Y-60523785D01*
X34174610Y-60571070D01*
X34125314Y-60643217D01*
X34107971Y-60728860D01*
X20839900Y-60728860D01*
X20839900Y-56918860D01*
X34107971Y-56918860D01*
X34107971Y-58646060D01*
X34123025Y-58726068D01*
X34170310Y-58799550D01*
X34242457Y-58848846D01*
X34328100Y-58866189D01*
X36055300Y-58866189D01*
X36135308Y-58851135D01*
X36208790Y-58803850D01*
X36258086Y-58731703D01*
X36275429Y-58646060D01*
X36275429Y-57761311D01*
X36652200Y-57761311D01*
X36652200Y-57803609D01*
X36734372Y-58216716D01*
X36968378Y-58566931D01*
X37318593Y-58800937D01*
X37452300Y-58827533D01*
X37452300Y-60547387D01*
X37318593Y-60573983D01*
X36968378Y-60807989D01*
X36734372Y-61158204D01*
X36652200Y-61571311D01*
X36652200Y-61613609D01*
X36734372Y-62026716D01*
X36968378Y-62376931D01*
X37318593Y-62610937D01*
X37731700Y-62693109D01*
X38144807Y-62610937D01*
X38495022Y-62376931D01*
X38729028Y-62026716D01*
X38811200Y-61613609D01*
X38811200Y-61571311D01*
X38729028Y-61158204D01*
X38495022Y-60807989D01*
X38144807Y-60573983D01*
X38011100Y-60547387D01*
X38011100Y-58827533D01*
X38144807Y-58800937D01*
X38495022Y-58566931D01*
X38729028Y-58216716D01*
X38811200Y-57803609D01*
X38811200Y-57761311D01*
X39192200Y-57761311D01*
X39192200Y-57803609D01*
X39274372Y-58216716D01*
X39508378Y-58566931D01*
X39858593Y-58800937D01*
X39992300Y-58827533D01*
X39992300Y-60547387D01*
X39858593Y-60573983D01*
X39508378Y-60807989D01*
X39274372Y-61158204D01*
X39192200Y-61571311D01*
X39192200Y-61613609D01*
X39274372Y-62026716D01*
X39508378Y-62376931D01*
X39858593Y-62610937D01*
X40271700Y-62693109D01*
X40684807Y-62610937D01*
X41035022Y-62376931D01*
X41269028Y-62026716D01*
X41351200Y-61613609D01*
X41351200Y-61571311D01*
X41269028Y-61158204D01*
X41035022Y-60807989D01*
X40684807Y-60573983D01*
X40551100Y-60547387D01*
X40551100Y-58827533D01*
X40684807Y-58800937D01*
X41035022Y-58566931D01*
X41269028Y-58216716D01*
X41351200Y-57803609D01*
X41351200Y-57761311D01*
X41732200Y-57761311D01*
X41732200Y-57803609D01*
X41814372Y-58216716D01*
X42048378Y-58566931D01*
X42398593Y-58800937D01*
X42811700Y-58883109D01*
X43224807Y-58800937D01*
X43575022Y-58566931D01*
X43809028Y-58216716D01*
X43813719Y-58193129D01*
X43976598Y-58193129D01*
X44238428Y-58688097D01*
X44669743Y-59045190D01*
X44941033Y-59157547D01*
X45161200Y-59060566D01*
X45161200Y-57972960D01*
X45542200Y-57972960D01*
X45542200Y-59060566D01*
X45762367Y-59157547D01*
X46033657Y-59045190D01*
X46464972Y-58688097D01*
X46726802Y-58193129D01*
X46631240Y-57972960D01*
X45542200Y-57972960D01*
X45161200Y-57972960D01*
X44072160Y-57972960D01*
X43976598Y-58193129D01*
X43813719Y-58193129D01*
X43891200Y-57803609D01*
X43891200Y-57761311D01*
X43809028Y-57348204D01*
X43575022Y-56997989D01*
X43224807Y-56763983D01*
X42811700Y-56681811D01*
X42398593Y-56763983D01*
X42048378Y-56997989D01*
X41814372Y-57348204D01*
X41732200Y-57761311D01*
X41351200Y-57761311D01*
X41269028Y-57348204D01*
X41035022Y-56997989D01*
X40684807Y-56763983D01*
X40271700Y-56681811D01*
X39858593Y-56763983D01*
X39508378Y-56997989D01*
X39274372Y-57348204D01*
X39192200Y-57761311D01*
X38811200Y-57761311D01*
X38729028Y-57348204D01*
X38495022Y-56997989D01*
X38144807Y-56763983D01*
X37731700Y-56681811D01*
X37318593Y-56763983D01*
X36968378Y-56997989D01*
X36734372Y-57348204D01*
X36652200Y-57761311D01*
X36275429Y-57761311D01*
X36275429Y-56918860D01*
X36260375Y-56838852D01*
X36213090Y-56765370D01*
X36140943Y-56716074D01*
X36055300Y-56698731D01*
X34328100Y-56698731D01*
X34248092Y-56713785D01*
X34174610Y-56761070D01*
X34125314Y-56833217D01*
X34107971Y-56918860D01*
X20839900Y-56918860D01*
X20839900Y-55221311D01*
X34112200Y-55221311D01*
X34112200Y-55263609D01*
X34194372Y-55676716D01*
X34428378Y-56026931D01*
X34778593Y-56260937D01*
X35191700Y-56343109D01*
X35604807Y-56260937D01*
X35955022Y-56026931D01*
X36189028Y-55676716D01*
X36271200Y-55263609D01*
X36271200Y-55221311D01*
X36652200Y-55221311D01*
X36652200Y-55263609D01*
X36734372Y-55676716D01*
X36968378Y-56026931D01*
X37318593Y-56260937D01*
X37731700Y-56343109D01*
X38144807Y-56260937D01*
X38495022Y-56026931D01*
X38729028Y-55676716D01*
X38811200Y-55263609D01*
X38811200Y-55221311D01*
X39192200Y-55221311D01*
X39192200Y-55263609D01*
X39274372Y-55676716D01*
X39508378Y-56026931D01*
X39858593Y-56260937D01*
X40271700Y-56343109D01*
X40684807Y-56260937D01*
X41035022Y-56026931D01*
X41269028Y-55676716D01*
X41351200Y-55263609D01*
X41351200Y-55221311D01*
X41732200Y-55221311D01*
X41732200Y-55263609D01*
X41814372Y-55676716D01*
X42048378Y-56026931D01*
X42398593Y-56260937D01*
X42811700Y-56343109D01*
X43224807Y-56260937D01*
X43575022Y-56026931D01*
X43809028Y-55676716D01*
X43813719Y-55653129D01*
X43976598Y-55653129D01*
X44238428Y-56148097D01*
X44669743Y-56505190D01*
X44687297Y-56512460D01*
X44669743Y-56519730D01*
X44238428Y-56876823D01*
X43976598Y-57371791D01*
X44072160Y-57591960D01*
X45161200Y-57591960D01*
X45161200Y-55432960D01*
X45542200Y-55432960D01*
X45542200Y-57591960D01*
X46631240Y-57591960D01*
X46726802Y-57371791D01*
X46464972Y-56876823D01*
X46033657Y-56519730D01*
X46016103Y-56512460D01*
X46033657Y-56505190D01*
X46464972Y-56148097D01*
X46726802Y-55653129D01*
X46631240Y-55432960D01*
X45542200Y-55432960D01*
X45161200Y-55432960D01*
X44072160Y-55432960D01*
X43976598Y-55653129D01*
X43813719Y-55653129D01*
X43891200Y-55263609D01*
X43891200Y-55221311D01*
X43813720Y-54831791D01*
X43976598Y-54831791D01*
X44072160Y-55051960D01*
X45161200Y-55051960D01*
X45161200Y-53964354D01*
X45542200Y-53964354D01*
X45542200Y-55051960D01*
X46631240Y-55051960D01*
X46726802Y-54831791D01*
X46464972Y-54336823D01*
X46033657Y-53979730D01*
X45762367Y-53867373D01*
X45542200Y-53964354D01*
X45161200Y-53964354D01*
X44941033Y-53867373D01*
X44669743Y-53979730D01*
X44238428Y-54336823D01*
X43976598Y-54831791D01*
X43813720Y-54831791D01*
X43809028Y-54808204D01*
X43575022Y-54457989D01*
X43224807Y-54223983D01*
X42811700Y-54141811D01*
X42398593Y-54223983D01*
X42048378Y-54457989D01*
X41814372Y-54808204D01*
X41732200Y-55221311D01*
X41351200Y-55221311D01*
X41269028Y-54808204D01*
X41035022Y-54457989D01*
X40684807Y-54223983D01*
X40271700Y-54141811D01*
X39858593Y-54223983D01*
X39508378Y-54457989D01*
X39274372Y-54808204D01*
X39192200Y-55221311D01*
X38811200Y-55221311D01*
X38729028Y-54808204D01*
X38495022Y-54457989D01*
X38144807Y-54223983D01*
X37731700Y-54141811D01*
X37318593Y-54223983D01*
X36968378Y-54457989D01*
X36734372Y-54808204D01*
X36652200Y-55221311D01*
X36271200Y-55221311D01*
X36189028Y-54808204D01*
X35955022Y-54457989D01*
X35604807Y-54223983D01*
X35191700Y-54141811D01*
X34778593Y-54223983D01*
X34428378Y-54457989D01*
X34194372Y-54808204D01*
X34112200Y-55221311D01*
X20839900Y-55221311D01*
X20839900Y-50568860D01*
X34107971Y-50568860D01*
X34107971Y-52296060D01*
X34123025Y-52376068D01*
X34170310Y-52449550D01*
X34242457Y-52498846D01*
X34328100Y-52516189D01*
X36055300Y-52516189D01*
X36135308Y-52501135D01*
X36208790Y-52453850D01*
X36258086Y-52381703D01*
X36275429Y-52296060D01*
X36275429Y-51411311D01*
X36652200Y-51411311D01*
X36652200Y-51453609D01*
X36734372Y-51866716D01*
X36968378Y-52216931D01*
X37318593Y-52450937D01*
X37731700Y-52533109D01*
X38144807Y-52450937D01*
X38495022Y-52216931D01*
X38729028Y-51866716D01*
X38811200Y-51453609D01*
X38811200Y-51411311D01*
X39192200Y-51411311D01*
X39192200Y-51453609D01*
X39274372Y-51866716D01*
X39508378Y-52216931D01*
X39858593Y-52450937D01*
X40271700Y-52533109D01*
X40684807Y-52450937D01*
X41035022Y-52216931D01*
X41269028Y-51866716D01*
X41351200Y-51453609D01*
X41351200Y-51411311D01*
X41269028Y-50998204D01*
X41035022Y-50647989D01*
X40684807Y-50413983D01*
X40271700Y-50331811D01*
X39858593Y-50413983D01*
X39508378Y-50647989D01*
X39274372Y-50998204D01*
X39192200Y-51411311D01*
X38811200Y-51411311D01*
X38729028Y-50998204D01*
X38495022Y-50647989D01*
X38144807Y-50413983D01*
X37731700Y-50331811D01*
X37318593Y-50413983D01*
X36968378Y-50647989D01*
X36734372Y-50998204D01*
X36652200Y-51411311D01*
X36275429Y-51411311D01*
X36275429Y-50568860D01*
X36260375Y-50488852D01*
X36213090Y-50415370D01*
X36140943Y-50366074D01*
X36055300Y-50348731D01*
X34328100Y-50348731D01*
X34248092Y-50363785D01*
X34174610Y-50411070D01*
X34125314Y-50483217D01*
X34107971Y-50568860D01*
X20839900Y-50568860D01*
X20839900Y-48871311D01*
X34112200Y-48871311D01*
X34112200Y-48913609D01*
X34194372Y-49326716D01*
X34428378Y-49676931D01*
X34778593Y-49910937D01*
X35191700Y-49993109D01*
X35604807Y-49910937D01*
X35955022Y-49676931D01*
X36189028Y-49326716D01*
X36271200Y-48913609D01*
X36271200Y-48871311D01*
X36652200Y-48871311D01*
X36652200Y-48913609D01*
X36734372Y-49326716D01*
X36968378Y-49676931D01*
X37318593Y-49910937D01*
X37731700Y-49993109D01*
X38144807Y-49910937D01*
X38495022Y-49676931D01*
X38729028Y-49326716D01*
X38811200Y-48913609D01*
X38811200Y-48871311D01*
X39192200Y-48871311D01*
X39192200Y-48913609D01*
X39274372Y-49326716D01*
X39508378Y-49676931D01*
X39858593Y-49910937D01*
X40271700Y-49993109D01*
X40684807Y-49910937D01*
X41035022Y-49676931D01*
X41269028Y-49326716D01*
X41351200Y-48913609D01*
X41351200Y-48871311D01*
X41269028Y-48458204D01*
X41035022Y-48107989D01*
X40684807Y-47873983D01*
X40271700Y-47791811D01*
X39858593Y-47873983D01*
X39508378Y-48107989D01*
X39274372Y-48458204D01*
X39192200Y-48871311D01*
X38811200Y-48871311D01*
X38729028Y-48458204D01*
X38495022Y-48107989D01*
X38144807Y-47873983D01*
X37731700Y-47791811D01*
X37318593Y-47873983D01*
X36968378Y-48107989D01*
X36734372Y-48458204D01*
X36652200Y-48871311D01*
X36271200Y-48871311D01*
X36189028Y-48458204D01*
X35955022Y-48107989D01*
X35604807Y-47873983D01*
X35191700Y-47791811D01*
X34778593Y-47873983D01*
X34428378Y-48107989D01*
X34194372Y-48458204D01*
X34112200Y-48871311D01*
X20839900Y-48871311D01*
X20839900Y-33951777D01*
X26025976Y-33951777D01*
X26134736Y-34214995D01*
X26335946Y-34416556D01*
X26598974Y-34525775D01*
X26883777Y-34526024D01*
X27146995Y-34417264D01*
X27348556Y-34216054D01*
X27457775Y-33953026D01*
X27457776Y-33951777D01*
X27525976Y-33951777D01*
X27634736Y-34214995D01*
X27835946Y-34416556D01*
X28098974Y-34525775D01*
X28383777Y-34526024D01*
X28646995Y-34417264D01*
X28848556Y-34216054D01*
X28957775Y-33953026D01*
X28957776Y-33951777D01*
X29025976Y-33951777D01*
X29134736Y-34214995D01*
X29335946Y-34416556D01*
X29598974Y-34525775D01*
X29883777Y-34526024D01*
X30146995Y-34417264D01*
X30348556Y-34216054D01*
X30457775Y-33953026D01*
X30457776Y-33951777D01*
X30525976Y-33951777D01*
X30634736Y-34214995D01*
X30835946Y-34416556D01*
X31098974Y-34525775D01*
X31383777Y-34526024D01*
X31646995Y-34417264D01*
X31848556Y-34216054D01*
X31957775Y-33953026D01*
X31958024Y-33668223D01*
X31849264Y-33405005D01*
X31648054Y-33203444D01*
X31385026Y-33094225D01*
X31100223Y-33093976D01*
X30837005Y-33202736D01*
X30635444Y-33403946D01*
X30526225Y-33666974D01*
X30525976Y-33951777D01*
X30457776Y-33951777D01*
X30458024Y-33668223D01*
X30349264Y-33405005D01*
X30148054Y-33203444D01*
X29885026Y-33094225D01*
X29600223Y-33093976D01*
X29337005Y-33202736D01*
X29135444Y-33403946D01*
X29026225Y-33666974D01*
X29025976Y-33951777D01*
X28957776Y-33951777D01*
X28958024Y-33668223D01*
X28849264Y-33405005D01*
X28648054Y-33203444D01*
X28385026Y-33094225D01*
X28100223Y-33093976D01*
X27837005Y-33202736D01*
X27635444Y-33403946D01*
X27526225Y-33666974D01*
X27525976Y-33951777D01*
X27457776Y-33951777D01*
X27458024Y-33668223D01*
X27349264Y-33405005D01*
X27148054Y-33203444D01*
X26885026Y-33094225D01*
X26600223Y-33093976D01*
X26337005Y-33202736D01*
X26135444Y-33403946D01*
X26026225Y-33666974D01*
X26025976Y-33951777D01*
X20839900Y-33951777D01*
X20839900Y-31234220D01*
X22176100Y-31234220D01*
X22176100Y-32285780D01*
X22238207Y-32598011D01*
X22415072Y-32862708D01*
X22679769Y-33039573D01*
X22992000Y-33101680D01*
X23304231Y-33039573D01*
X23568928Y-32862708D01*
X23745793Y-32598011D01*
X23774880Y-32451777D01*
X25025976Y-32451777D01*
X25134736Y-32714995D01*
X25335946Y-32916556D01*
X25598974Y-33025775D01*
X25883777Y-33026024D01*
X26146995Y-32917264D01*
X26348556Y-32716054D01*
X26457775Y-32453026D01*
X26457776Y-32451777D01*
X26525976Y-32451777D01*
X26634736Y-32714995D01*
X26835946Y-32916556D01*
X27098974Y-33025775D01*
X27383777Y-33026024D01*
X27646995Y-32917264D01*
X27848556Y-32716054D01*
X27957775Y-32453026D01*
X27957776Y-32451777D01*
X28025976Y-32451777D01*
X28134736Y-32714995D01*
X28335946Y-32916556D01*
X28598974Y-33025775D01*
X28883777Y-33026024D01*
X29146995Y-32917264D01*
X29348556Y-32716054D01*
X29457775Y-32453026D01*
X29457776Y-32451777D01*
X29525976Y-32451777D01*
X29634736Y-32714995D01*
X29835946Y-32916556D01*
X30098974Y-33025775D01*
X30383777Y-33026024D01*
X30646995Y-32917264D01*
X30848556Y-32716054D01*
X30957775Y-32453026D01*
X30958024Y-32168223D01*
X30849264Y-31905005D01*
X30824500Y-31880197D01*
X31098441Y-31842710D01*
X31220195Y-31792277D01*
X31265127Y-31602534D01*
X30742000Y-31079408D01*
X30227320Y-31594087D01*
X30100223Y-31593976D01*
X29837005Y-31702736D01*
X29635444Y-31903946D01*
X29526225Y-32166974D01*
X29525976Y-32451777D01*
X29457776Y-32451777D01*
X29458024Y-32168223D01*
X29349264Y-31905005D01*
X29324500Y-31880197D01*
X29598441Y-31842710D01*
X29720195Y-31792277D01*
X29765127Y-31602534D01*
X29242000Y-31079408D01*
X28727320Y-31594087D01*
X28600223Y-31593976D01*
X28337005Y-31702736D01*
X28135444Y-31903946D01*
X28026225Y-32166974D01*
X28025976Y-32451777D01*
X27957776Y-32451777D01*
X27958024Y-32168223D01*
X27849264Y-31905005D01*
X27824500Y-31880197D01*
X28098441Y-31842710D01*
X28220195Y-31792277D01*
X28265127Y-31602534D01*
X27742000Y-31079408D01*
X27227320Y-31594087D01*
X27100223Y-31593976D01*
X26837005Y-31702736D01*
X26635444Y-31903946D01*
X26526225Y-32166974D01*
X26525976Y-32451777D01*
X26457776Y-32451777D01*
X26458024Y-32168223D01*
X26349264Y-31905005D01*
X26324500Y-31880197D01*
X26598441Y-31842710D01*
X26720195Y-31792277D01*
X26765127Y-31602534D01*
X26242000Y-31079408D01*
X25727320Y-31594087D01*
X25600223Y-31593976D01*
X25337005Y-31702736D01*
X25135444Y-31903946D01*
X25026225Y-32166974D01*
X25025976Y-32451777D01*
X23774880Y-32451777D01*
X23807900Y-32285780D01*
X23807900Y-31234220D01*
X23745793Y-30921989D01*
X23626936Y-30744107D01*
X25151496Y-30744107D01*
X25209290Y-31166441D01*
X25259723Y-31288195D01*
X25449466Y-31333127D01*
X25972592Y-30810000D01*
X26511408Y-30810000D01*
X26684152Y-30982745D01*
X26709290Y-31166441D01*
X26759723Y-31288195D01*
X26949466Y-31333127D01*
X26992000Y-31290593D01*
X27034534Y-31333127D01*
X27224277Y-31288195D01*
X27306096Y-30976496D01*
X27472592Y-30810000D01*
X28011408Y-30810000D01*
X28184152Y-30982745D01*
X28209290Y-31166441D01*
X28259723Y-31288195D01*
X28449466Y-31333127D01*
X28492000Y-31290593D01*
X28534534Y-31333127D01*
X28724277Y-31288195D01*
X28806096Y-30976496D01*
X28972592Y-30810000D01*
X29511408Y-30810000D01*
X29684152Y-30982745D01*
X29709290Y-31166441D01*
X29759723Y-31288195D01*
X29949466Y-31333127D01*
X29992000Y-31290593D01*
X30034534Y-31333127D01*
X30224277Y-31288195D01*
X30306096Y-30976496D01*
X30472592Y-30810000D01*
X31011408Y-30810000D01*
X31534534Y-31333127D01*
X31710957Y-31291349D01*
X31835946Y-31416556D01*
X32098974Y-31525775D01*
X32383777Y-31526024D01*
X32510522Y-31473654D01*
X32819433Y-31782565D01*
X32910077Y-31843131D01*
X33016999Y-31864399D01*
X33065807Y-31864399D01*
X33242000Y-32040592D01*
X33256142Y-32026450D01*
X33525550Y-32295858D01*
X33511408Y-32310000D01*
X33525550Y-32324142D01*
X33256142Y-32593550D01*
X33242000Y-32579408D01*
X33227858Y-32593550D01*
X32958450Y-32324142D01*
X32972592Y-32310000D01*
X32449466Y-31786873D01*
X32273043Y-31828651D01*
X32148054Y-31703444D01*
X31885026Y-31594225D01*
X31600223Y-31593976D01*
X31337005Y-31702736D01*
X31135444Y-31903946D01*
X31026225Y-32166974D01*
X31025976Y-32451777D01*
X31134736Y-32714995D01*
X31335946Y-32916556D01*
X31598974Y-33025775D01*
X31883777Y-33026024D01*
X32010522Y-32973654D01*
X32269433Y-33232564D01*
X32269435Y-33232567D01*
X32292011Y-33247652D01*
X32135444Y-33403946D01*
X32026225Y-33666974D01*
X32025976Y-33951777D01*
X32134736Y-34214995D01*
X32335946Y-34416556D01*
X32598974Y-34525775D01*
X32883777Y-34526024D01*
X33146995Y-34417264D01*
X33348556Y-34216054D01*
X33457775Y-33953026D01*
X33458024Y-33668223D01*
X33349264Y-33405005D01*
X33324500Y-33380197D01*
X33598441Y-33342710D01*
X33666784Y-33314401D01*
X33725145Y-33314401D01*
X33635444Y-33403946D01*
X33526225Y-33666974D01*
X33525976Y-33951777D01*
X33634736Y-34214995D01*
X33835946Y-34416556D01*
X34098974Y-34525775D01*
X34383777Y-34526024D01*
X34646995Y-34417264D01*
X34848556Y-34216054D01*
X34957775Y-33953026D01*
X34958024Y-33668223D01*
X34849264Y-33405005D01*
X34824500Y-33380197D01*
X35098441Y-33342710D01*
X35104195Y-33340327D01*
X35236184Y-33472316D01*
X35229891Y-33487472D01*
X35229710Y-33694619D01*
X35308815Y-33886067D01*
X35455162Y-34032670D01*
X35646472Y-34112109D01*
X35853619Y-34112290D01*
X36045067Y-34033185D01*
X36191670Y-33886838D01*
X36271109Y-33695528D01*
X36271290Y-33488381D01*
X36192185Y-33296933D01*
X36045838Y-33150330D01*
X35854528Y-33070891D01*
X35647381Y-33070710D01*
X35631432Y-33077300D01*
X35574695Y-33020563D01*
X35648334Y-32946924D01*
X35534536Y-32833126D01*
X35724277Y-32788195D01*
X35832504Y-32375893D01*
X35774710Y-31953559D01*
X35737778Y-31864399D01*
X35977767Y-31864399D01*
X36181078Y-32067710D01*
X36118891Y-32217472D01*
X36118710Y-32424619D01*
X36197815Y-32616067D01*
X36344162Y-32762670D01*
X36535472Y-32842109D01*
X36742619Y-32842290D01*
X36934067Y-32763185D01*
X37080670Y-32616838D01*
X37160109Y-32425528D01*
X37160290Y-32218381D01*
X37081185Y-32026933D01*
X36934838Y-31880330D01*
X36743528Y-31800891D01*
X36704489Y-31800857D01*
X36291065Y-31387433D01*
X36200421Y-31326867D01*
X36093499Y-31305598D01*
X36093494Y-31305599D01*
X35758855Y-31305599D01*
X35830358Y-31234220D01*
X38676100Y-31234220D01*
X38676100Y-32285780D01*
X38738207Y-32598011D01*
X38915072Y-32862708D01*
X39179769Y-33039573D01*
X39492000Y-33101680D01*
X39804231Y-33039573D01*
X40068928Y-32862708D01*
X40245793Y-32598011D01*
X40307900Y-32285780D01*
X40307900Y-31234220D01*
X40245793Y-30921989D01*
X40068928Y-30657292D01*
X39804231Y-30480427D01*
X39492000Y-30418320D01*
X39179769Y-30480427D01*
X38915072Y-30657292D01*
X38738207Y-30921989D01*
X38676100Y-31234220D01*
X35830358Y-31234220D01*
X35848556Y-31216054D01*
X35957775Y-30953026D01*
X35957888Y-30823705D01*
X36106795Y-30674798D01*
X36106797Y-30674795D01*
X38262192Y-28519400D01*
X45298858Y-28519400D01*
X47371000Y-30591541D01*
X47371000Y-54295874D01*
X47128378Y-54457989D01*
X46894372Y-54808204D01*
X46812200Y-55221311D01*
X46812200Y-55263609D01*
X46894372Y-55676716D01*
X47128378Y-56026931D01*
X47371000Y-56189046D01*
X47371000Y-56835874D01*
X47128378Y-56997989D01*
X46894372Y-57348204D01*
X46812200Y-57761311D01*
X46812200Y-57803609D01*
X46894372Y-58216716D01*
X47128378Y-58566931D01*
X47226220Y-58632307D01*
X47226220Y-67506414D01*
X46983598Y-67668529D01*
X46804145Y-67937100D01*
X46290649Y-67937100D01*
X46290649Y-67589400D01*
X46275595Y-67509392D01*
X46228310Y-67435910D01*
X46156163Y-67386614D01*
X46070520Y-67369271D01*
X44343320Y-67369271D01*
X44263312Y-67384325D01*
X44189830Y-67431610D01*
X44140534Y-67503757D01*
X44123191Y-67589400D01*
X44123191Y-69316600D01*
X44138245Y-69396608D01*
X44185530Y-69470090D01*
X44257677Y-69519386D01*
X44343320Y-69536729D01*
X46070520Y-69536729D01*
X46150528Y-69521675D01*
X46224010Y-69474390D01*
X46273306Y-69402243D01*
X46290649Y-69316600D01*
X46290649Y-68968900D01*
X46804145Y-68968900D01*
X46983598Y-69237471D01*
X47333813Y-69471477D01*
X47746920Y-69553649D01*
X48056415Y-69492087D01*
X48199670Y-69635342D01*
X48157587Y-69617913D01*
X47937420Y-69714894D01*
X47937420Y-70802500D01*
X47957420Y-70802500D01*
X47957420Y-71183500D01*
X47937420Y-71183500D01*
X47937420Y-72271106D01*
X48157587Y-72368087D01*
X48428877Y-72255730D01*
X48860192Y-71898637D01*
X49014100Y-71607687D01*
X49014100Y-88158313D01*
X48860192Y-87867363D01*
X48428877Y-87510270D01*
X48157587Y-87397913D01*
X47937420Y-87494894D01*
X47937420Y-88582500D01*
X47957420Y-88582500D01*
X47957420Y-88963500D01*
X47937420Y-88963500D01*
X47937420Y-90051106D01*
X48157587Y-90148087D01*
X48199670Y-90130658D01*
X48056415Y-90273913D01*
X47746920Y-90212351D01*
X47333813Y-90294523D01*
X46983598Y-90528529D01*
X46804145Y-90797100D01*
X46149695Y-90797100D01*
X45970242Y-90528529D01*
X45620027Y-90294523D01*
X45206920Y-90212351D01*
X44793813Y-90294523D01*
X44443598Y-90528529D01*
X44209592Y-90878744D01*
X44127420Y-91291851D01*
X44127420Y-91334149D01*
X44209592Y-91747256D01*
X44443598Y-92097471D01*
X44793813Y-92331477D01*
X45206920Y-92413649D01*
X45620027Y-92331477D01*
X45970242Y-92097471D01*
X46149695Y-91828900D01*
X46501427Y-91828900D01*
X44612228Y-93718100D01*
X37332224Y-93718100D01*
X35757900Y-92143776D01*
X35757900Y-92097118D01*
X38676100Y-92097118D01*
X38676100Y-92638882D01*
X38738207Y-92951113D01*
X38915072Y-93215810D01*
X39179769Y-93392675D01*
X39492000Y-93454782D01*
X39804231Y-93392675D01*
X40068928Y-93215810D01*
X40245793Y-92951113D01*
X40307900Y-92638882D01*
X40307900Y-92097118D01*
X40245793Y-91784887D01*
X40068928Y-91520190D01*
X39804231Y-91343325D01*
X39492000Y-91281218D01*
X39179769Y-91343325D01*
X38915072Y-91520190D01*
X38738207Y-91784887D01*
X38676100Y-92097118D01*
X35757900Y-92097118D01*
X35757900Y-89183669D01*
X43831818Y-89183669D01*
X44093648Y-89678637D01*
X44524963Y-90035730D01*
X44796253Y-90148087D01*
X45016420Y-90051106D01*
X45016420Y-88963500D01*
X45397420Y-88963500D01*
X45397420Y-90051106D01*
X45617587Y-90148087D01*
X45888877Y-90035730D01*
X46320192Y-89678637D01*
X46476920Y-89382356D01*
X46633648Y-89678637D01*
X47064963Y-90035730D01*
X47336253Y-90148087D01*
X47556420Y-90051106D01*
X47556420Y-88963500D01*
X45397420Y-88963500D01*
X45016420Y-88963500D01*
X43927380Y-88963500D01*
X43831818Y-89183669D01*
X35757900Y-89183669D01*
X35757900Y-88362331D01*
X43831818Y-88362331D01*
X43927380Y-88582500D01*
X45016420Y-88582500D01*
X45016420Y-87494894D01*
X45397420Y-87494894D01*
X45397420Y-88582500D01*
X47556420Y-88582500D01*
X47556420Y-87494894D01*
X47336253Y-87397913D01*
X47064963Y-87510270D01*
X46633648Y-87867363D01*
X46476920Y-88163644D01*
X46320192Y-87867363D01*
X45888877Y-87510270D01*
X45617587Y-87397913D01*
X45397420Y-87494894D01*
X45016420Y-87494894D01*
X44796253Y-87397913D01*
X44524963Y-87510270D01*
X44093648Y-87867363D01*
X43831818Y-88362331D01*
X35757900Y-88362331D01*
X35757900Y-87034552D01*
X35848556Y-86944054D01*
X35957775Y-86681026D01*
X35957888Y-86551704D01*
X37447372Y-85062220D01*
X38676100Y-85062220D01*
X38676100Y-86113780D01*
X38738207Y-86426011D01*
X38915072Y-86690708D01*
X39179769Y-86867573D01*
X39492000Y-86929680D01*
X39804231Y-86867573D01*
X40068928Y-86690708D01*
X40245793Y-86426011D01*
X40288392Y-86211851D01*
X44127420Y-86211851D01*
X44127420Y-86254149D01*
X44209592Y-86667256D01*
X44443598Y-87017471D01*
X44793813Y-87251477D01*
X45206920Y-87333649D01*
X45620027Y-87251477D01*
X45970242Y-87017471D01*
X46204248Y-86667256D01*
X46286420Y-86254149D01*
X46286420Y-86211851D01*
X46667420Y-86211851D01*
X46667420Y-86254149D01*
X46749592Y-86667256D01*
X46983598Y-87017471D01*
X47333813Y-87251477D01*
X47746920Y-87333649D01*
X48160027Y-87251477D01*
X48510242Y-87017471D01*
X48744248Y-86667256D01*
X48826420Y-86254149D01*
X48826420Y-86211851D01*
X48744248Y-85798744D01*
X48510242Y-85448529D01*
X48160027Y-85214523D01*
X47746920Y-85132351D01*
X47333813Y-85214523D01*
X46983598Y-85448529D01*
X46749592Y-85798744D01*
X46667420Y-86211851D01*
X46286420Y-86211851D01*
X46204248Y-85798744D01*
X45970242Y-85448529D01*
X45620027Y-85214523D01*
X45206920Y-85132351D01*
X44793813Y-85214523D01*
X44443598Y-85448529D01*
X44209592Y-85798744D01*
X44127420Y-86211851D01*
X40288392Y-86211851D01*
X40307900Y-86113780D01*
X40307900Y-85062220D01*
X40245793Y-84749989D01*
X40068928Y-84485292D01*
X39804231Y-84308427D01*
X39492000Y-84246320D01*
X39179769Y-84308427D01*
X38915072Y-84485292D01*
X38738207Y-84749989D01*
X38676100Y-85062220D01*
X37447372Y-85062220D01*
X38543716Y-83965876D01*
X38655549Y-83798506D01*
X38656021Y-83796132D01*
X38680742Y-83671851D01*
X44127420Y-83671851D01*
X44127420Y-83714149D01*
X44209592Y-84127256D01*
X44443598Y-84477471D01*
X44793813Y-84711477D01*
X45206920Y-84793649D01*
X45620027Y-84711477D01*
X45970242Y-84477471D01*
X46204248Y-84127256D01*
X46286420Y-83714149D01*
X46286420Y-83671851D01*
X46667420Y-83671851D01*
X46667420Y-83714149D01*
X46749592Y-84127256D01*
X46983598Y-84477471D01*
X47333813Y-84711477D01*
X47746920Y-84793649D01*
X48160027Y-84711477D01*
X48510242Y-84477471D01*
X48744248Y-84127256D01*
X48826420Y-83714149D01*
X48826420Y-83671851D01*
X48744248Y-83258744D01*
X48510242Y-82908529D01*
X48160027Y-82674523D01*
X47746920Y-82592351D01*
X47333813Y-82674523D01*
X46983598Y-82908529D01*
X46749592Y-83258744D01*
X46667420Y-83671851D01*
X46286420Y-83671851D01*
X46204248Y-83258744D01*
X45970242Y-82908529D01*
X45620027Y-82674523D01*
X45206920Y-82592351D01*
X44793813Y-82674523D01*
X44443598Y-82908529D01*
X44209592Y-83258744D01*
X44127420Y-83671851D01*
X38680742Y-83671851D01*
X38694820Y-83601080D01*
X38694820Y-81696129D01*
X38778920Y-81696129D01*
X38858928Y-81681075D01*
X38932410Y-81633790D01*
X38981706Y-81561643D01*
X38985704Y-81541900D01*
X39165227Y-81541900D01*
X39261744Y-81638417D01*
X39279704Y-81665296D01*
X39447074Y-81777129D01*
X39644500Y-81816400D01*
X39710791Y-81816400D01*
X39710791Y-81900500D01*
X39725845Y-81980508D01*
X39773130Y-82053990D01*
X39845277Y-82103286D01*
X39930920Y-82120629D01*
X40830920Y-82120629D01*
X40910928Y-82105575D01*
X40984410Y-82058290D01*
X41033706Y-81986143D01*
X41051049Y-81900500D01*
X41051049Y-81814501D01*
X41238926Y-81777129D01*
X41406296Y-81665296D01*
X42073464Y-80998129D01*
X42614000Y-80998129D01*
X42694008Y-80983075D01*
X42767490Y-80935790D01*
X42816786Y-80863643D01*
X42834129Y-80778000D01*
X42834129Y-79578000D01*
X42819075Y-79497992D01*
X42771790Y-79424510D01*
X42706501Y-79379900D01*
X43038688Y-79379900D01*
X44276860Y-80618071D01*
X44209592Y-80718744D01*
X44127420Y-81131851D01*
X44127420Y-81174149D01*
X44209592Y-81587256D01*
X44443598Y-81937471D01*
X44793813Y-82171477D01*
X45206920Y-82253649D01*
X45620027Y-82171477D01*
X45970242Y-81937471D01*
X46204248Y-81587256D01*
X46286420Y-81174149D01*
X46286420Y-81131851D01*
X46204248Y-80718744D01*
X45970242Y-80368529D01*
X45620027Y-80134523D01*
X45206920Y-80052351D01*
X44793813Y-80134523D01*
X44667784Y-80218733D01*
X43351986Y-78902934D01*
X43261342Y-78842368D01*
X43154420Y-78821099D01*
X43154415Y-78821100D01*
X41051049Y-78821100D01*
X41051049Y-78500500D01*
X41035995Y-78420492D01*
X40988710Y-78347010D01*
X40916563Y-78297714D01*
X40830920Y-78280371D01*
X39930920Y-78280371D01*
X39850912Y-78295425D01*
X39777430Y-78342710D01*
X39728134Y-78414857D01*
X39710791Y-78500500D01*
X39710791Y-78714600D01*
X39426049Y-78714600D01*
X39426049Y-78369000D01*
X39410995Y-78288992D01*
X39363710Y-78215510D01*
X39291563Y-78166214D01*
X39205920Y-78148871D01*
X38617090Y-78148871D01*
X38653166Y-78124766D01*
X38983363Y-77794568D01*
X38983366Y-77794566D01*
X39043932Y-77703922D01*
X39065200Y-77597000D01*
X39065200Y-77543573D01*
X39065485Y-77545088D01*
X39112770Y-77618570D01*
X39184917Y-77667866D01*
X39270560Y-77685209D01*
X40770560Y-77685209D01*
X40850568Y-77670155D01*
X40924050Y-77622870D01*
X40973346Y-77550723D01*
X40990689Y-77465080D01*
X40990689Y-77119480D01*
X41060348Y-77119480D01*
X41493871Y-77553003D01*
X41493871Y-78578000D01*
X41508925Y-78658008D01*
X41556210Y-78731490D01*
X41628357Y-78780786D01*
X41714000Y-78798129D01*
X42614000Y-78798129D01*
X42694008Y-78783075D01*
X42767490Y-78735790D01*
X42816786Y-78663643D01*
X42834129Y-78578000D01*
X42834129Y-77553002D01*
X42891731Y-77495400D01*
X45858268Y-77495400D01*
X46202600Y-77839731D01*
X46202600Y-78176278D01*
X45970242Y-77828529D01*
X45620027Y-77594523D01*
X45206920Y-77512351D01*
X44793813Y-77594523D01*
X44443598Y-77828529D01*
X44209592Y-78178744D01*
X44127420Y-78591851D01*
X44127420Y-78634149D01*
X44209592Y-79047256D01*
X44443598Y-79397471D01*
X44793813Y-79631477D01*
X45206920Y-79713649D01*
X45620027Y-79631477D01*
X45970242Y-79397471D01*
X46202600Y-79049722D01*
X46202600Y-79888075D01*
X46202599Y-79888080D01*
X46223868Y-79995002D01*
X46284434Y-80085646D01*
X46816859Y-80618071D01*
X46749592Y-80718744D01*
X46667420Y-81131851D01*
X46667420Y-81174149D01*
X46749592Y-81587256D01*
X46983598Y-81937471D01*
X47333813Y-82171477D01*
X47746920Y-82253649D01*
X48160027Y-82171477D01*
X48510242Y-81937471D01*
X48744248Y-81587256D01*
X48826420Y-81174149D01*
X48826420Y-81131851D01*
X48744248Y-80718744D01*
X48510242Y-80368529D01*
X48160027Y-80134523D01*
X47746920Y-80052351D01*
X47333813Y-80134523D01*
X47207784Y-80218732D01*
X46761400Y-79772348D01*
X46761400Y-79064928D01*
X46983598Y-79397471D01*
X47333813Y-79631477D01*
X47746920Y-79713649D01*
X48160027Y-79631477D01*
X48510242Y-79397471D01*
X48744248Y-79047256D01*
X48826420Y-78634149D01*
X48826420Y-78591851D01*
X48744248Y-78178744D01*
X48510242Y-77828529D01*
X48160027Y-77594523D01*
X47746920Y-77512351D01*
X47333813Y-77594523D01*
X46983598Y-77828529D01*
X46761400Y-78161072D01*
X46761400Y-77724000D01*
X46740132Y-77617078D01*
X46679566Y-77526434D01*
X46679563Y-77526432D01*
X46171566Y-77018434D01*
X46080922Y-76957868D01*
X45974000Y-76936599D01*
X45973995Y-76936600D01*
X45851817Y-76936600D01*
X45970242Y-76857471D01*
X46204248Y-76507256D01*
X46286420Y-76094149D01*
X46286420Y-76051851D01*
X46667420Y-76051851D01*
X46667420Y-76094149D01*
X46749592Y-76507256D01*
X46983598Y-76857471D01*
X47333813Y-77091477D01*
X47746920Y-77173649D01*
X48160027Y-77091477D01*
X48510242Y-76857471D01*
X48744248Y-76507256D01*
X48826420Y-76094149D01*
X48826420Y-76051851D01*
X48744248Y-75638744D01*
X48510242Y-75288529D01*
X48160027Y-75054523D01*
X47746920Y-74972351D01*
X47333813Y-75054523D01*
X46983598Y-75288529D01*
X46749592Y-75638744D01*
X46667420Y-76051851D01*
X46286420Y-76051851D01*
X46204248Y-75638744D01*
X45970242Y-75288529D01*
X45620027Y-75054523D01*
X45206920Y-74972351D01*
X44793813Y-75054523D01*
X44443598Y-75288529D01*
X44209592Y-75638744D01*
X44127420Y-76051851D01*
X44127420Y-76094149D01*
X44209592Y-76507256D01*
X44443598Y-76857471D01*
X44562023Y-76936600D01*
X42776005Y-76936600D01*
X42776000Y-76936599D01*
X42686818Y-76954339D01*
X42669078Y-76957868D01*
X42578434Y-77018434D01*
X42578432Y-77018437D01*
X42438998Y-77157871D01*
X41889003Y-77157871D01*
X41373646Y-76642514D01*
X41283002Y-76581948D01*
X41176080Y-76560679D01*
X41176075Y-76560680D01*
X40990689Y-76560680D01*
X40990689Y-76215080D01*
X40975635Y-76135072D01*
X40928350Y-76061590D01*
X40856203Y-76012294D01*
X40770560Y-75994951D01*
X39503319Y-75994951D01*
X41685869Y-73812400D01*
X44178789Y-73812400D01*
X44209592Y-73967256D01*
X44443598Y-74317471D01*
X44793813Y-74551477D01*
X45206920Y-74633649D01*
X45620027Y-74551477D01*
X45970242Y-74317471D01*
X46204248Y-73967256D01*
X46286420Y-73554149D01*
X46286420Y-73511851D01*
X46667420Y-73511851D01*
X46667420Y-73554149D01*
X46749592Y-73967256D01*
X46983598Y-74317471D01*
X47333813Y-74551477D01*
X47746920Y-74633649D01*
X48160027Y-74551477D01*
X48510242Y-74317471D01*
X48744248Y-73967256D01*
X48826420Y-73554149D01*
X48826420Y-73511851D01*
X48744248Y-73098744D01*
X48510242Y-72748529D01*
X48160027Y-72514523D01*
X47746920Y-72432351D01*
X47333813Y-72514523D01*
X46983598Y-72748529D01*
X46749592Y-73098744D01*
X46667420Y-73511851D01*
X46286420Y-73511851D01*
X46204248Y-73098744D01*
X45970242Y-72748529D01*
X45620027Y-72514523D01*
X45206920Y-72432351D01*
X44793813Y-72514523D01*
X44443598Y-72748529D01*
X44209592Y-73098744D01*
X44178789Y-73253600D01*
X41570143Y-73253600D01*
X41570138Y-73253599D01*
X41480956Y-73271339D01*
X41463216Y-73274868D01*
X41372572Y-73335434D01*
X41372570Y-73335437D01*
X38588234Y-76119772D01*
X38527668Y-76210416D01*
X38506399Y-76317338D01*
X38506400Y-76317343D01*
X38506400Y-77481269D01*
X38482589Y-77505080D01*
X38490689Y-77465080D01*
X38490689Y-76215080D01*
X38475635Y-76135072D01*
X38428350Y-76061590D01*
X38356203Y-76012294D01*
X38270560Y-75994951D01*
X36770560Y-75994951D01*
X36690552Y-76010005D01*
X36617070Y-76057290D01*
X36567774Y-76129437D01*
X36550431Y-76215080D01*
X36550431Y-76390680D01*
X36202189Y-76390680D01*
X36202189Y-76070080D01*
X36187135Y-75990072D01*
X36139850Y-75916590D01*
X36067703Y-75867294D01*
X35982060Y-75849951D01*
X35082060Y-75849951D01*
X35002052Y-75865005D01*
X34928570Y-75912290D01*
X34879274Y-75984437D01*
X34861931Y-76070080D01*
X34861931Y-76390680D01*
X34088644Y-76390680D01*
X33919020Y-76221055D01*
X33847636Y-76173358D01*
X33827264Y-76124054D01*
X33680917Y-75977451D01*
X33489607Y-75898012D01*
X33282460Y-75897831D01*
X33091012Y-75976936D01*
X32944409Y-76123283D01*
X32864970Y-76314593D01*
X32864789Y-76521740D01*
X32943894Y-76713188D01*
X33090241Y-76859791D01*
X33281551Y-76939230D01*
X33488698Y-76939411D01*
X33680146Y-76860306D01*
X33724115Y-76816413D01*
X33775345Y-76867643D01*
X33775347Y-76867646D01*
X33865991Y-76928212D01*
X33883731Y-76931741D01*
X33972913Y-76949481D01*
X33972918Y-76949480D01*
X34861931Y-76949480D01*
X34861931Y-77270080D01*
X34876985Y-77350088D01*
X34924270Y-77423570D01*
X34996417Y-77472866D01*
X35082060Y-77490209D01*
X35982060Y-77490209D01*
X36062068Y-77475155D01*
X36135550Y-77427870D01*
X36184846Y-77355723D01*
X36202189Y-77270080D01*
X36202189Y-76949480D01*
X36550431Y-76949480D01*
X36550431Y-77465080D01*
X36565485Y-77545088D01*
X36612770Y-77618570D01*
X36684917Y-77667866D01*
X36770560Y-77685209D01*
X37359321Y-77685209D01*
X37292834Y-77729634D01*
X37292832Y-77729637D01*
X36937234Y-78085234D01*
X36876668Y-78175878D01*
X36867586Y-78221534D01*
X36863710Y-78215510D01*
X36791563Y-78166214D01*
X36705920Y-78148871D01*
X35205920Y-78148871D01*
X35125912Y-78163925D01*
X35052430Y-78211210D01*
X35003134Y-78283357D01*
X34985791Y-78369000D01*
X34985791Y-79619000D01*
X35000845Y-79699008D01*
X35048130Y-79772490D01*
X35120277Y-79821786D01*
X35205920Y-79839129D01*
X35699520Y-79839129D01*
X35699520Y-80355871D01*
X35378920Y-80355871D01*
X35298912Y-80370925D01*
X35225430Y-80418210D01*
X35176134Y-80490357D01*
X35158791Y-80576000D01*
X35158791Y-80765777D01*
X35148278Y-80767868D01*
X35057634Y-80828434D01*
X35057632Y-80828437D01*
X33269435Y-82616633D01*
X33208869Y-82707277D01*
X33187600Y-82814199D01*
X33187601Y-82814204D01*
X33187601Y-82971060D01*
X33148054Y-82931444D01*
X32885026Y-82822225D01*
X32600223Y-82821976D01*
X32337005Y-82930736D01*
X32135444Y-83131946D01*
X32026225Y-83394974D01*
X32025976Y-83679777D01*
X32134736Y-83942995D01*
X32335946Y-84144556D01*
X32598974Y-84253775D01*
X32727294Y-84253887D01*
X33242000Y-84768592D01*
X33446231Y-84564361D01*
X33687601Y-84805730D01*
X33687601Y-84834561D01*
X33677904Y-84871504D01*
X33511408Y-85038000D01*
X33525550Y-85052142D01*
X33256142Y-85321550D01*
X33242000Y-85307408D01*
X32718873Y-85830534D01*
X32763805Y-86020277D01*
X33146640Y-86120769D01*
X33135444Y-86131946D01*
X33026225Y-86394974D01*
X33025976Y-86679777D01*
X33134736Y-86942995D01*
X33335946Y-87144556D01*
X33598974Y-87253775D01*
X33883777Y-87254024D01*
X34146995Y-87145264D01*
X34348556Y-86944054D01*
X34457775Y-86681026D01*
X34458024Y-86396223D01*
X34349264Y-86133005D01*
X34148054Y-85931444D01*
X34126794Y-85922616D01*
X34218874Y-85830536D01*
X34263805Y-86020277D01*
X34646640Y-86120769D01*
X34635444Y-86131946D01*
X34526225Y-86394974D01*
X34525976Y-86679777D01*
X34634736Y-86942995D01*
X34726100Y-87034518D01*
X34726100Y-92357468D01*
X34762686Y-92541395D01*
X34765371Y-92554894D01*
X34877204Y-92722264D01*
X36753736Y-94598796D01*
X36921106Y-94710629D01*
X37118532Y-94749900D01*
X44825920Y-94749900D01*
X45023346Y-94710629D01*
X45190716Y-94598796D01*
X47248117Y-92541396D01*
X47248119Y-92541393D01*
X47437425Y-92352087D01*
X47746920Y-92413649D01*
X48160027Y-92331477D01*
X48510242Y-92097471D01*
X48744248Y-91747256D01*
X48826420Y-91334149D01*
X48826420Y-91291851D01*
X48771875Y-91017637D01*
X49894796Y-89894716D01*
X50006629Y-89727346D01*
X50045900Y-89529920D01*
X50045900Y-70236080D01*
X50006629Y-70038654D01*
X49894796Y-69871284D01*
X48771875Y-68748363D01*
X48826420Y-68474149D01*
X48826420Y-68431851D01*
X48744248Y-68018744D01*
X48510242Y-67668529D01*
X48267620Y-67506414D01*
X48267620Y-58808334D01*
X48304807Y-58800937D01*
X48655022Y-58566931D01*
X48889028Y-58216716D01*
X48971200Y-57803609D01*
X48971200Y-57761311D01*
X48889028Y-57348204D01*
X48655022Y-56997989D01*
X48412400Y-56835874D01*
X48412400Y-56189046D01*
X48655022Y-56026931D01*
X48889028Y-55676716D01*
X48971200Y-55263609D01*
X48971200Y-55221311D01*
X48889028Y-54808204D01*
X48655022Y-54457989D01*
X48412400Y-54295874D01*
X48412400Y-30375865D01*
X48412401Y-30375860D01*
X48372764Y-30176597D01*
X48317559Y-30093976D01*
X48259891Y-30007669D01*
X48259888Y-30007667D01*
X45887531Y-27635309D01*
X45718603Y-27522436D01*
X45519340Y-27482799D01*
X45495204Y-27487600D01*
X38048500Y-27487600D01*
X37851074Y-27526871D01*
X37683704Y-27638704D01*
X35377205Y-29945203D01*
X35377202Y-29945205D01*
X35228319Y-30094088D01*
X35100223Y-30093976D01*
X34837005Y-30202736D01*
X34635444Y-30403946D01*
X34526225Y-30666974D01*
X34525976Y-30951777D01*
X34634736Y-31214995D01*
X34659500Y-31239803D01*
X34385559Y-31277290D01*
X34317216Y-31305599D01*
X34258855Y-31305599D01*
X34348556Y-31216054D01*
X34457775Y-30953026D01*
X34458024Y-30668223D01*
X34349264Y-30405005D01*
X34148054Y-30203444D01*
X33885026Y-30094225D01*
X33600223Y-30093976D01*
X33337005Y-30202736D01*
X33135444Y-30403946D01*
X33026225Y-30666974D01*
X33025976Y-30951777D01*
X33134736Y-31214995D01*
X33159500Y-31239803D01*
X33078077Y-31250945D01*
X32905661Y-31078529D01*
X32957775Y-30953026D01*
X32958024Y-30668223D01*
X32849264Y-30405005D01*
X32648054Y-30203444D01*
X32385026Y-30094225D01*
X32100223Y-30093976D01*
X31837005Y-30202736D01*
X31710887Y-30328634D01*
X31534534Y-30286873D01*
X31011408Y-30810000D01*
X30472592Y-30810000D01*
X30299848Y-30637255D01*
X30274710Y-30453559D01*
X30224277Y-30331805D01*
X30034534Y-30286873D01*
X29992000Y-30329407D01*
X29949466Y-30286873D01*
X29759723Y-30331805D01*
X29677904Y-30643504D01*
X29511408Y-30810000D01*
X28972592Y-30810000D01*
X28799848Y-30637255D01*
X28774710Y-30453559D01*
X28724277Y-30331805D01*
X28534534Y-30286873D01*
X28492000Y-30329407D01*
X28449466Y-30286873D01*
X28259723Y-30331805D01*
X28177904Y-30643504D01*
X28011408Y-30810000D01*
X27472592Y-30810000D01*
X27299848Y-30637255D01*
X27274710Y-30453559D01*
X27224277Y-30331805D01*
X27034534Y-30286873D01*
X26992000Y-30329407D01*
X26949466Y-30286873D01*
X26759723Y-30331805D01*
X26677904Y-30643504D01*
X26511408Y-30810000D01*
X25972592Y-30810000D01*
X25449466Y-30286873D01*
X25259723Y-30331805D01*
X25151496Y-30744107D01*
X23626936Y-30744107D01*
X23568928Y-30657292D01*
X23304231Y-30480427D01*
X22992000Y-30418320D01*
X22679769Y-30480427D01*
X22415072Y-30657292D01*
X22238207Y-30921989D01*
X22176100Y-31234220D01*
X20839900Y-31234220D01*
X20839900Y-30017466D01*
X25718873Y-30017466D01*
X26242000Y-30540592D01*
X26765127Y-30017466D01*
X27218873Y-30017466D01*
X27742000Y-30540592D01*
X28265127Y-30017466D01*
X28718873Y-30017466D01*
X29242000Y-30540592D01*
X29765127Y-30017466D01*
X30218873Y-30017466D01*
X30742000Y-30540592D01*
X31265127Y-30017466D01*
X31220195Y-29827723D01*
X30807893Y-29719496D01*
X30385559Y-29777290D01*
X30263805Y-29827723D01*
X30218873Y-30017466D01*
X29765127Y-30017466D01*
X29720195Y-29827723D01*
X29307893Y-29719496D01*
X28885559Y-29777290D01*
X28763805Y-29827723D01*
X28718873Y-30017466D01*
X28265127Y-30017466D01*
X28220195Y-29827723D01*
X27807893Y-29719496D01*
X27385559Y-29777290D01*
X27263805Y-29827723D01*
X27218873Y-30017466D01*
X26765127Y-30017466D01*
X26720195Y-29827723D01*
X26307893Y-29719496D01*
X25885559Y-29777290D01*
X25763805Y-29827723D01*
X25718873Y-30017466D01*
X20839900Y-30017466D01*
X20839900Y-24709118D01*
X22176100Y-24709118D01*
X22176100Y-25250882D01*
X22238207Y-25563113D01*
X22415072Y-25827810D01*
X22679769Y-26004675D01*
X22992000Y-26066782D01*
X23304231Y-26004675D01*
X23568928Y-25827810D01*
X23745793Y-25563113D01*
X23807900Y-25250882D01*
X23807900Y-24709118D01*
X23745793Y-24396887D01*
X23655254Y-24261385D01*
X30325941Y-24261385D01*
X30465085Y-24598138D01*
X30722507Y-24856010D01*
X31059017Y-24995741D01*
X31423385Y-24996059D01*
X31760138Y-24856915D01*
X31908193Y-24709118D01*
X38676100Y-24709118D01*
X38676100Y-25250882D01*
X38738207Y-25563113D01*
X38915072Y-25827810D01*
X39179769Y-26004675D01*
X39492000Y-26066782D01*
X39804231Y-26004675D01*
X40068928Y-25827810D01*
X40245793Y-25563113D01*
X40307900Y-25250882D01*
X40307900Y-24709118D01*
X40245793Y-24396887D01*
X40068928Y-24132190D01*
X39804231Y-23955325D01*
X39492000Y-23893218D01*
X39179769Y-23955325D01*
X38915072Y-24132190D01*
X38738207Y-24396887D01*
X38676100Y-24709118D01*
X31908193Y-24709118D01*
X32018010Y-24599493D01*
X32157741Y-24262983D01*
X32158059Y-23898615D01*
X32018915Y-23561862D01*
X31761493Y-23303990D01*
X31424983Y-23164259D01*
X31060615Y-23163941D01*
X30723862Y-23303085D01*
X30465990Y-23560507D01*
X30326259Y-23897017D01*
X30325941Y-24261385D01*
X23655254Y-24261385D01*
X23568928Y-24132190D01*
X23304231Y-23955325D01*
X22992000Y-23893218D01*
X22679769Y-23955325D01*
X22415072Y-24132190D01*
X22238207Y-24396887D01*
X22176100Y-24709118D01*
X20839900Y-24709118D01*
X20839900Y-22541700D01*
X50254700Y-22541700D01*
X50254700Y-94857100D01*
X50254700Y-94857100D01*
G37*
X50254700Y-94857100D02*
X20839900Y-94857100D01*
X20839900Y-92097118D01*
X22176100Y-92097118D01*
X22176100Y-92638882D01*
X22238207Y-92951113D01*
X22415072Y-93215810D01*
X22679769Y-93392675D01*
X22992000Y-93454782D01*
X23019132Y-93449385D01*
X30325941Y-93449385D01*
X30465085Y-93786138D01*
X30722507Y-94044010D01*
X31059017Y-94183741D01*
X31423385Y-94184059D01*
X31760138Y-94044915D01*
X32018010Y-93787493D01*
X32157741Y-93450983D01*
X32158059Y-93086615D01*
X32018915Y-92749862D01*
X31761493Y-92491990D01*
X31424983Y-92352259D01*
X31060615Y-92351941D01*
X30723862Y-92491085D01*
X30465990Y-92748507D01*
X30326259Y-93085017D01*
X30325941Y-93449385D01*
X23019132Y-93449385D01*
X23304231Y-93392675D01*
X23568928Y-93215810D01*
X23745793Y-92951113D01*
X23807900Y-92638882D01*
X23807900Y-92097118D01*
X23745793Y-91784887D01*
X23568928Y-91520190D01*
X23304231Y-91343325D01*
X22992000Y-91281218D01*
X22679769Y-91343325D01*
X22415072Y-91520190D01*
X22238207Y-91784887D01*
X22176100Y-92097118D01*
X20839900Y-92097118D01*
X20839900Y-87330534D01*
X25718873Y-87330534D01*
X25763805Y-87520277D01*
X26176107Y-87628504D01*
X26598441Y-87570710D01*
X26720195Y-87520277D01*
X26765127Y-87330534D01*
X27218873Y-87330534D01*
X27263805Y-87520277D01*
X27676107Y-87628504D01*
X28098441Y-87570710D01*
X28220195Y-87520277D01*
X28265127Y-87330534D01*
X28718873Y-87330534D01*
X28763805Y-87520277D01*
X29176107Y-87628504D01*
X29598441Y-87570710D01*
X29720195Y-87520277D01*
X29765127Y-87330534D01*
X30218873Y-87330534D01*
X30263805Y-87520277D01*
X30676107Y-87628504D01*
X31098441Y-87570710D01*
X31220195Y-87520277D01*
X31265127Y-87330534D01*
X30742000Y-86807408D01*
X30218873Y-87330534D01*
X29765127Y-87330534D01*
X29242000Y-86807408D01*
X28718873Y-87330534D01*
X28265127Y-87330534D01*
X27742000Y-86807408D01*
X27218873Y-87330534D01*
X26765127Y-87330534D01*
X26242000Y-86807408D01*
X25718873Y-87330534D01*
X20839900Y-87330534D01*
X20839900Y-85062220D01*
X22176100Y-85062220D01*
X22176100Y-86113780D01*
X22238207Y-86426011D01*
X22415072Y-86690708D01*
X22679769Y-86867573D01*
X22992000Y-86929680D01*
X23304231Y-86867573D01*
X23568928Y-86690708D01*
X23714992Y-86472107D01*
X25151496Y-86472107D01*
X25209290Y-86894441D01*
X25259723Y-87016195D01*
X25449466Y-87061127D01*
X25972592Y-86538000D01*
X26511408Y-86538000D01*
X26684152Y-86710745D01*
X26709290Y-86894441D01*
X26759723Y-87016195D01*
X26949466Y-87061127D01*
X26992000Y-87018593D01*
X27034534Y-87061127D01*
X27224277Y-87016195D01*
X27306096Y-86704496D01*
X27472592Y-86538000D01*
X28011408Y-86538000D01*
X28184152Y-86710745D01*
X28209290Y-86894441D01*
X28259723Y-87016195D01*
X28449466Y-87061127D01*
X28492000Y-87018593D01*
X28534534Y-87061127D01*
X28724277Y-87016195D01*
X28806096Y-86704496D01*
X28972592Y-86538000D01*
X29511408Y-86538000D01*
X29684152Y-86710745D01*
X29709290Y-86894441D01*
X29759723Y-87016195D01*
X29949466Y-87061127D01*
X29992000Y-87018593D01*
X30034534Y-87061127D01*
X30224277Y-87016195D01*
X30306096Y-86704496D01*
X30472592Y-86538000D01*
X31011408Y-86538000D01*
X31534534Y-87061127D01*
X31710957Y-87019349D01*
X31835946Y-87144556D01*
X32098974Y-87253775D01*
X32383777Y-87254024D01*
X32646995Y-87145264D01*
X32848556Y-86944054D01*
X32957775Y-86681026D01*
X32958024Y-86396223D01*
X32849264Y-86133005D01*
X32648054Y-85931444D01*
X32385026Y-85822225D01*
X32100223Y-85821976D01*
X31837005Y-85930736D01*
X31710887Y-86056634D01*
X31534534Y-86014873D01*
X31011408Y-86538000D01*
X30472592Y-86538000D01*
X30299848Y-86365255D01*
X30274710Y-86181559D01*
X30224277Y-86059805D01*
X30034534Y-86014873D01*
X29992000Y-86057407D01*
X29949466Y-86014873D01*
X29759723Y-86059805D01*
X29677904Y-86371504D01*
X29511408Y-86538000D01*
X28972592Y-86538000D01*
X28799848Y-86365255D01*
X28774710Y-86181559D01*
X28724277Y-86059805D01*
X28534534Y-86014873D01*
X28492000Y-86057407D01*
X28449466Y-86014873D01*
X28259723Y-86059805D01*
X28177904Y-86371504D01*
X28011408Y-86538000D01*
X27472592Y-86538000D01*
X27299848Y-86365255D01*
X27274710Y-86181559D01*
X27224277Y-86059805D01*
X27034534Y-86014873D01*
X26992000Y-86057407D01*
X26949466Y-86014873D01*
X26759723Y-86059805D01*
X26677904Y-86371504D01*
X26511408Y-86538000D01*
X25972592Y-86538000D01*
X25449466Y-86014873D01*
X25259723Y-86059805D01*
X25151496Y-86472107D01*
X23714992Y-86472107D01*
X23745793Y-86426011D01*
X23807900Y-86113780D01*
X23807900Y-85179777D01*
X25025976Y-85179777D01*
X25134736Y-85442995D01*
X25335946Y-85644556D01*
X25598974Y-85753775D01*
X25727294Y-85753887D01*
X26242000Y-86268592D01*
X26765127Y-85745466D01*
X26720195Y-85555723D01*
X26337360Y-85455231D01*
X26348556Y-85444054D01*
X26457775Y-85181026D01*
X26457776Y-85179777D01*
X26525976Y-85179777D01*
X26634736Y-85442995D01*
X26835946Y-85644556D01*
X27098974Y-85753775D01*
X27227294Y-85753887D01*
X27742000Y-86268592D01*
X28265127Y-85745466D01*
X28220195Y-85555723D01*
X27837360Y-85455231D01*
X27848556Y-85444054D01*
X27957775Y-85181026D01*
X27957776Y-85179777D01*
X28025976Y-85179777D01*
X28134736Y-85442995D01*
X28335946Y-85644556D01*
X28598974Y-85753775D01*
X28727294Y-85753887D01*
X29242000Y-86268592D01*
X29765127Y-85745466D01*
X29720195Y-85555723D01*
X29337360Y-85455231D01*
X29348556Y-85444054D01*
X29457775Y-85181026D01*
X29457776Y-85179777D01*
X29525976Y-85179777D01*
X29634736Y-85442995D01*
X29835946Y-85644556D01*
X30098974Y-85753775D01*
X30227294Y-85753887D01*
X30742000Y-86268592D01*
X31265127Y-85745466D01*
X31220195Y-85555723D01*
X30837360Y-85455231D01*
X30848556Y-85444054D01*
X30957775Y-85181026D01*
X30957776Y-85179777D01*
X31025976Y-85179777D01*
X31134736Y-85442995D01*
X31335946Y-85644556D01*
X31598974Y-85753775D01*
X31883777Y-85754024D01*
X32146995Y-85645264D01*
X32273113Y-85519366D01*
X32449466Y-85561127D01*
X32972592Y-85038000D01*
X32449466Y-84514873D01*
X32273043Y-84556651D01*
X32148054Y-84431444D01*
X31885026Y-84322225D01*
X31600223Y-84321976D01*
X31337005Y-84430736D01*
X31135444Y-84631946D01*
X31026225Y-84894974D01*
X31025976Y-85179777D01*
X30957776Y-85179777D01*
X30958024Y-84896223D01*
X30849264Y-84633005D01*
X30648054Y-84431444D01*
X30385026Y-84322225D01*
X30100223Y-84321976D01*
X29837005Y-84430736D01*
X29635444Y-84631946D01*
X29526225Y-84894974D01*
X29525976Y-85179777D01*
X29457776Y-85179777D01*
X29458024Y-84896223D01*
X29349264Y-84633005D01*
X29148054Y-84431444D01*
X28885026Y-84322225D01*
X28600223Y-84321976D01*
X28337005Y-84430736D01*
X28135444Y-84631946D01*
X28026225Y-84894974D01*
X28025976Y-85179777D01*
X27957776Y-85179777D01*
X27958024Y-84896223D01*
X27849264Y-84633005D01*
X27648054Y-84431444D01*
X27385026Y-84322225D01*
X27100223Y-84321976D01*
X26837005Y-84430736D01*
X26635444Y-84631946D01*
X26526225Y-84894974D01*
X26525976Y-85179777D01*
X26457776Y-85179777D01*
X26458024Y-84896223D01*
X26349264Y-84633005D01*
X26148054Y-84431444D01*
X25885026Y-84322225D01*
X25600223Y-84321976D01*
X25337005Y-84430736D01*
X25135444Y-84631946D01*
X25026225Y-84894974D01*
X25025976Y-85179777D01*
X23807900Y-85179777D01*
X23807900Y-85062220D01*
X23745793Y-84749989D01*
X23568928Y-84485292D01*
X23304231Y-84308427D01*
X22992000Y-84246320D01*
X22679769Y-84308427D01*
X22415072Y-84485292D01*
X22238207Y-84749989D01*
X22176100Y-85062220D01*
X20839900Y-85062220D01*
X20839900Y-83679777D01*
X26025976Y-83679777D01*
X26134736Y-83942995D01*
X26335946Y-84144556D01*
X26598974Y-84253775D01*
X26883777Y-84254024D01*
X27146995Y-84145264D01*
X27348556Y-83944054D01*
X27457775Y-83681026D01*
X27457776Y-83679777D01*
X27525976Y-83679777D01*
X27634736Y-83942995D01*
X27835946Y-84144556D01*
X28098974Y-84253775D01*
X28383777Y-84254024D01*
X28646995Y-84145264D01*
X28848556Y-83944054D01*
X28957775Y-83681026D01*
X28957776Y-83679777D01*
X29025976Y-83679777D01*
X29134736Y-83942995D01*
X29335946Y-84144556D01*
X29598974Y-84253775D01*
X29883777Y-84254024D01*
X30146995Y-84145264D01*
X30348556Y-83944054D01*
X30457775Y-83681026D01*
X30457776Y-83679777D01*
X30525976Y-83679777D01*
X30634736Y-83942995D01*
X30835946Y-84144556D01*
X31098974Y-84253775D01*
X31383777Y-84254024D01*
X31646995Y-84145264D01*
X31848556Y-83944054D01*
X31957775Y-83681026D01*
X31958024Y-83396223D01*
X31849264Y-83133005D01*
X31648054Y-82931444D01*
X31385026Y-82822225D01*
X31100223Y-82821976D01*
X30837005Y-82930736D01*
X30635444Y-83131946D01*
X30526225Y-83394974D01*
X30525976Y-83679777D01*
X30457776Y-83679777D01*
X30458024Y-83396223D01*
X30349264Y-83133005D01*
X30148054Y-82931444D01*
X29885026Y-82822225D01*
X29600223Y-82821976D01*
X29337005Y-82930736D01*
X29135444Y-83131946D01*
X29026225Y-83394974D01*
X29025976Y-83679777D01*
X28957776Y-83679777D01*
X28958024Y-83396223D01*
X28849264Y-83133005D01*
X28648054Y-82931444D01*
X28385026Y-82822225D01*
X28100223Y-82821976D01*
X27837005Y-82930736D01*
X27635444Y-83131946D01*
X27526225Y-83394974D01*
X27525976Y-83679777D01*
X27457776Y-83679777D01*
X27458024Y-83396223D01*
X27349264Y-83133005D01*
X27148054Y-82931444D01*
X26885026Y-82822225D01*
X26600223Y-82821976D01*
X26337005Y-82930736D01*
X26135444Y-83131946D01*
X26026225Y-83394974D01*
X26025976Y-83679777D01*
X20839900Y-83679777D01*
X20839900Y-74803455D01*
X34510560Y-74803455D01*
X34510560Y-75183758D01*
X34597566Y-75393808D01*
X34758331Y-75554574D01*
X34968381Y-75641580D01*
X35198685Y-75641580D01*
X35341560Y-75498705D01*
X35341560Y-74660580D01*
X35722560Y-74660580D01*
X35722560Y-75498705D01*
X35865435Y-75641580D01*
X36095739Y-75641580D01*
X36305789Y-75554574D01*
X36466554Y-75393808D01*
X36553560Y-75183758D01*
X36553560Y-74803455D01*
X36410685Y-74660580D01*
X35722560Y-74660580D01*
X35341560Y-74660580D01*
X34653435Y-74660580D01*
X34510560Y-74803455D01*
X20839900Y-74803455D01*
X20839900Y-73756402D01*
X34510560Y-73756402D01*
X34510560Y-74136705D01*
X34653435Y-74279580D01*
X35341560Y-74279580D01*
X35341560Y-73441455D01*
X35722560Y-73441455D01*
X35722560Y-74279580D01*
X36410685Y-74279580D01*
X36553560Y-74136705D01*
X36553560Y-73756402D01*
X36466554Y-73546352D01*
X36305789Y-73385586D01*
X36095739Y-73298580D01*
X35865435Y-73298580D01*
X35722560Y-73441455D01*
X35341560Y-73441455D01*
X35198685Y-73298580D01*
X34968381Y-73298580D01*
X34758331Y-73385586D01*
X34597566Y-73546352D01*
X34510560Y-73756402D01*
X20839900Y-73756402D01*
X20839900Y-71403669D01*
X43831818Y-71403669D01*
X44093648Y-71898637D01*
X44524963Y-72255730D01*
X44796253Y-72368087D01*
X45016420Y-72271106D01*
X45016420Y-71183500D01*
X45397420Y-71183500D01*
X45397420Y-72271106D01*
X45617587Y-72368087D01*
X45888877Y-72255730D01*
X46320192Y-71898637D01*
X46476920Y-71602356D01*
X46633648Y-71898637D01*
X47064963Y-72255730D01*
X47336253Y-72368087D01*
X47556420Y-72271106D01*
X47556420Y-71183500D01*
X45397420Y-71183500D01*
X45016420Y-71183500D01*
X43927380Y-71183500D01*
X43831818Y-71403669D01*
X20839900Y-71403669D01*
X20839900Y-70582331D01*
X43831818Y-70582331D01*
X43927380Y-70802500D01*
X45016420Y-70802500D01*
X45016420Y-69714894D01*
X45397420Y-69714894D01*
X45397420Y-70802500D01*
X47556420Y-70802500D01*
X47556420Y-69714894D01*
X47336253Y-69617913D01*
X47064963Y-69730270D01*
X46633648Y-70087363D01*
X46476920Y-70383644D01*
X46320192Y-70087363D01*
X45888877Y-69730270D01*
X45617587Y-69617913D01*
X45397420Y-69714894D01*
X45016420Y-69714894D01*
X44796253Y-69617913D01*
X44524963Y-69730270D01*
X44093648Y-70087363D01*
X43831818Y-70582331D01*
X20839900Y-70582331D01*
X20839900Y-64111311D01*
X34112200Y-64111311D01*
X34112200Y-64153609D01*
X34194372Y-64566716D01*
X34428378Y-64916931D01*
X34778593Y-65150937D01*
X35191700Y-65233109D01*
X35604807Y-65150937D01*
X35955022Y-64916931D01*
X36189028Y-64566716D01*
X36271200Y-64153609D01*
X36271200Y-64111311D01*
X36652200Y-64111311D01*
X36652200Y-64153609D01*
X36734372Y-64566716D01*
X36968378Y-64916931D01*
X37318593Y-65150937D01*
X37731700Y-65233109D01*
X38144807Y-65150937D01*
X38495022Y-64916931D01*
X38729028Y-64566716D01*
X38811200Y-64153609D01*
X38811200Y-64111311D01*
X39192200Y-64111311D01*
X39192200Y-64153609D01*
X39274372Y-64566716D01*
X39508378Y-64916931D01*
X39858593Y-65150937D01*
X40271700Y-65233109D01*
X40684807Y-65150937D01*
X41035022Y-64916931D01*
X41269028Y-64566716D01*
X41351200Y-64153609D01*
X41351200Y-64111311D01*
X41269028Y-63698204D01*
X41035022Y-63347989D01*
X40684807Y-63113983D01*
X40271700Y-63031811D01*
X39858593Y-63113983D01*
X39508378Y-63347989D01*
X39274372Y-63698204D01*
X39192200Y-64111311D01*
X38811200Y-64111311D01*
X38729028Y-63698204D01*
X38495022Y-63347989D01*
X38144807Y-63113983D01*
X37731700Y-63031811D01*
X37318593Y-63113983D01*
X36968378Y-63347989D01*
X36734372Y-63698204D01*
X36652200Y-64111311D01*
X36271200Y-64111311D01*
X36189028Y-63698204D01*
X35955022Y-63347989D01*
X35604807Y-63113983D01*
X35191700Y-63031811D01*
X34778593Y-63113983D01*
X34428378Y-63347989D01*
X34194372Y-63698204D01*
X34112200Y-64111311D01*
X20839900Y-64111311D01*
X20839900Y-60728860D01*
X34107971Y-60728860D01*
X34107971Y-62456060D01*
X34123025Y-62536068D01*
X34170310Y-62609550D01*
X34242457Y-62658846D01*
X34328100Y-62676189D01*
X36055300Y-62676189D01*
X36135308Y-62661135D01*
X36208790Y-62613850D01*
X36258086Y-62541703D01*
X36275429Y-62456060D01*
X36275429Y-60728860D01*
X36260375Y-60648852D01*
X36213090Y-60575370D01*
X36140943Y-60526074D01*
X36055300Y-60508731D01*
X34328100Y-60508731D01*
X34248092Y-60523785D01*
X34174610Y-60571070D01*
X34125314Y-60643217D01*
X34107971Y-60728860D01*
X20839900Y-60728860D01*
X20839900Y-56918860D01*
X34107971Y-56918860D01*
X34107971Y-58646060D01*
X34123025Y-58726068D01*
X34170310Y-58799550D01*
X34242457Y-58848846D01*
X34328100Y-58866189D01*
X36055300Y-58866189D01*
X36135308Y-58851135D01*
X36208790Y-58803850D01*
X36258086Y-58731703D01*
X36275429Y-58646060D01*
X36275429Y-57761311D01*
X36652200Y-57761311D01*
X36652200Y-57803609D01*
X36734372Y-58216716D01*
X36968378Y-58566931D01*
X37318593Y-58800937D01*
X37452300Y-58827533D01*
X37452300Y-60547387D01*
X37318593Y-60573983D01*
X36968378Y-60807989D01*
X36734372Y-61158204D01*
X36652200Y-61571311D01*
X36652200Y-61613609D01*
X36734372Y-62026716D01*
X36968378Y-62376931D01*
X37318593Y-62610937D01*
X37731700Y-62693109D01*
X38144807Y-62610937D01*
X38495022Y-62376931D01*
X38729028Y-62026716D01*
X38811200Y-61613609D01*
X38811200Y-61571311D01*
X38729028Y-61158204D01*
X38495022Y-60807989D01*
X38144807Y-60573983D01*
X38011100Y-60547387D01*
X38011100Y-58827533D01*
X38144807Y-58800937D01*
X38495022Y-58566931D01*
X38729028Y-58216716D01*
X38811200Y-57803609D01*
X38811200Y-57761311D01*
X39192200Y-57761311D01*
X39192200Y-57803609D01*
X39274372Y-58216716D01*
X39508378Y-58566931D01*
X39858593Y-58800937D01*
X39992300Y-58827533D01*
X39992300Y-60547387D01*
X39858593Y-60573983D01*
X39508378Y-60807989D01*
X39274372Y-61158204D01*
X39192200Y-61571311D01*
X39192200Y-61613609D01*
X39274372Y-62026716D01*
X39508378Y-62376931D01*
X39858593Y-62610937D01*
X40271700Y-62693109D01*
X40684807Y-62610937D01*
X41035022Y-62376931D01*
X41269028Y-62026716D01*
X41351200Y-61613609D01*
X41351200Y-61571311D01*
X41269028Y-61158204D01*
X41035022Y-60807989D01*
X40684807Y-60573983D01*
X40551100Y-60547387D01*
X40551100Y-58827533D01*
X40684807Y-58800937D01*
X41035022Y-58566931D01*
X41269028Y-58216716D01*
X41351200Y-57803609D01*
X41351200Y-57761311D01*
X41732200Y-57761311D01*
X41732200Y-57803609D01*
X41814372Y-58216716D01*
X42048378Y-58566931D01*
X42398593Y-58800937D01*
X42811700Y-58883109D01*
X43224807Y-58800937D01*
X43575022Y-58566931D01*
X43809028Y-58216716D01*
X43813719Y-58193129D01*
X43976598Y-58193129D01*
X44238428Y-58688097D01*
X44669743Y-59045190D01*
X44941033Y-59157547D01*
X45161200Y-59060566D01*
X45161200Y-57972960D01*
X45542200Y-57972960D01*
X45542200Y-59060566D01*
X45762367Y-59157547D01*
X46033657Y-59045190D01*
X46464972Y-58688097D01*
X46726802Y-58193129D01*
X46631240Y-57972960D01*
X45542200Y-57972960D01*
X45161200Y-57972960D01*
X44072160Y-57972960D01*
X43976598Y-58193129D01*
X43813719Y-58193129D01*
X43891200Y-57803609D01*
X43891200Y-57761311D01*
X43809028Y-57348204D01*
X43575022Y-56997989D01*
X43224807Y-56763983D01*
X42811700Y-56681811D01*
X42398593Y-56763983D01*
X42048378Y-56997989D01*
X41814372Y-57348204D01*
X41732200Y-57761311D01*
X41351200Y-57761311D01*
X41269028Y-57348204D01*
X41035022Y-56997989D01*
X40684807Y-56763983D01*
X40271700Y-56681811D01*
X39858593Y-56763983D01*
X39508378Y-56997989D01*
X39274372Y-57348204D01*
X39192200Y-57761311D01*
X38811200Y-57761311D01*
X38729028Y-57348204D01*
X38495022Y-56997989D01*
X38144807Y-56763983D01*
X37731700Y-56681811D01*
X37318593Y-56763983D01*
X36968378Y-56997989D01*
X36734372Y-57348204D01*
X36652200Y-57761311D01*
X36275429Y-57761311D01*
X36275429Y-56918860D01*
X36260375Y-56838852D01*
X36213090Y-56765370D01*
X36140943Y-56716074D01*
X36055300Y-56698731D01*
X34328100Y-56698731D01*
X34248092Y-56713785D01*
X34174610Y-56761070D01*
X34125314Y-56833217D01*
X34107971Y-56918860D01*
X20839900Y-56918860D01*
X20839900Y-55221311D01*
X34112200Y-55221311D01*
X34112200Y-55263609D01*
X34194372Y-55676716D01*
X34428378Y-56026931D01*
X34778593Y-56260937D01*
X35191700Y-56343109D01*
X35604807Y-56260937D01*
X35955022Y-56026931D01*
X36189028Y-55676716D01*
X36271200Y-55263609D01*
X36271200Y-55221311D01*
X36652200Y-55221311D01*
X36652200Y-55263609D01*
X36734372Y-55676716D01*
X36968378Y-56026931D01*
X37318593Y-56260937D01*
X37731700Y-56343109D01*
X38144807Y-56260937D01*
X38495022Y-56026931D01*
X38729028Y-55676716D01*
X38811200Y-55263609D01*
X38811200Y-55221311D01*
X39192200Y-55221311D01*
X39192200Y-55263609D01*
X39274372Y-55676716D01*
X39508378Y-56026931D01*
X39858593Y-56260937D01*
X40271700Y-56343109D01*
X40684807Y-56260937D01*
X41035022Y-56026931D01*
X41269028Y-55676716D01*
X41351200Y-55263609D01*
X41351200Y-55221311D01*
X41732200Y-55221311D01*
X41732200Y-55263609D01*
X41814372Y-55676716D01*
X42048378Y-56026931D01*
X42398593Y-56260937D01*
X42811700Y-56343109D01*
X43224807Y-56260937D01*
X43575022Y-56026931D01*
X43809028Y-55676716D01*
X43813719Y-55653129D01*
X43976598Y-55653129D01*
X44238428Y-56148097D01*
X44669743Y-56505190D01*
X44687297Y-56512460D01*
X44669743Y-56519730D01*
X44238428Y-56876823D01*
X43976598Y-57371791D01*
X44072160Y-57591960D01*
X45161200Y-57591960D01*
X45161200Y-55432960D01*
X45542200Y-55432960D01*
X45542200Y-57591960D01*
X46631240Y-57591960D01*
X46726802Y-57371791D01*
X46464972Y-56876823D01*
X46033657Y-56519730D01*
X46016103Y-56512460D01*
X46033657Y-56505190D01*
X46464972Y-56148097D01*
X46726802Y-55653129D01*
X46631240Y-55432960D01*
X45542200Y-55432960D01*
X45161200Y-55432960D01*
X44072160Y-55432960D01*
X43976598Y-55653129D01*
X43813719Y-55653129D01*
X43891200Y-55263609D01*
X43891200Y-55221311D01*
X43813720Y-54831791D01*
X43976598Y-54831791D01*
X44072160Y-55051960D01*
X45161200Y-55051960D01*
X45161200Y-53964354D01*
X45542200Y-53964354D01*
X45542200Y-55051960D01*
X46631240Y-55051960D01*
X46726802Y-54831791D01*
X46464972Y-54336823D01*
X46033657Y-53979730D01*
X45762367Y-53867373D01*
X45542200Y-53964354D01*
X45161200Y-53964354D01*
X44941033Y-53867373D01*
X44669743Y-53979730D01*
X44238428Y-54336823D01*
X43976598Y-54831791D01*
X43813720Y-54831791D01*
X43809028Y-54808204D01*
X43575022Y-54457989D01*
X43224807Y-54223983D01*
X42811700Y-54141811D01*
X42398593Y-54223983D01*
X42048378Y-54457989D01*
X41814372Y-54808204D01*
X41732200Y-55221311D01*
X41351200Y-55221311D01*
X41269028Y-54808204D01*
X41035022Y-54457989D01*
X40684807Y-54223983D01*
X40271700Y-54141811D01*
X39858593Y-54223983D01*
X39508378Y-54457989D01*
X39274372Y-54808204D01*
X39192200Y-55221311D01*
X38811200Y-55221311D01*
X38729028Y-54808204D01*
X38495022Y-54457989D01*
X38144807Y-54223983D01*
X37731700Y-54141811D01*
X37318593Y-54223983D01*
X36968378Y-54457989D01*
X36734372Y-54808204D01*
X36652200Y-55221311D01*
X36271200Y-55221311D01*
X36189028Y-54808204D01*
X35955022Y-54457989D01*
X35604807Y-54223983D01*
X35191700Y-54141811D01*
X34778593Y-54223983D01*
X34428378Y-54457989D01*
X34194372Y-54808204D01*
X34112200Y-55221311D01*
X20839900Y-55221311D01*
X20839900Y-50568860D01*
X34107971Y-50568860D01*
X34107971Y-52296060D01*
X34123025Y-52376068D01*
X34170310Y-52449550D01*
X34242457Y-52498846D01*
X34328100Y-52516189D01*
X36055300Y-52516189D01*
X36135308Y-52501135D01*
X36208790Y-52453850D01*
X36258086Y-52381703D01*
X36275429Y-52296060D01*
X36275429Y-51411311D01*
X36652200Y-51411311D01*
X36652200Y-51453609D01*
X36734372Y-51866716D01*
X36968378Y-52216931D01*
X37318593Y-52450937D01*
X37731700Y-52533109D01*
X38144807Y-52450937D01*
X38495022Y-52216931D01*
X38729028Y-51866716D01*
X38811200Y-51453609D01*
X38811200Y-51411311D01*
X39192200Y-51411311D01*
X39192200Y-51453609D01*
X39274372Y-51866716D01*
X39508378Y-52216931D01*
X39858593Y-52450937D01*
X40271700Y-52533109D01*
X40684807Y-52450937D01*
X41035022Y-52216931D01*
X41269028Y-51866716D01*
X41351200Y-51453609D01*
X41351200Y-51411311D01*
X41269028Y-50998204D01*
X41035022Y-50647989D01*
X40684807Y-50413983D01*
X40271700Y-50331811D01*
X39858593Y-50413983D01*
X39508378Y-50647989D01*
X39274372Y-50998204D01*
X39192200Y-51411311D01*
X38811200Y-51411311D01*
X38729028Y-50998204D01*
X38495022Y-50647989D01*
X38144807Y-50413983D01*
X37731700Y-50331811D01*
X37318593Y-50413983D01*
X36968378Y-50647989D01*
X36734372Y-50998204D01*
X36652200Y-51411311D01*
X36275429Y-51411311D01*
X36275429Y-50568860D01*
X36260375Y-50488852D01*
X36213090Y-50415370D01*
X36140943Y-50366074D01*
X36055300Y-50348731D01*
X34328100Y-50348731D01*
X34248092Y-50363785D01*
X34174610Y-50411070D01*
X34125314Y-50483217D01*
X34107971Y-50568860D01*
X20839900Y-50568860D01*
X20839900Y-48871311D01*
X34112200Y-48871311D01*
X34112200Y-48913609D01*
X34194372Y-49326716D01*
X34428378Y-49676931D01*
X34778593Y-49910937D01*
X35191700Y-49993109D01*
X35604807Y-49910937D01*
X35955022Y-49676931D01*
X36189028Y-49326716D01*
X36271200Y-48913609D01*
X36271200Y-48871311D01*
X36652200Y-48871311D01*
X36652200Y-48913609D01*
X36734372Y-49326716D01*
X36968378Y-49676931D01*
X37318593Y-49910937D01*
X37731700Y-49993109D01*
X38144807Y-49910937D01*
X38495022Y-49676931D01*
X38729028Y-49326716D01*
X38811200Y-48913609D01*
X38811200Y-48871311D01*
X39192200Y-48871311D01*
X39192200Y-48913609D01*
X39274372Y-49326716D01*
X39508378Y-49676931D01*
X39858593Y-49910937D01*
X40271700Y-49993109D01*
X40684807Y-49910937D01*
X41035022Y-49676931D01*
X41269028Y-49326716D01*
X41351200Y-48913609D01*
X41351200Y-48871311D01*
X41269028Y-48458204D01*
X41035022Y-48107989D01*
X40684807Y-47873983D01*
X40271700Y-47791811D01*
X39858593Y-47873983D01*
X39508378Y-48107989D01*
X39274372Y-48458204D01*
X39192200Y-48871311D01*
X38811200Y-48871311D01*
X38729028Y-48458204D01*
X38495022Y-48107989D01*
X38144807Y-47873983D01*
X37731700Y-47791811D01*
X37318593Y-47873983D01*
X36968378Y-48107989D01*
X36734372Y-48458204D01*
X36652200Y-48871311D01*
X36271200Y-48871311D01*
X36189028Y-48458204D01*
X35955022Y-48107989D01*
X35604807Y-47873983D01*
X35191700Y-47791811D01*
X34778593Y-47873983D01*
X34428378Y-48107989D01*
X34194372Y-48458204D01*
X34112200Y-48871311D01*
X20839900Y-48871311D01*
X20839900Y-33951777D01*
X26025976Y-33951777D01*
X26134736Y-34214995D01*
X26335946Y-34416556D01*
X26598974Y-34525775D01*
X26883777Y-34526024D01*
X27146995Y-34417264D01*
X27348556Y-34216054D01*
X27457775Y-33953026D01*
X27457776Y-33951777D01*
X27525976Y-33951777D01*
X27634736Y-34214995D01*
X27835946Y-34416556D01*
X28098974Y-34525775D01*
X28383777Y-34526024D01*
X28646995Y-34417264D01*
X28848556Y-34216054D01*
X28957775Y-33953026D01*
X28957776Y-33951777D01*
X29025976Y-33951777D01*
X29134736Y-34214995D01*
X29335946Y-34416556D01*
X29598974Y-34525775D01*
X29883777Y-34526024D01*
X30146995Y-34417264D01*
X30348556Y-34216054D01*
X30457775Y-33953026D01*
X30457776Y-33951777D01*
X30525976Y-33951777D01*
X30634736Y-34214995D01*
X30835946Y-34416556D01*
X31098974Y-34525775D01*
X31383777Y-34526024D01*
X31646995Y-34417264D01*
X31848556Y-34216054D01*
X31957775Y-33953026D01*
X31958024Y-33668223D01*
X31849264Y-33405005D01*
X31648054Y-33203444D01*
X31385026Y-33094225D01*
X31100223Y-33093976D01*
X30837005Y-33202736D01*
X30635444Y-33403946D01*
X30526225Y-33666974D01*
X30525976Y-33951777D01*
X30457776Y-33951777D01*
X30458024Y-33668223D01*
X30349264Y-33405005D01*
X30148054Y-33203444D01*
X29885026Y-33094225D01*
X29600223Y-33093976D01*
X29337005Y-33202736D01*
X29135444Y-33403946D01*
X29026225Y-33666974D01*
X29025976Y-33951777D01*
X28957776Y-33951777D01*
X28958024Y-33668223D01*
X28849264Y-33405005D01*
X28648054Y-33203444D01*
X28385026Y-33094225D01*
X28100223Y-33093976D01*
X27837005Y-33202736D01*
X27635444Y-33403946D01*
X27526225Y-33666974D01*
X27525976Y-33951777D01*
X27457776Y-33951777D01*
X27458024Y-33668223D01*
X27349264Y-33405005D01*
X27148054Y-33203444D01*
X26885026Y-33094225D01*
X26600223Y-33093976D01*
X26337005Y-33202736D01*
X26135444Y-33403946D01*
X26026225Y-33666974D01*
X26025976Y-33951777D01*
X20839900Y-33951777D01*
X20839900Y-31234220D01*
X22176100Y-31234220D01*
X22176100Y-32285780D01*
X22238207Y-32598011D01*
X22415072Y-32862708D01*
X22679769Y-33039573D01*
X22992000Y-33101680D01*
X23304231Y-33039573D01*
X23568928Y-32862708D01*
X23745793Y-32598011D01*
X23774880Y-32451777D01*
X25025976Y-32451777D01*
X25134736Y-32714995D01*
X25335946Y-32916556D01*
X25598974Y-33025775D01*
X25883777Y-33026024D01*
X26146995Y-32917264D01*
X26348556Y-32716054D01*
X26457775Y-32453026D01*
X26457776Y-32451777D01*
X26525976Y-32451777D01*
X26634736Y-32714995D01*
X26835946Y-32916556D01*
X27098974Y-33025775D01*
X27383777Y-33026024D01*
X27646995Y-32917264D01*
X27848556Y-32716054D01*
X27957775Y-32453026D01*
X27957776Y-32451777D01*
X28025976Y-32451777D01*
X28134736Y-32714995D01*
X28335946Y-32916556D01*
X28598974Y-33025775D01*
X28883777Y-33026024D01*
X29146995Y-32917264D01*
X29348556Y-32716054D01*
X29457775Y-32453026D01*
X29457776Y-32451777D01*
X29525976Y-32451777D01*
X29634736Y-32714995D01*
X29835946Y-32916556D01*
X30098974Y-33025775D01*
X30383777Y-33026024D01*
X30646995Y-32917264D01*
X30848556Y-32716054D01*
X30957775Y-32453026D01*
X30958024Y-32168223D01*
X30849264Y-31905005D01*
X30824500Y-31880197D01*
X31098441Y-31842710D01*
X31220195Y-31792277D01*
X31265127Y-31602534D01*
X30742000Y-31079408D01*
X30227320Y-31594087D01*
X30100223Y-31593976D01*
X29837005Y-31702736D01*
X29635444Y-31903946D01*
X29526225Y-32166974D01*
X29525976Y-32451777D01*
X29457776Y-32451777D01*
X29458024Y-32168223D01*
X29349264Y-31905005D01*
X29324500Y-31880197D01*
X29598441Y-31842710D01*
X29720195Y-31792277D01*
X29765127Y-31602534D01*
X29242000Y-31079408D01*
X28727320Y-31594087D01*
X28600223Y-31593976D01*
X28337005Y-31702736D01*
X28135444Y-31903946D01*
X28026225Y-32166974D01*
X28025976Y-32451777D01*
X27957776Y-32451777D01*
X27958024Y-32168223D01*
X27849264Y-31905005D01*
X27824500Y-31880197D01*
X28098441Y-31842710D01*
X28220195Y-31792277D01*
X28265127Y-31602534D01*
X27742000Y-31079408D01*
X27227320Y-31594087D01*
X27100223Y-31593976D01*
X26837005Y-31702736D01*
X26635444Y-31903946D01*
X26526225Y-32166974D01*
X26525976Y-32451777D01*
X26457776Y-32451777D01*
X26458024Y-32168223D01*
X26349264Y-31905005D01*
X26324500Y-31880197D01*
X26598441Y-31842710D01*
X26720195Y-31792277D01*
X26765127Y-31602534D01*
X26242000Y-31079408D01*
X25727320Y-31594087D01*
X25600223Y-31593976D01*
X25337005Y-31702736D01*
X25135444Y-31903946D01*
X25026225Y-32166974D01*
X25025976Y-32451777D01*
X23774880Y-32451777D01*
X23807900Y-32285780D01*
X23807900Y-31234220D01*
X23745793Y-30921989D01*
X23626936Y-30744107D01*
X25151496Y-30744107D01*
X25209290Y-31166441D01*
X25259723Y-31288195D01*
X25449466Y-31333127D01*
X25972592Y-30810000D01*
X26511408Y-30810000D01*
X26684152Y-30982745D01*
X26709290Y-31166441D01*
X26759723Y-31288195D01*
X26949466Y-31333127D01*
X26992000Y-31290593D01*
X27034534Y-31333127D01*
X27224277Y-31288195D01*
X27306096Y-30976496D01*
X27472592Y-30810000D01*
X28011408Y-30810000D01*
X28184152Y-30982745D01*
X28209290Y-31166441D01*
X28259723Y-31288195D01*
X28449466Y-31333127D01*
X28492000Y-31290593D01*
X28534534Y-31333127D01*
X28724277Y-31288195D01*
X28806096Y-30976496D01*
X28972592Y-30810000D01*
X29511408Y-30810000D01*
X29684152Y-30982745D01*
X29709290Y-31166441D01*
X29759723Y-31288195D01*
X29949466Y-31333127D01*
X29992000Y-31290593D01*
X30034534Y-31333127D01*
X30224277Y-31288195D01*
X30306096Y-30976496D01*
X30472592Y-30810000D01*
X31011408Y-30810000D01*
X31534534Y-31333127D01*
X31710957Y-31291349D01*
X31835946Y-31416556D01*
X32098974Y-31525775D01*
X32383777Y-31526024D01*
X32510522Y-31473654D01*
X32819433Y-31782565D01*
X32910077Y-31843131D01*
X33016999Y-31864399D01*
X33065807Y-31864399D01*
X33242000Y-32040592D01*
X33256142Y-32026450D01*
X33525550Y-32295858D01*
X33511408Y-32310000D01*
X33525550Y-32324142D01*
X33256142Y-32593550D01*
X33242000Y-32579408D01*
X33227858Y-32593550D01*
X32958450Y-32324142D01*
X32972592Y-32310000D01*
X32449466Y-31786873D01*
X32273043Y-31828651D01*
X32148054Y-31703444D01*
X31885026Y-31594225D01*
X31600223Y-31593976D01*
X31337005Y-31702736D01*
X31135444Y-31903946D01*
X31026225Y-32166974D01*
X31025976Y-32451777D01*
X31134736Y-32714995D01*
X31335946Y-32916556D01*
X31598974Y-33025775D01*
X31883777Y-33026024D01*
X32010522Y-32973654D01*
X32269433Y-33232564D01*
X32269435Y-33232567D01*
X32292011Y-33247652D01*
X32135444Y-33403946D01*
X32026225Y-33666974D01*
X32025976Y-33951777D01*
X32134736Y-34214995D01*
X32335946Y-34416556D01*
X32598974Y-34525775D01*
X32883777Y-34526024D01*
X33146995Y-34417264D01*
X33348556Y-34216054D01*
X33457775Y-33953026D01*
X33458024Y-33668223D01*
X33349264Y-33405005D01*
X33324500Y-33380197D01*
X33598441Y-33342710D01*
X33666784Y-33314401D01*
X33725145Y-33314401D01*
X33635444Y-33403946D01*
X33526225Y-33666974D01*
X33525976Y-33951777D01*
X33634736Y-34214995D01*
X33835946Y-34416556D01*
X34098974Y-34525775D01*
X34383777Y-34526024D01*
X34646995Y-34417264D01*
X34848556Y-34216054D01*
X34957775Y-33953026D01*
X34958024Y-33668223D01*
X34849264Y-33405005D01*
X34824500Y-33380197D01*
X35098441Y-33342710D01*
X35104195Y-33340327D01*
X35236184Y-33472316D01*
X35229891Y-33487472D01*
X35229710Y-33694619D01*
X35308815Y-33886067D01*
X35455162Y-34032670D01*
X35646472Y-34112109D01*
X35853619Y-34112290D01*
X36045067Y-34033185D01*
X36191670Y-33886838D01*
X36271109Y-33695528D01*
X36271290Y-33488381D01*
X36192185Y-33296933D01*
X36045838Y-33150330D01*
X35854528Y-33070891D01*
X35647381Y-33070710D01*
X35631432Y-33077300D01*
X35574695Y-33020563D01*
X35648334Y-32946924D01*
X35534536Y-32833126D01*
X35724277Y-32788195D01*
X35832504Y-32375893D01*
X35774710Y-31953559D01*
X35737778Y-31864399D01*
X35977767Y-31864399D01*
X36181078Y-32067710D01*
X36118891Y-32217472D01*
X36118710Y-32424619D01*
X36197815Y-32616067D01*
X36344162Y-32762670D01*
X36535472Y-32842109D01*
X36742619Y-32842290D01*
X36934067Y-32763185D01*
X37080670Y-32616838D01*
X37160109Y-32425528D01*
X37160290Y-32218381D01*
X37081185Y-32026933D01*
X36934838Y-31880330D01*
X36743528Y-31800891D01*
X36704489Y-31800857D01*
X36291065Y-31387433D01*
X36200421Y-31326867D01*
X36093499Y-31305598D01*
X36093494Y-31305599D01*
X35758855Y-31305599D01*
X35830358Y-31234220D01*
X38676100Y-31234220D01*
X38676100Y-32285780D01*
X38738207Y-32598011D01*
X38915072Y-32862708D01*
X39179769Y-33039573D01*
X39492000Y-33101680D01*
X39804231Y-33039573D01*
X40068928Y-32862708D01*
X40245793Y-32598011D01*
X40307900Y-32285780D01*
X40307900Y-31234220D01*
X40245793Y-30921989D01*
X40068928Y-30657292D01*
X39804231Y-30480427D01*
X39492000Y-30418320D01*
X39179769Y-30480427D01*
X38915072Y-30657292D01*
X38738207Y-30921989D01*
X38676100Y-31234220D01*
X35830358Y-31234220D01*
X35848556Y-31216054D01*
X35957775Y-30953026D01*
X35957888Y-30823705D01*
X36106795Y-30674798D01*
X36106797Y-30674795D01*
X38262192Y-28519400D01*
X45298858Y-28519400D01*
X47371000Y-30591541D01*
X47371000Y-54295874D01*
X47128378Y-54457989D01*
X46894372Y-54808204D01*
X46812200Y-55221311D01*
X46812200Y-55263609D01*
X46894372Y-55676716D01*
X47128378Y-56026931D01*
X47371000Y-56189046D01*
X47371000Y-56835874D01*
X47128378Y-56997989D01*
X46894372Y-57348204D01*
X46812200Y-57761311D01*
X46812200Y-57803609D01*
X46894372Y-58216716D01*
X47128378Y-58566931D01*
X47226220Y-58632307D01*
X47226220Y-67506414D01*
X46983598Y-67668529D01*
X46804145Y-67937100D01*
X46290649Y-67937100D01*
X46290649Y-67589400D01*
X46275595Y-67509392D01*
X46228310Y-67435910D01*
X46156163Y-67386614D01*
X46070520Y-67369271D01*
X44343320Y-67369271D01*
X44263312Y-67384325D01*
X44189830Y-67431610D01*
X44140534Y-67503757D01*
X44123191Y-67589400D01*
X44123191Y-69316600D01*
X44138245Y-69396608D01*
X44185530Y-69470090D01*
X44257677Y-69519386D01*
X44343320Y-69536729D01*
X46070520Y-69536729D01*
X46150528Y-69521675D01*
X46224010Y-69474390D01*
X46273306Y-69402243D01*
X46290649Y-69316600D01*
X46290649Y-68968900D01*
X46804145Y-68968900D01*
X46983598Y-69237471D01*
X47333813Y-69471477D01*
X47746920Y-69553649D01*
X48056415Y-69492087D01*
X48199670Y-69635342D01*
X48157587Y-69617913D01*
X47937420Y-69714894D01*
X47937420Y-70802500D01*
X47957420Y-70802500D01*
X47957420Y-71183500D01*
X47937420Y-71183500D01*
X47937420Y-72271106D01*
X48157587Y-72368087D01*
X48428877Y-72255730D01*
X48860192Y-71898637D01*
X49014100Y-71607687D01*
X49014100Y-88158313D01*
X48860192Y-87867363D01*
X48428877Y-87510270D01*
X48157587Y-87397913D01*
X47937420Y-87494894D01*
X47937420Y-88582500D01*
X47957420Y-88582500D01*
X47957420Y-88963500D01*
X47937420Y-88963500D01*
X47937420Y-90051106D01*
X48157587Y-90148087D01*
X48199670Y-90130658D01*
X48056415Y-90273913D01*
X47746920Y-90212351D01*
X47333813Y-90294523D01*
X46983598Y-90528529D01*
X46804145Y-90797100D01*
X46149695Y-90797100D01*
X45970242Y-90528529D01*
X45620027Y-90294523D01*
X45206920Y-90212351D01*
X44793813Y-90294523D01*
X44443598Y-90528529D01*
X44209592Y-90878744D01*
X44127420Y-91291851D01*
X44127420Y-91334149D01*
X44209592Y-91747256D01*
X44443598Y-92097471D01*
X44793813Y-92331477D01*
X45206920Y-92413649D01*
X45620027Y-92331477D01*
X45970242Y-92097471D01*
X46149695Y-91828900D01*
X46501427Y-91828900D01*
X44612228Y-93718100D01*
X37332224Y-93718100D01*
X35757900Y-92143776D01*
X35757900Y-92097118D01*
X38676100Y-92097118D01*
X38676100Y-92638882D01*
X38738207Y-92951113D01*
X38915072Y-93215810D01*
X39179769Y-93392675D01*
X39492000Y-93454782D01*
X39804231Y-93392675D01*
X40068928Y-93215810D01*
X40245793Y-92951113D01*
X40307900Y-92638882D01*
X40307900Y-92097118D01*
X40245793Y-91784887D01*
X40068928Y-91520190D01*
X39804231Y-91343325D01*
X39492000Y-91281218D01*
X39179769Y-91343325D01*
X38915072Y-91520190D01*
X38738207Y-91784887D01*
X38676100Y-92097118D01*
X35757900Y-92097118D01*
X35757900Y-89183669D01*
X43831818Y-89183669D01*
X44093648Y-89678637D01*
X44524963Y-90035730D01*
X44796253Y-90148087D01*
X45016420Y-90051106D01*
X45016420Y-88963500D01*
X45397420Y-88963500D01*
X45397420Y-90051106D01*
X45617587Y-90148087D01*
X45888877Y-90035730D01*
X46320192Y-89678637D01*
X46476920Y-89382356D01*
X46633648Y-89678637D01*
X47064963Y-90035730D01*
X47336253Y-90148087D01*
X47556420Y-90051106D01*
X47556420Y-88963500D01*
X45397420Y-88963500D01*
X45016420Y-88963500D01*
X43927380Y-88963500D01*
X43831818Y-89183669D01*
X35757900Y-89183669D01*
X35757900Y-88362331D01*
X43831818Y-88362331D01*
X43927380Y-88582500D01*
X45016420Y-88582500D01*
X45016420Y-87494894D01*
X45397420Y-87494894D01*
X45397420Y-88582500D01*
X47556420Y-88582500D01*
X47556420Y-87494894D01*
X47336253Y-87397913D01*
X47064963Y-87510270D01*
X46633648Y-87867363D01*
X46476920Y-88163644D01*
X46320192Y-87867363D01*
X45888877Y-87510270D01*
X45617587Y-87397913D01*
X45397420Y-87494894D01*
X45016420Y-87494894D01*
X44796253Y-87397913D01*
X44524963Y-87510270D01*
X44093648Y-87867363D01*
X43831818Y-88362331D01*
X35757900Y-88362331D01*
X35757900Y-87034552D01*
X35848556Y-86944054D01*
X35957775Y-86681026D01*
X35957888Y-86551704D01*
X37447372Y-85062220D01*
X38676100Y-85062220D01*
X38676100Y-86113780D01*
X38738207Y-86426011D01*
X38915072Y-86690708D01*
X39179769Y-86867573D01*
X39492000Y-86929680D01*
X39804231Y-86867573D01*
X40068928Y-86690708D01*
X40245793Y-86426011D01*
X40288392Y-86211851D01*
X44127420Y-86211851D01*
X44127420Y-86254149D01*
X44209592Y-86667256D01*
X44443598Y-87017471D01*
X44793813Y-87251477D01*
X45206920Y-87333649D01*
X45620027Y-87251477D01*
X45970242Y-87017471D01*
X46204248Y-86667256D01*
X46286420Y-86254149D01*
X46286420Y-86211851D01*
X46667420Y-86211851D01*
X46667420Y-86254149D01*
X46749592Y-86667256D01*
X46983598Y-87017471D01*
X47333813Y-87251477D01*
X47746920Y-87333649D01*
X48160027Y-87251477D01*
X48510242Y-87017471D01*
X48744248Y-86667256D01*
X48826420Y-86254149D01*
X48826420Y-86211851D01*
X48744248Y-85798744D01*
X48510242Y-85448529D01*
X48160027Y-85214523D01*
X47746920Y-85132351D01*
X47333813Y-85214523D01*
X46983598Y-85448529D01*
X46749592Y-85798744D01*
X46667420Y-86211851D01*
X46286420Y-86211851D01*
X46204248Y-85798744D01*
X45970242Y-85448529D01*
X45620027Y-85214523D01*
X45206920Y-85132351D01*
X44793813Y-85214523D01*
X44443598Y-85448529D01*
X44209592Y-85798744D01*
X44127420Y-86211851D01*
X40288392Y-86211851D01*
X40307900Y-86113780D01*
X40307900Y-85062220D01*
X40245793Y-84749989D01*
X40068928Y-84485292D01*
X39804231Y-84308427D01*
X39492000Y-84246320D01*
X39179769Y-84308427D01*
X38915072Y-84485292D01*
X38738207Y-84749989D01*
X38676100Y-85062220D01*
X37447372Y-85062220D01*
X38543716Y-83965876D01*
X38655549Y-83798506D01*
X38656021Y-83796132D01*
X38680742Y-83671851D01*
X44127420Y-83671851D01*
X44127420Y-83714149D01*
X44209592Y-84127256D01*
X44443598Y-84477471D01*
X44793813Y-84711477D01*
X45206920Y-84793649D01*
X45620027Y-84711477D01*
X45970242Y-84477471D01*
X46204248Y-84127256D01*
X46286420Y-83714149D01*
X46286420Y-83671851D01*
X46667420Y-83671851D01*
X46667420Y-83714149D01*
X46749592Y-84127256D01*
X46983598Y-84477471D01*
X47333813Y-84711477D01*
X47746920Y-84793649D01*
X48160027Y-84711477D01*
X48510242Y-84477471D01*
X48744248Y-84127256D01*
X48826420Y-83714149D01*
X48826420Y-83671851D01*
X48744248Y-83258744D01*
X48510242Y-82908529D01*
X48160027Y-82674523D01*
X47746920Y-82592351D01*
X47333813Y-82674523D01*
X46983598Y-82908529D01*
X46749592Y-83258744D01*
X46667420Y-83671851D01*
X46286420Y-83671851D01*
X46204248Y-83258744D01*
X45970242Y-82908529D01*
X45620027Y-82674523D01*
X45206920Y-82592351D01*
X44793813Y-82674523D01*
X44443598Y-82908529D01*
X44209592Y-83258744D01*
X44127420Y-83671851D01*
X38680742Y-83671851D01*
X38694820Y-83601080D01*
X38694820Y-81696129D01*
X38778920Y-81696129D01*
X38858928Y-81681075D01*
X38932410Y-81633790D01*
X38981706Y-81561643D01*
X38985704Y-81541900D01*
X39165227Y-81541900D01*
X39261744Y-81638417D01*
X39279704Y-81665296D01*
X39447074Y-81777129D01*
X39644500Y-81816400D01*
X39710791Y-81816400D01*
X39710791Y-81900500D01*
X39725845Y-81980508D01*
X39773130Y-82053990D01*
X39845277Y-82103286D01*
X39930920Y-82120629D01*
X40830920Y-82120629D01*
X40910928Y-82105575D01*
X40984410Y-82058290D01*
X41033706Y-81986143D01*
X41051049Y-81900500D01*
X41051049Y-81814501D01*
X41238926Y-81777129D01*
X41406296Y-81665296D01*
X42073464Y-80998129D01*
X42614000Y-80998129D01*
X42694008Y-80983075D01*
X42767490Y-80935790D01*
X42816786Y-80863643D01*
X42834129Y-80778000D01*
X42834129Y-79578000D01*
X42819075Y-79497992D01*
X42771790Y-79424510D01*
X42706501Y-79379900D01*
X43038688Y-79379900D01*
X44276860Y-80618071D01*
X44209592Y-80718744D01*
X44127420Y-81131851D01*
X44127420Y-81174149D01*
X44209592Y-81587256D01*
X44443598Y-81937471D01*
X44793813Y-82171477D01*
X45206920Y-82253649D01*
X45620027Y-82171477D01*
X45970242Y-81937471D01*
X46204248Y-81587256D01*
X46286420Y-81174149D01*
X46286420Y-81131851D01*
X46204248Y-80718744D01*
X45970242Y-80368529D01*
X45620027Y-80134523D01*
X45206920Y-80052351D01*
X44793813Y-80134523D01*
X44667784Y-80218733D01*
X43351986Y-78902934D01*
X43261342Y-78842368D01*
X43154420Y-78821099D01*
X43154415Y-78821100D01*
X41051049Y-78821100D01*
X41051049Y-78500500D01*
X41035995Y-78420492D01*
X40988710Y-78347010D01*
X40916563Y-78297714D01*
X40830920Y-78280371D01*
X39930920Y-78280371D01*
X39850912Y-78295425D01*
X39777430Y-78342710D01*
X39728134Y-78414857D01*
X39710791Y-78500500D01*
X39710791Y-78714600D01*
X39426049Y-78714600D01*
X39426049Y-78369000D01*
X39410995Y-78288992D01*
X39363710Y-78215510D01*
X39291563Y-78166214D01*
X39205920Y-78148871D01*
X38617090Y-78148871D01*
X38653166Y-78124766D01*
X38983363Y-77794568D01*
X38983366Y-77794566D01*
X39043932Y-77703922D01*
X39065200Y-77597000D01*
X39065200Y-77543573D01*
X39065485Y-77545088D01*
X39112770Y-77618570D01*
X39184917Y-77667866D01*
X39270560Y-77685209D01*
X40770560Y-77685209D01*
X40850568Y-77670155D01*
X40924050Y-77622870D01*
X40973346Y-77550723D01*
X40990689Y-77465080D01*
X40990689Y-77119480D01*
X41060348Y-77119480D01*
X41493871Y-77553003D01*
X41493871Y-78578000D01*
X41508925Y-78658008D01*
X41556210Y-78731490D01*
X41628357Y-78780786D01*
X41714000Y-78798129D01*
X42614000Y-78798129D01*
X42694008Y-78783075D01*
X42767490Y-78735790D01*
X42816786Y-78663643D01*
X42834129Y-78578000D01*
X42834129Y-77553002D01*
X42891731Y-77495400D01*
X45858268Y-77495400D01*
X46202600Y-77839731D01*
X46202600Y-78176278D01*
X45970242Y-77828529D01*
X45620027Y-77594523D01*
X45206920Y-77512351D01*
X44793813Y-77594523D01*
X44443598Y-77828529D01*
X44209592Y-78178744D01*
X44127420Y-78591851D01*
X44127420Y-78634149D01*
X44209592Y-79047256D01*
X44443598Y-79397471D01*
X44793813Y-79631477D01*
X45206920Y-79713649D01*
X45620027Y-79631477D01*
X45970242Y-79397471D01*
X46202600Y-79049722D01*
X46202600Y-79888075D01*
X46202599Y-79888080D01*
X46223868Y-79995002D01*
X46284434Y-80085646D01*
X46816859Y-80618071D01*
X46749592Y-80718744D01*
X46667420Y-81131851D01*
X46667420Y-81174149D01*
X46749592Y-81587256D01*
X46983598Y-81937471D01*
X47333813Y-82171477D01*
X47746920Y-82253649D01*
X48160027Y-82171477D01*
X48510242Y-81937471D01*
X48744248Y-81587256D01*
X48826420Y-81174149D01*
X48826420Y-81131851D01*
X48744248Y-80718744D01*
X48510242Y-80368529D01*
X48160027Y-80134523D01*
X47746920Y-80052351D01*
X47333813Y-80134523D01*
X47207784Y-80218732D01*
X46761400Y-79772348D01*
X46761400Y-79064928D01*
X46983598Y-79397471D01*
X47333813Y-79631477D01*
X47746920Y-79713649D01*
X48160027Y-79631477D01*
X48510242Y-79397471D01*
X48744248Y-79047256D01*
X48826420Y-78634149D01*
X48826420Y-78591851D01*
X48744248Y-78178744D01*
X48510242Y-77828529D01*
X48160027Y-77594523D01*
X47746920Y-77512351D01*
X47333813Y-77594523D01*
X46983598Y-77828529D01*
X46761400Y-78161072D01*
X46761400Y-77724000D01*
X46740132Y-77617078D01*
X46679566Y-77526434D01*
X46679563Y-77526432D01*
X46171566Y-77018434D01*
X46080922Y-76957868D01*
X45974000Y-76936599D01*
X45973995Y-76936600D01*
X45851817Y-76936600D01*
X45970242Y-76857471D01*
X46204248Y-76507256D01*
X46286420Y-76094149D01*
X46286420Y-76051851D01*
X46667420Y-76051851D01*
X46667420Y-76094149D01*
X46749592Y-76507256D01*
X46983598Y-76857471D01*
X47333813Y-77091477D01*
X47746920Y-77173649D01*
X48160027Y-77091477D01*
X48510242Y-76857471D01*
X48744248Y-76507256D01*
X48826420Y-76094149D01*
X48826420Y-76051851D01*
X48744248Y-75638744D01*
X48510242Y-75288529D01*
X48160027Y-75054523D01*
X47746920Y-74972351D01*
X47333813Y-75054523D01*
X46983598Y-75288529D01*
X46749592Y-75638744D01*
X46667420Y-76051851D01*
X46286420Y-76051851D01*
X46204248Y-75638744D01*
X45970242Y-75288529D01*
X45620027Y-75054523D01*
X45206920Y-74972351D01*
X44793813Y-75054523D01*
X44443598Y-75288529D01*
X44209592Y-75638744D01*
X44127420Y-76051851D01*
X44127420Y-76094149D01*
X44209592Y-76507256D01*
X44443598Y-76857471D01*
X44562023Y-76936600D01*
X42776005Y-76936600D01*
X42776000Y-76936599D01*
X42686818Y-76954339D01*
X42669078Y-76957868D01*
X42578434Y-77018434D01*
X42578432Y-77018437D01*
X42438998Y-77157871D01*
X41889003Y-77157871D01*
X41373646Y-76642514D01*
X41283002Y-76581948D01*
X41176080Y-76560679D01*
X41176075Y-76560680D01*
X40990689Y-76560680D01*
X40990689Y-76215080D01*
X40975635Y-76135072D01*
X40928350Y-76061590D01*
X40856203Y-76012294D01*
X40770560Y-75994951D01*
X39503319Y-75994951D01*
X41685869Y-73812400D01*
X44178789Y-73812400D01*
X44209592Y-73967256D01*
X44443598Y-74317471D01*
X44793813Y-74551477D01*
X45206920Y-74633649D01*
X45620027Y-74551477D01*
X45970242Y-74317471D01*
X46204248Y-73967256D01*
X46286420Y-73554149D01*
X46286420Y-73511851D01*
X46667420Y-73511851D01*
X46667420Y-73554149D01*
X46749592Y-73967256D01*
X46983598Y-74317471D01*
X47333813Y-74551477D01*
X47746920Y-74633649D01*
X48160027Y-74551477D01*
X48510242Y-74317471D01*
X48744248Y-73967256D01*
X48826420Y-73554149D01*
X48826420Y-73511851D01*
X48744248Y-73098744D01*
X48510242Y-72748529D01*
X48160027Y-72514523D01*
X47746920Y-72432351D01*
X47333813Y-72514523D01*
X46983598Y-72748529D01*
X46749592Y-73098744D01*
X46667420Y-73511851D01*
X46286420Y-73511851D01*
X46204248Y-73098744D01*
X45970242Y-72748529D01*
X45620027Y-72514523D01*
X45206920Y-72432351D01*
X44793813Y-72514523D01*
X44443598Y-72748529D01*
X44209592Y-73098744D01*
X44178789Y-73253600D01*
X41570143Y-73253600D01*
X41570138Y-73253599D01*
X41480956Y-73271339D01*
X41463216Y-73274868D01*
X41372572Y-73335434D01*
X41372570Y-73335437D01*
X38588234Y-76119772D01*
X38527668Y-76210416D01*
X38506399Y-76317338D01*
X38506400Y-76317343D01*
X38506400Y-77481269D01*
X38482589Y-77505080D01*
X38490689Y-77465080D01*
X38490689Y-76215080D01*
X38475635Y-76135072D01*
X38428350Y-76061590D01*
X38356203Y-76012294D01*
X38270560Y-75994951D01*
X36770560Y-75994951D01*
X36690552Y-76010005D01*
X36617070Y-76057290D01*
X36567774Y-76129437D01*
X36550431Y-76215080D01*
X36550431Y-76390680D01*
X36202189Y-76390680D01*
X36202189Y-76070080D01*
X36187135Y-75990072D01*
X36139850Y-75916590D01*
X36067703Y-75867294D01*
X35982060Y-75849951D01*
X35082060Y-75849951D01*
X35002052Y-75865005D01*
X34928570Y-75912290D01*
X34879274Y-75984437D01*
X34861931Y-76070080D01*
X34861931Y-76390680D01*
X34088644Y-76390680D01*
X33919020Y-76221055D01*
X33847636Y-76173358D01*
X33827264Y-76124054D01*
X33680917Y-75977451D01*
X33489607Y-75898012D01*
X33282460Y-75897831D01*
X33091012Y-75976936D01*
X32944409Y-76123283D01*
X32864970Y-76314593D01*
X32864789Y-76521740D01*
X32943894Y-76713188D01*
X33090241Y-76859791D01*
X33281551Y-76939230D01*
X33488698Y-76939411D01*
X33680146Y-76860306D01*
X33724115Y-76816413D01*
X33775345Y-76867643D01*
X33775347Y-76867646D01*
X33865991Y-76928212D01*
X33883731Y-76931741D01*
X33972913Y-76949481D01*
X33972918Y-76949480D01*
X34861931Y-76949480D01*
X34861931Y-77270080D01*
X34876985Y-77350088D01*
X34924270Y-77423570D01*
X34996417Y-77472866D01*
X35082060Y-77490209D01*
X35982060Y-77490209D01*
X36062068Y-77475155D01*
X36135550Y-77427870D01*
X36184846Y-77355723D01*
X36202189Y-77270080D01*
X36202189Y-76949480D01*
X36550431Y-76949480D01*
X36550431Y-77465080D01*
X36565485Y-77545088D01*
X36612770Y-77618570D01*
X36684917Y-77667866D01*
X36770560Y-77685209D01*
X37359321Y-77685209D01*
X37292834Y-77729634D01*
X37292832Y-77729637D01*
X36937234Y-78085234D01*
X36876668Y-78175878D01*
X36867586Y-78221534D01*
X36863710Y-78215510D01*
X36791563Y-78166214D01*
X36705920Y-78148871D01*
X35205920Y-78148871D01*
X35125912Y-78163925D01*
X35052430Y-78211210D01*
X35003134Y-78283357D01*
X34985791Y-78369000D01*
X34985791Y-79619000D01*
X35000845Y-79699008D01*
X35048130Y-79772490D01*
X35120277Y-79821786D01*
X35205920Y-79839129D01*
X35699520Y-79839129D01*
X35699520Y-80355871D01*
X35378920Y-80355871D01*
X35298912Y-80370925D01*
X35225430Y-80418210D01*
X35176134Y-80490357D01*
X35158791Y-80576000D01*
X35158791Y-80765777D01*
X35148278Y-80767868D01*
X35057634Y-80828434D01*
X35057632Y-80828437D01*
X33269435Y-82616633D01*
X33208869Y-82707277D01*
X33187600Y-82814199D01*
X33187601Y-82814204D01*
X33187601Y-82971060D01*
X33148054Y-82931444D01*
X32885026Y-82822225D01*
X32600223Y-82821976D01*
X32337005Y-82930736D01*
X32135444Y-83131946D01*
X32026225Y-83394974D01*
X32025976Y-83679777D01*
X32134736Y-83942995D01*
X32335946Y-84144556D01*
X32598974Y-84253775D01*
X32727294Y-84253887D01*
X33242000Y-84768592D01*
X33446231Y-84564361D01*
X33687601Y-84805730D01*
X33687601Y-84834561D01*
X33677904Y-84871504D01*
X33511408Y-85038000D01*
X33525550Y-85052142D01*
X33256142Y-85321550D01*
X33242000Y-85307408D01*
X32718873Y-85830534D01*
X32763805Y-86020277D01*
X33146640Y-86120769D01*
X33135444Y-86131946D01*
X33026225Y-86394974D01*
X33025976Y-86679777D01*
X33134736Y-86942995D01*
X33335946Y-87144556D01*
X33598974Y-87253775D01*
X33883777Y-87254024D01*
X34146995Y-87145264D01*
X34348556Y-86944054D01*
X34457775Y-86681026D01*
X34458024Y-86396223D01*
X34349264Y-86133005D01*
X34148054Y-85931444D01*
X34126794Y-85922616D01*
X34218874Y-85830536D01*
X34263805Y-86020277D01*
X34646640Y-86120769D01*
X34635444Y-86131946D01*
X34526225Y-86394974D01*
X34525976Y-86679777D01*
X34634736Y-86942995D01*
X34726100Y-87034518D01*
X34726100Y-92357468D01*
X34762686Y-92541395D01*
X34765371Y-92554894D01*
X34877204Y-92722264D01*
X36753736Y-94598796D01*
X36921106Y-94710629D01*
X37118532Y-94749900D01*
X44825920Y-94749900D01*
X45023346Y-94710629D01*
X45190716Y-94598796D01*
X47248117Y-92541396D01*
X47248119Y-92541393D01*
X47437425Y-92352087D01*
X47746920Y-92413649D01*
X48160027Y-92331477D01*
X48510242Y-92097471D01*
X48744248Y-91747256D01*
X48826420Y-91334149D01*
X48826420Y-91291851D01*
X48771875Y-91017637D01*
X49894796Y-89894716D01*
X50006629Y-89727346D01*
X50045900Y-89529920D01*
X50045900Y-70236080D01*
X50006629Y-70038654D01*
X49894796Y-69871284D01*
X48771875Y-68748363D01*
X48826420Y-68474149D01*
X48826420Y-68431851D01*
X48744248Y-68018744D01*
X48510242Y-67668529D01*
X48267620Y-67506414D01*
X48267620Y-58808334D01*
X48304807Y-58800937D01*
X48655022Y-58566931D01*
X48889028Y-58216716D01*
X48971200Y-57803609D01*
X48971200Y-57761311D01*
X48889028Y-57348204D01*
X48655022Y-56997989D01*
X48412400Y-56835874D01*
X48412400Y-56189046D01*
X48655022Y-56026931D01*
X48889028Y-55676716D01*
X48971200Y-55263609D01*
X48971200Y-55221311D01*
X48889028Y-54808204D01*
X48655022Y-54457989D01*
X48412400Y-54295874D01*
X48412400Y-30375865D01*
X48412401Y-30375860D01*
X48372764Y-30176597D01*
X48317559Y-30093976D01*
X48259891Y-30007669D01*
X48259888Y-30007667D01*
X45887531Y-27635309D01*
X45718603Y-27522436D01*
X45519340Y-27482799D01*
X45495204Y-27487600D01*
X38048500Y-27487600D01*
X37851074Y-27526871D01*
X37683704Y-27638704D01*
X35377205Y-29945203D01*
X35377202Y-29945205D01*
X35228319Y-30094088D01*
X35100223Y-30093976D01*
X34837005Y-30202736D01*
X34635444Y-30403946D01*
X34526225Y-30666974D01*
X34525976Y-30951777D01*
X34634736Y-31214995D01*
X34659500Y-31239803D01*
X34385559Y-31277290D01*
X34317216Y-31305599D01*
X34258855Y-31305599D01*
X34348556Y-31216054D01*
X34457775Y-30953026D01*
X34458024Y-30668223D01*
X34349264Y-30405005D01*
X34148054Y-30203444D01*
X33885026Y-30094225D01*
X33600223Y-30093976D01*
X33337005Y-30202736D01*
X33135444Y-30403946D01*
X33026225Y-30666974D01*
X33025976Y-30951777D01*
X33134736Y-31214995D01*
X33159500Y-31239803D01*
X33078077Y-31250945D01*
X32905661Y-31078529D01*
X32957775Y-30953026D01*
X32958024Y-30668223D01*
X32849264Y-30405005D01*
X32648054Y-30203444D01*
X32385026Y-30094225D01*
X32100223Y-30093976D01*
X31837005Y-30202736D01*
X31710887Y-30328634D01*
X31534534Y-30286873D01*
X31011408Y-30810000D01*
X30472592Y-30810000D01*
X30299848Y-30637255D01*
X30274710Y-30453559D01*
X30224277Y-30331805D01*
X30034534Y-30286873D01*
X29992000Y-30329407D01*
X29949466Y-30286873D01*
X29759723Y-30331805D01*
X29677904Y-30643504D01*
X29511408Y-30810000D01*
X28972592Y-30810000D01*
X28799848Y-30637255D01*
X28774710Y-30453559D01*
X28724277Y-30331805D01*
X28534534Y-30286873D01*
X28492000Y-30329407D01*
X28449466Y-30286873D01*
X28259723Y-30331805D01*
X28177904Y-30643504D01*
X28011408Y-30810000D01*
X27472592Y-30810000D01*
X27299848Y-30637255D01*
X27274710Y-30453559D01*
X27224277Y-30331805D01*
X27034534Y-30286873D01*
X26992000Y-30329407D01*
X26949466Y-30286873D01*
X26759723Y-30331805D01*
X26677904Y-30643504D01*
X26511408Y-30810000D01*
X25972592Y-30810000D01*
X25449466Y-30286873D01*
X25259723Y-30331805D01*
X25151496Y-30744107D01*
X23626936Y-30744107D01*
X23568928Y-30657292D01*
X23304231Y-30480427D01*
X22992000Y-30418320D01*
X22679769Y-30480427D01*
X22415072Y-30657292D01*
X22238207Y-30921989D01*
X22176100Y-31234220D01*
X20839900Y-31234220D01*
X20839900Y-30017466D01*
X25718873Y-30017466D01*
X26242000Y-30540592D01*
X26765127Y-30017466D01*
X27218873Y-30017466D01*
X27742000Y-30540592D01*
X28265127Y-30017466D01*
X28718873Y-30017466D01*
X29242000Y-30540592D01*
X29765127Y-30017466D01*
X30218873Y-30017466D01*
X30742000Y-30540592D01*
X31265127Y-30017466D01*
X31220195Y-29827723D01*
X30807893Y-29719496D01*
X30385559Y-29777290D01*
X30263805Y-29827723D01*
X30218873Y-30017466D01*
X29765127Y-30017466D01*
X29720195Y-29827723D01*
X29307893Y-29719496D01*
X28885559Y-29777290D01*
X28763805Y-29827723D01*
X28718873Y-30017466D01*
X28265127Y-30017466D01*
X28220195Y-29827723D01*
X27807893Y-29719496D01*
X27385559Y-29777290D01*
X27263805Y-29827723D01*
X27218873Y-30017466D01*
X26765127Y-30017466D01*
X26720195Y-29827723D01*
X26307893Y-29719496D01*
X25885559Y-29777290D01*
X25763805Y-29827723D01*
X25718873Y-30017466D01*
X20839900Y-30017466D01*
X20839900Y-24709118D01*
X22176100Y-24709118D01*
X22176100Y-25250882D01*
X22238207Y-25563113D01*
X22415072Y-25827810D01*
X22679769Y-26004675D01*
X22992000Y-26066782D01*
X23304231Y-26004675D01*
X23568928Y-25827810D01*
X23745793Y-25563113D01*
X23807900Y-25250882D01*
X23807900Y-24709118D01*
X23745793Y-24396887D01*
X23655254Y-24261385D01*
X30325941Y-24261385D01*
X30465085Y-24598138D01*
X30722507Y-24856010D01*
X31059017Y-24995741D01*
X31423385Y-24996059D01*
X31760138Y-24856915D01*
X31908193Y-24709118D01*
X38676100Y-24709118D01*
X38676100Y-25250882D01*
X38738207Y-25563113D01*
X38915072Y-25827810D01*
X39179769Y-26004675D01*
X39492000Y-26066782D01*
X39804231Y-26004675D01*
X40068928Y-25827810D01*
X40245793Y-25563113D01*
X40307900Y-25250882D01*
X40307900Y-24709118D01*
X40245793Y-24396887D01*
X40068928Y-24132190D01*
X39804231Y-23955325D01*
X39492000Y-23893218D01*
X39179769Y-23955325D01*
X38915072Y-24132190D01*
X38738207Y-24396887D01*
X38676100Y-24709118D01*
X31908193Y-24709118D01*
X32018010Y-24599493D01*
X32157741Y-24262983D01*
X32158059Y-23898615D01*
X32018915Y-23561862D01*
X31761493Y-23303990D01*
X31424983Y-23164259D01*
X31060615Y-23163941D01*
X30723862Y-23303085D01*
X30465990Y-23560507D01*
X30326259Y-23897017D01*
X30325941Y-24261385D01*
X23655254Y-24261385D01*
X23568928Y-24132190D01*
X23304231Y-23955325D01*
X22992000Y-23893218D01*
X22679769Y-23955325D01*
X22415072Y-24132190D01*
X22238207Y-24396887D01*
X22176100Y-24709118D01*
X20839900Y-24709118D01*
X20839900Y-22541700D01*
X50254700Y-22541700D01*
X50254700Y-94857100D01*
G36*
X37373845Y-81556008D02*
X37421130Y-81629490D01*
X37493277Y-81678786D01*
X37578920Y-81696129D01*
X37663020Y-81696129D01*
X37663020Y-83387388D01*
X35791925Y-85258483D01*
X35832504Y-85103893D01*
X35774710Y-84681559D01*
X35724277Y-84559805D01*
X35534534Y-84514873D01*
X35011408Y-85038000D01*
X35025550Y-85052142D01*
X34756142Y-85321550D01*
X34742000Y-85307408D01*
X34727858Y-85321550D01*
X34458450Y-85052142D01*
X34472592Y-85038000D01*
X34299848Y-84865255D01*
X34274710Y-84681559D01*
X34224277Y-84559805D01*
X34206821Y-84555671D01*
X34164567Y-84492433D01*
X34164564Y-84492431D01*
X33746401Y-84074267D01*
X33746401Y-84054855D01*
X33835946Y-84144556D01*
X34098974Y-84253775D01*
X34227294Y-84253887D01*
X34742000Y-84768592D01*
X35265127Y-84245466D01*
X35220195Y-84055723D01*
X34837360Y-83955231D01*
X34848556Y-83944054D01*
X34901147Y-83817400D01*
X34949101Y-83817400D01*
X34949106Y-83817401D01*
X35056028Y-83796132D01*
X35146672Y-83735566D01*
X37332366Y-81549872D01*
X37363830Y-81502782D01*
X37373845Y-81556008D01*
X37373845Y-81556008D01*
G37*
X37373845Y-81556008D02*
X37421130Y-81629490D01*
X37493277Y-81678786D01*
X37578920Y-81696129D01*
X37663020Y-81696129D01*
X37663020Y-83387388D01*
X35791925Y-85258483D01*
X35832504Y-85103893D01*
X35774710Y-84681559D01*
X35724277Y-84559805D01*
X35534534Y-84514873D01*
X35011408Y-85038000D01*
X35025550Y-85052142D01*
X34756142Y-85321550D01*
X34742000Y-85307408D01*
X34727858Y-85321550D01*
X34458450Y-85052142D01*
X34472592Y-85038000D01*
X34299848Y-84865255D01*
X34274710Y-84681559D01*
X34224277Y-84559805D01*
X34206821Y-84555671D01*
X34164567Y-84492433D01*
X34164564Y-84492431D01*
X33746401Y-84074267D01*
X33746401Y-84054855D01*
X33835946Y-84144556D01*
X34098974Y-84253775D01*
X34227294Y-84253887D01*
X34742000Y-84768592D01*
X35265127Y-84245466D01*
X35220195Y-84055723D01*
X34837360Y-83955231D01*
X34848556Y-83944054D01*
X34901147Y-83817400D01*
X34949101Y-83817400D01*
X34949106Y-83817401D01*
X35056028Y-83796132D01*
X35146672Y-83735566D01*
X37332366Y-81549872D01*
X37363830Y-81502782D01*
X37373845Y-81556008D01*
G36*
X35025550Y-32295858D02*
X35011408Y-32310000D01*
X35025550Y-32324142D01*
X34756142Y-32593550D01*
X34742000Y-32579408D01*
X34727858Y-32593550D01*
X34458450Y-32324142D01*
X34472592Y-32310000D01*
X34458450Y-32295858D01*
X34727858Y-32026450D01*
X34742000Y-32040592D01*
X34756142Y-32026450D01*
X35025550Y-32295858D01*
X35025550Y-32295858D01*
G37*
X35025550Y-32295858D02*
X35011408Y-32310000D01*
X35025550Y-32324142D01*
X34756142Y-32593550D01*
X34742000Y-32579408D01*
X34727858Y-32593550D01*
X34458450Y-32324142D01*
X34472592Y-32310000D01*
X34458450Y-32295858D01*
X34727858Y-32026450D01*
X34742000Y-32040592D01*
X34756142Y-32026450D01*
X35025550Y-32295858D01*
D24*
X35750500Y-33591500D03*
X36639500Y-32321500D03*
X21336000Y-53367426D03*
X34417000Y-94481559D03*
X32893000Y-94481559D03*
X29845000Y-94481559D03*
X28321000Y-94481559D03*
X26797000Y-94481559D03*
X29845000Y-94481559D03*
X28321000Y-94481559D03*
X26797000Y-94481559D03*
X25273000Y-94481559D03*
X23749000Y-94481559D03*
X22225000Y-94481559D03*
X44526200Y-26695400D03*
X41579800Y-26695400D03*
X38785800Y-26695400D03*
X21336000Y-68590493D03*
X21336000Y-72942360D03*
X21336000Y-75118293D03*
X21336000Y-77294226D03*
X21336000Y-70766426D03*
X21336000Y-83822026D03*
X21336000Y-81646093D03*
X21336000Y-79470160D03*
X21336000Y-90349826D03*
X21336000Y-92525759D03*
X21336000Y-85997960D03*
X21336000Y-88173893D03*
X21336000Y-40311826D03*
X21336000Y-38135893D03*
X21336000Y-35959960D03*
X21336000Y-33784026D03*
X21336000Y-31608093D03*
X21336000Y-27256226D03*
X21336000Y-25080293D03*
X21336000Y-81654559D03*
X21336000Y-79478626D03*
X21336000Y-77302693D03*
X21336000Y-75126760D03*
X21336000Y-72950826D03*
X21336000Y-70774893D03*
X21336000Y-68598960D03*
X21336000Y-66423026D03*
X21336000Y-64247093D03*
X21336000Y-62071160D03*
X21336000Y-59895226D03*
X21336000Y-57719293D03*
X21336000Y-55543360D03*
X21336000Y-51191493D03*
X21336000Y-49015560D03*
X21336000Y-46839626D03*
X21336000Y-44663693D03*
X21336000Y-42487760D03*
X21336000Y-40311826D03*
X21336000Y-38135893D03*
X21336000Y-35959960D03*
X46532800Y-67208400D03*
X49428400Y-67208400D03*
X49428400Y-63700025D03*
X49428400Y-60191650D03*
X46532800Y-63700025D03*
X49428400Y-30988000D03*
X49428400Y-35744150D03*
X49428400Y-40500300D03*
X49428400Y-45256450D03*
X49428400Y-50012600D03*
X46532800Y-40500300D03*
X37007800Y-47345600D03*
X38354000Y-47345600D03*
X39928800Y-47345600D03*
X35255200Y-47345600D03*
X34645600Y-53367426D03*
X35737800Y-53367426D03*
X38328600Y-53365400D03*
X37134796Y-53365400D03*
X39700204Y-53365400D03*
X40868600Y-53367426D03*
X44526200Y-28981400D03*
X21336000Y-29432160D03*
X21336000Y-22904360D03*
X46532800Y-60191650D03*
X46532800Y-50012600D03*
X46532800Y-45256450D03*
X46532800Y-35744150D03*
X46532800Y-30988000D03*
X41579800Y-28981400D03*
X38785800Y-28981400D03*
X48844200Y-92583000D03*
X46913800Y-93370400D03*
X49682400Y-90728800D03*
X36779200Y-92608400D03*
X34467800Y-90805008D03*
X34467796Y-88595200D03*
X35864800Y-94157800D03*
X41173400Y-93408510D03*
X36144200Y-90805000D03*
X36144200Y-88595200D03*
X36576000Y-86461600D03*
X44424600Y-92887800D03*
X38328600Y-84709000D03*
X42037000Y-81990452D03*
X39217600Y-82727800D03*
X43307000Y-80289400D03*
X37160200Y-82626200D03*
X25019000Y-81654559D03*
X25019000Y-79478626D03*
X25019000Y-77302693D03*
X25019000Y-75126760D03*
X25019000Y-75126759D03*
X26652170Y-70387273D03*
X29660073Y-81654559D03*
X31064200Y-81654559D03*
X32639000Y-79478626D03*
X29660073Y-79478626D03*
X29660073Y-77302693D03*
X31064200Y-77302693D03*
X32639000Y-77302693D03*
X31064200Y-75126760D03*
X29660073Y-75126760D03*
X28153155Y-81654559D03*
X28153155Y-77302693D03*
X28153155Y-75126760D03*
X26655331Y-75126760D03*
X26655331Y-77302693D03*
X26655331Y-79478626D03*
X29660073Y-75126759D03*
X31064200Y-75126759D03*
X32639000Y-72950826D03*
X31064200Y-72950826D03*
X29660073Y-70774893D03*
X31064200Y-70774893D03*
X32639000Y-70774893D03*
X32639000Y-68598960D03*
X31064200Y-68598960D03*
X29660073Y-68598960D03*
X28153155Y-75126759D03*
X28153155Y-72950826D03*
X28153155Y-70774893D03*
X28153155Y-68598960D03*
X26655331Y-68598960D03*
X26655331Y-75126759D03*
X29660073Y-68598959D03*
X31064200Y-68598959D03*
X32639000Y-68598959D03*
X32639000Y-66423026D03*
X31064200Y-66423026D03*
X29660073Y-66423026D03*
X29660073Y-64247093D03*
X31064200Y-64247093D03*
X32639000Y-64247093D03*
X32639000Y-62071160D03*
X31064200Y-62071160D03*
X29660073Y-62071160D03*
X28153155Y-68598959D03*
X28153155Y-66423026D03*
X28153155Y-64247093D03*
X28153155Y-62071160D03*
X26655331Y-62071160D03*
X26655331Y-64247093D03*
X26655331Y-66423026D03*
X26655331Y-68598959D03*
X29660073Y-62071159D03*
X31064200Y-62071159D03*
X32639000Y-62071159D03*
X32639000Y-59895226D03*
X31064200Y-59895226D03*
X29660073Y-59895226D03*
X29660073Y-57719293D03*
X31064200Y-57719293D03*
X32639000Y-57719293D03*
X32639000Y-55543360D03*
X31064200Y-55543360D03*
X29660073Y-55543360D03*
X28153155Y-62071159D03*
X28153155Y-59895226D03*
X28153155Y-57719293D03*
X28153155Y-55543360D03*
X26655331Y-55543360D03*
X26655331Y-57719293D03*
X26655331Y-59895226D03*
X26655331Y-62071159D03*
X29660073Y-55543359D03*
X31064200Y-55543359D03*
X32639000Y-55543359D03*
X32639000Y-53367426D03*
X31064200Y-53367426D03*
X29660073Y-53367426D03*
X29660073Y-51191493D03*
X31064200Y-51191493D03*
X32639000Y-51191493D03*
X32639000Y-49015560D03*
X31064200Y-49015560D03*
X29660073Y-49015560D03*
X28153155Y-55543359D03*
X28153155Y-53367426D03*
X28153155Y-51191493D03*
X28153155Y-49015560D03*
X26655331Y-49015560D03*
X26655331Y-51191493D03*
X26655331Y-53367426D03*
X26655331Y-55543359D03*
X29660073Y-49015559D03*
X31064200Y-49015559D03*
X32639000Y-49015559D03*
X32639000Y-46839626D03*
X31064200Y-46839626D03*
X29660073Y-46839626D03*
X29660073Y-44663693D03*
X31064200Y-44663693D03*
X32639000Y-44663693D03*
X32639000Y-42487760D03*
X31064200Y-42487760D03*
X29660073Y-42487760D03*
X28153155Y-49015559D03*
X28153155Y-46839626D03*
X28153155Y-44663693D03*
X28153155Y-42487760D03*
X26655331Y-42487760D03*
X26655331Y-44663693D03*
X26655331Y-46839626D03*
X26655331Y-49015559D03*
X32639000Y-42487759D03*
X31064200Y-42487759D03*
X29660073Y-42487759D03*
X28153155Y-42487759D03*
X26655331Y-42487759D03*
X32639000Y-40311826D03*
X31064200Y-40311826D03*
X29660073Y-40311826D03*
X28153155Y-40311826D03*
X26655331Y-40311826D03*
X32639000Y-38135893D03*
X31064200Y-38135893D03*
X29660073Y-38135893D03*
X28153155Y-38135893D03*
X26655331Y-38135893D03*
X29660073Y-35959960D03*
X28153155Y-35959960D03*
X31064200Y-35959960D03*
X25019000Y-72950826D03*
X25019000Y-70774893D03*
X25019000Y-68598960D03*
X25019000Y-68598959D03*
X25019000Y-66423026D03*
X25019000Y-64247093D03*
X25019000Y-62071160D03*
X25019000Y-62071159D03*
X25019000Y-59895226D03*
X25019000Y-57719293D03*
X25019000Y-55543360D03*
X25019000Y-55543359D03*
X25019000Y-53367426D03*
X25019000Y-51191493D03*
X25019000Y-49015560D03*
X25019000Y-49015559D03*
X25019000Y-46839626D03*
X25019000Y-44663693D03*
X32639000Y-81654559D03*
X26655331Y-81654559D03*
X32639000Y-35959960D03*
X26655331Y-35959960D03*
X25019000Y-42487760D03*
X25019000Y-42487759D03*
X25019000Y-40311826D03*
X25019000Y-38135893D03*
X25019000Y-35959960D03*
X37668200Y-42478960D03*
X40970200Y-42478960D03*
X34493200Y-42478960D03*
X37668200Y-70291960D03*
X34493200Y-70291960D03*
X40843200Y-70291960D03*
X33385579Y-76418621D03*
D25*
X31242000Y-93268000D03*
D26*
X39492000Y-92368000D03*
X22992000Y-92368000D03*
D27*
X39492000Y-85588000D03*
X22992000Y-85588000D03*
D25*
X31242000Y-83538000D03*
X32742000Y-83538000D03*
X34242000Y-83538000D03*
X29742000Y-83538000D03*
X28242000Y-83538000D03*
X26742000Y-83538000D03*
X31742000Y-85038000D03*
X33242000Y-85038000D03*
X34742000Y-85038000D03*
X30242000Y-85038000D03*
X28742000Y-85038000D03*
X27242000Y-85038000D03*
X25742000Y-85038000D03*
X32242000Y-86538000D03*
X33742000Y-86538000D03*
X35242000Y-86538000D03*
X30742000Y-86538000D03*
X29242000Y-86538000D03*
X27742000Y-86538000D03*
X26242000Y-86538000D03*
X45206920Y-68453000D03*
X47746920Y-68453000D03*
X45206920Y-70993000D03*
X47746920Y-70993000D03*
X45206920Y-73533000D03*
X47746920Y-73533000D03*
X45206920Y-76073000D03*
X47746920Y-76073000D03*
X45206920Y-78613000D03*
X47746920Y-78613000D03*
X45206920Y-81153000D03*
X47746920Y-81153000D03*
X45206920Y-83693000D03*
X47746920Y-83693000D03*
X45206920Y-86233000D03*
X47746920Y-86233000D03*
X45206920Y-88773000D03*
X47746920Y-88773000D03*
X45206920Y-91313000D03*
X47746920Y-91313000D03*
X35191700Y-51432460D03*
X35191700Y-48892460D03*
X37731700Y-51432460D03*
X37731700Y-48892460D03*
X40271700Y-51432460D03*
X40271700Y-48892460D03*
X35191700Y-57782460D03*
X35191700Y-55242460D03*
X37731700Y-57782460D03*
X37731700Y-55242460D03*
X40271700Y-57782460D03*
X40271700Y-55242460D03*
X42811700Y-57782460D03*
X42811700Y-55242460D03*
X45351700Y-57782460D03*
X45351700Y-55242460D03*
X47891700Y-57782460D03*
X47891700Y-55242460D03*
X35191700Y-61592460D03*
X35191700Y-64132460D03*
X37731700Y-61592460D03*
X37731700Y-64132460D03*
X40271700Y-61592460D03*
X40271700Y-64132460D03*
X31242000Y-24080000D03*
D26*
X39492000Y-24980000D03*
X22992000Y-24980000D03*
D27*
X39492000Y-31760000D03*
X22992000Y-31760000D03*
D25*
X31242000Y-33810000D03*
X32742000Y-33810000D03*
X34242000Y-33810000D03*
X29742000Y-33810000D03*
X28242000Y-33810000D03*
X26742000Y-33810000D03*
X31742000Y-32310000D03*
X33242000Y-32310000D03*
X34742000Y-32310000D03*
X30242000Y-32310000D03*
X28742000Y-32310000D03*
X27242000Y-32310000D03*
X25742000Y-32310000D03*
X32242000Y-30810000D03*
X33742000Y-30810000D03*
X35242000Y-30810000D03*
X30742000Y-30810000D03*
X29242000Y-30810000D03*
X27742000Y-30810000D03*
X26242000Y-30810000D03*
M02*
