G04 #@! TF.FileFunction,Copper,L3,Inr,Signal*
%FSLAX46Y46*%
G04 Gerber Fmt 4.6, Leading zero omitted, Abs format (unit mm)*
G04 Created by KiCad (PCBNEW 4.0.2+e4-6225~38~ubuntu14.04.1-stable) date Mon Aug  1 15:26:05 2016*
%MOMM*%
G01*
G04 APERTURE LIST*
%ADD10C,0.350000*%
%ADD11C,0.100000*%
%ADD12O,1.200000X1.700000*%
%ADD13O,1.200000X2.200000*%
%ADD14C,1.000000*%
%ADD15R,1.727200X1.727200*%
%ADD16O,1.727200X1.727200*%
%ADD17C,0.609600*%
%ADD18C,0.304800*%
%ADD19C,0.350000*%
%ADD20O,0.600000X1.100000*%
%ADD21O,0.600000X1.600000*%
G04 APERTURE END LIST*
D10*
D11*
X50520600Y-22275800D02*
X20574000Y-22275800D01*
X50520600Y-95123000D02*
X50520600Y-22275800D01*
X20574000Y-95123000D02*
X50520600Y-95123000D01*
X20574000Y-22273033D02*
X20574000Y-95123070D01*
D12*
X39492000Y-92368000D03*
X22992000Y-92368000D03*
D13*
X39492000Y-85588000D03*
X22992000Y-85588000D03*
D14*
X31242000Y-83538000D03*
X32742000Y-83538000D03*
X34242000Y-83538000D03*
X29742000Y-83538000D03*
X28242000Y-83538000D03*
X26742000Y-83538000D03*
X31742000Y-85038000D03*
X33242000Y-85038000D03*
X34742000Y-85038000D03*
X30242000Y-85038000D03*
X28742000Y-85038000D03*
X27242000Y-85038000D03*
X25742000Y-85038000D03*
X32242000Y-86538000D03*
X33742000Y-86538000D03*
X35242000Y-86538000D03*
X30742000Y-86538000D03*
X29242000Y-86538000D03*
X27742000Y-86538000D03*
X26242000Y-86538000D03*
D15*
X45206920Y-68453000D03*
D16*
X47746920Y-68453000D03*
X45206920Y-70993000D03*
X47746920Y-70993000D03*
X45206920Y-73533000D03*
X47746920Y-73533000D03*
X45206920Y-76073000D03*
X47746920Y-76073000D03*
X45206920Y-78613000D03*
X47746920Y-78613000D03*
X45206920Y-81153000D03*
X47746920Y-81153000D03*
X45206920Y-83693000D03*
X47746920Y-83693000D03*
X45206920Y-86233000D03*
X47746920Y-86233000D03*
X45206920Y-88773000D03*
X47746920Y-88773000D03*
X45206920Y-91313000D03*
X47746920Y-91313000D03*
D15*
X35191700Y-51432460D03*
D16*
X35191700Y-48892460D03*
X37731700Y-51432460D03*
X37731700Y-48892460D03*
X40271700Y-51432460D03*
X40271700Y-48892460D03*
D15*
X35191700Y-57782460D03*
D16*
X35191700Y-55242460D03*
X37731700Y-57782460D03*
X37731700Y-55242460D03*
X40271700Y-57782460D03*
X40271700Y-55242460D03*
X42811700Y-57782460D03*
X42811700Y-55242460D03*
X45351700Y-57782460D03*
X45351700Y-55242460D03*
X47891700Y-57782460D03*
X47891700Y-55242460D03*
D15*
X35191700Y-61592460D03*
D16*
X35191700Y-64132460D03*
X37731700Y-61592460D03*
X37731700Y-64132460D03*
X40271700Y-61592460D03*
X40271700Y-64132460D03*
D12*
X39492000Y-24980000D03*
X22992000Y-24980000D03*
D13*
X39492000Y-31760000D03*
X22992000Y-31760000D03*
D14*
X31242000Y-33810000D03*
X32742000Y-33810000D03*
X34242000Y-33810000D03*
X29742000Y-33810000D03*
X28242000Y-33810000D03*
X26742000Y-33810000D03*
X31742000Y-32310000D03*
X33242000Y-32310000D03*
X34742000Y-32310000D03*
X30242000Y-32310000D03*
X28742000Y-32310000D03*
X27242000Y-32310000D03*
X25742000Y-32310000D03*
X32242000Y-30810000D03*
X33742000Y-30810000D03*
X35242000Y-30810000D03*
X30742000Y-30810000D03*
X29242000Y-30810000D03*
X27742000Y-30810000D03*
X26242000Y-30810000D03*
D17*
X35750500Y-33591500D03*
X36639500Y-32321500D03*
X21336000Y-53367426D03*
X34417000Y-94481559D03*
X32893000Y-94481559D03*
X29845000Y-94481559D03*
X28321000Y-94481559D03*
X26797000Y-94481559D03*
X29845000Y-94481559D03*
X28321000Y-94481559D03*
X26797000Y-94481559D03*
X25273000Y-94481559D03*
X23749000Y-94481559D03*
X22225000Y-94481559D03*
X44526200Y-26695400D03*
X41579800Y-26695400D03*
X38785800Y-26695400D03*
X21336000Y-68590493D03*
X21336000Y-72942360D03*
X21336000Y-75118293D03*
X21336000Y-77294226D03*
X21336000Y-70766426D03*
X21336000Y-83822026D03*
X21336000Y-81646093D03*
X21336000Y-79470160D03*
X21336000Y-90349826D03*
X21336000Y-92525759D03*
X21336000Y-85997960D03*
X21336000Y-88173893D03*
X21336000Y-40311826D03*
X21336000Y-38135893D03*
X21336000Y-35959960D03*
X21336000Y-33784026D03*
X21336000Y-31608093D03*
X21336000Y-27256226D03*
X21336000Y-25080293D03*
X21336000Y-81654559D03*
X21336000Y-79478626D03*
X21336000Y-77302693D03*
X21336000Y-75126760D03*
X21336000Y-72950826D03*
X21336000Y-70774893D03*
X21336000Y-68598960D03*
X21336000Y-66423026D03*
X21336000Y-64247093D03*
X21336000Y-62071160D03*
X21336000Y-59895226D03*
X21336000Y-57719293D03*
X21336000Y-55543360D03*
X21336000Y-51191493D03*
X21336000Y-49015560D03*
X21336000Y-46839626D03*
X21336000Y-44663693D03*
X21336000Y-42487760D03*
X21336000Y-40311826D03*
X21336000Y-38135893D03*
X21336000Y-35959960D03*
X46532800Y-67208400D03*
X49428400Y-67208400D03*
X49428400Y-63700025D03*
X49428400Y-60191650D03*
X46532800Y-63700025D03*
X49428400Y-30988000D03*
X49428400Y-35744150D03*
X49428400Y-40500300D03*
X49428400Y-45256450D03*
X49428400Y-50012600D03*
X46532800Y-40500300D03*
X37007800Y-47345600D03*
X38354000Y-47345600D03*
X39928800Y-47345600D03*
X35255200Y-47345600D03*
X34645600Y-53367426D03*
X35737800Y-53367426D03*
X38328600Y-53365400D03*
X37134796Y-53365400D03*
X39700204Y-53365400D03*
X40868600Y-53367426D03*
X44526200Y-28981400D03*
X21336000Y-29432160D03*
X21336000Y-22904360D03*
X46532800Y-60191650D03*
X46532800Y-50012600D03*
X46532800Y-45256450D03*
X46532800Y-35744150D03*
X46532800Y-30988000D03*
X41579800Y-28981400D03*
X38785800Y-28981400D03*
X48844200Y-92583000D03*
X46913800Y-93370400D03*
X49682400Y-90728800D03*
X36779200Y-92608400D03*
X34467800Y-90805008D03*
X34467796Y-88595200D03*
X35864800Y-94157800D03*
X41173400Y-93408510D03*
X36144200Y-90805000D03*
X36144200Y-88595200D03*
X36576000Y-86461600D03*
X44424600Y-92887800D03*
X38328600Y-84709000D03*
X42037000Y-81990452D03*
X39217600Y-82727800D03*
X43307000Y-80289400D03*
X37160200Y-82626200D03*
X25019000Y-81654559D03*
X25019000Y-79478626D03*
X25019000Y-77302693D03*
X25019000Y-75126760D03*
X25019000Y-75126759D03*
X26652170Y-70387273D03*
X29660073Y-81654559D03*
X31064200Y-81654559D03*
X32639000Y-79478626D03*
X29660073Y-79478626D03*
X29660073Y-77302693D03*
X31064200Y-77302693D03*
X32639000Y-77302693D03*
X31064200Y-75126760D03*
X29660073Y-75126760D03*
X28153155Y-81654559D03*
X28153155Y-77302693D03*
X28153155Y-75126760D03*
X26655331Y-75126760D03*
X26655331Y-77302693D03*
X26655331Y-79478626D03*
X29660073Y-75126759D03*
X31064200Y-75126759D03*
X32639000Y-72950826D03*
X31064200Y-72950826D03*
X29660073Y-70774893D03*
X31064200Y-70774893D03*
X32639000Y-70774893D03*
X32639000Y-68598960D03*
X31064200Y-68598960D03*
X29660073Y-68598960D03*
X28153155Y-75126759D03*
X28153155Y-72950826D03*
X28153155Y-70774893D03*
X28153155Y-68598960D03*
X26655331Y-68598960D03*
X26655331Y-75126759D03*
X29660073Y-68598959D03*
X31064200Y-68598959D03*
X32639000Y-68598959D03*
X32639000Y-66423026D03*
X31064200Y-66423026D03*
X29660073Y-66423026D03*
X29660073Y-64247093D03*
X31064200Y-64247093D03*
X32639000Y-64247093D03*
X32639000Y-62071160D03*
X31064200Y-62071160D03*
X29660073Y-62071160D03*
X28153155Y-68598959D03*
X28153155Y-66423026D03*
X28153155Y-64247093D03*
X28153155Y-62071160D03*
X26655331Y-62071160D03*
X26655331Y-64247093D03*
X26655331Y-66423026D03*
X26655331Y-68598959D03*
X29660073Y-62071159D03*
X31064200Y-62071159D03*
X32639000Y-62071159D03*
X32639000Y-59895226D03*
X31064200Y-59895226D03*
X29660073Y-59895226D03*
X29660073Y-57719293D03*
X31064200Y-57719293D03*
X32639000Y-57719293D03*
X32639000Y-55543360D03*
X31064200Y-55543360D03*
X29660073Y-55543360D03*
X28153155Y-62071159D03*
X28153155Y-59895226D03*
X28153155Y-57719293D03*
X28153155Y-55543360D03*
X26655331Y-55543360D03*
X26655331Y-57719293D03*
X26655331Y-59895226D03*
X26655331Y-62071159D03*
X29660073Y-55543359D03*
X31064200Y-55543359D03*
X32639000Y-55543359D03*
X32639000Y-53367426D03*
X31064200Y-53367426D03*
X29660073Y-53367426D03*
X29660073Y-51191493D03*
X31064200Y-51191493D03*
X32639000Y-51191493D03*
X32639000Y-49015560D03*
X31064200Y-49015560D03*
X29660073Y-49015560D03*
X28153155Y-55543359D03*
X28153155Y-53367426D03*
X28153155Y-51191493D03*
X28153155Y-49015560D03*
X26655331Y-49015560D03*
X26655331Y-51191493D03*
X26655331Y-53367426D03*
X26655331Y-55543359D03*
X29660073Y-49015559D03*
X31064200Y-49015559D03*
X32639000Y-49015559D03*
X32639000Y-46839626D03*
X31064200Y-46839626D03*
X29660073Y-46839626D03*
X29660073Y-44663693D03*
X31064200Y-44663693D03*
X32639000Y-44663693D03*
X32639000Y-42487760D03*
X31064200Y-42487760D03*
X29660073Y-42487760D03*
X28153155Y-49015559D03*
X28153155Y-46839626D03*
X28153155Y-44663693D03*
X28153155Y-42487760D03*
X26655331Y-42487760D03*
X26655331Y-44663693D03*
X26655331Y-46839626D03*
X26655331Y-49015559D03*
X32639000Y-42487759D03*
X31064200Y-42487759D03*
X29660073Y-42487759D03*
X28153155Y-42487759D03*
X26655331Y-42487759D03*
X32639000Y-40311826D03*
X31064200Y-40311826D03*
X29660073Y-40311826D03*
X28153155Y-40311826D03*
X26655331Y-40311826D03*
X32639000Y-38135893D03*
X31064200Y-38135893D03*
X29660073Y-38135893D03*
X28153155Y-38135893D03*
X26655331Y-38135893D03*
X29660073Y-35959960D03*
X28153155Y-35959960D03*
X31064200Y-35959960D03*
X25019000Y-72950826D03*
X25019000Y-70774893D03*
X25019000Y-68598960D03*
X25019000Y-68598959D03*
X25019000Y-66423026D03*
X25019000Y-64247093D03*
X25019000Y-62071160D03*
X25019000Y-62071159D03*
X25019000Y-59895226D03*
X25019000Y-57719293D03*
X25019000Y-55543360D03*
X25019000Y-55543359D03*
X25019000Y-53367426D03*
X25019000Y-51191493D03*
X25019000Y-49015560D03*
X25019000Y-49015559D03*
X25019000Y-46839626D03*
X25019000Y-44663693D03*
X32639000Y-81654559D03*
X26655331Y-81654559D03*
X32639000Y-35959960D03*
X26655331Y-35959960D03*
X25019000Y-42487760D03*
X25019000Y-42487759D03*
X25019000Y-40311826D03*
X25019000Y-38135893D03*
X25019000Y-35959960D03*
X37668200Y-42478960D03*
X40970200Y-42478960D03*
X34493200Y-42478960D03*
X37668200Y-70291960D03*
X34493200Y-70291960D03*
X40843200Y-70291960D03*
X33385579Y-76418621D03*
D18*
X35750500Y-33591500D03*
X36639500Y-32321500D03*
X21336000Y-53367426D03*
X34417000Y-94481559D03*
X32893000Y-94481559D03*
X29845000Y-94481559D03*
X28321000Y-94481559D03*
X26797000Y-94481559D03*
X29845000Y-94481559D03*
X28321000Y-94481559D03*
X26797000Y-94481559D03*
X25273000Y-94481559D03*
X23749000Y-94481559D03*
X22225000Y-94481559D03*
X44526200Y-26695400D03*
X41579800Y-26695400D03*
X38785800Y-26695400D03*
X21336000Y-68590493D03*
X21336000Y-72942360D03*
X21336000Y-75118293D03*
X21336000Y-77294226D03*
X21336000Y-70766426D03*
X21336000Y-83822026D03*
X21336000Y-81646093D03*
X21336000Y-79470160D03*
X21336000Y-90349826D03*
X21336000Y-92525759D03*
X21336000Y-85997960D03*
X21336000Y-88173893D03*
X21336000Y-40311826D03*
X21336000Y-38135893D03*
X21336000Y-35959960D03*
X21336000Y-33784026D03*
X21336000Y-31608093D03*
X21336000Y-27256226D03*
X21336000Y-25080293D03*
X21336000Y-81654559D03*
X21336000Y-79478626D03*
X21336000Y-77302693D03*
X21336000Y-75126760D03*
X21336000Y-72950826D03*
X21336000Y-70774893D03*
X21336000Y-68598960D03*
X21336000Y-66423026D03*
X21336000Y-64247093D03*
X21336000Y-62071160D03*
X21336000Y-59895226D03*
X21336000Y-57719293D03*
X21336000Y-55543360D03*
X21336000Y-51191493D03*
X21336000Y-49015560D03*
X21336000Y-46839626D03*
X21336000Y-44663693D03*
X21336000Y-42487760D03*
X21336000Y-40311826D03*
X21336000Y-38135893D03*
X21336000Y-35959960D03*
X46532800Y-67208400D03*
X49428400Y-67208400D03*
X49428400Y-63700025D03*
X49428400Y-60191650D03*
X46532800Y-63700025D03*
X49428400Y-30988000D03*
X49428400Y-35744150D03*
X49428400Y-40500300D03*
X49428400Y-45256450D03*
X49428400Y-50012600D03*
X46532800Y-40500300D03*
X37007800Y-47345600D03*
X38354000Y-47345600D03*
X39928800Y-47345600D03*
X35255200Y-47345600D03*
X34645600Y-53367426D03*
X35737800Y-53367426D03*
X38328600Y-53365400D03*
X37134796Y-53365400D03*
X39700204Y-53365400D03*
X40868600Y-53367426D03*
X44526200Y-28981400D03*
X21336000Y-29432160D03*
X21336000Y-22904360D03*
X46532800Y-60191650D03*
X46532800Y-50012600D03*
X46532800Y-45256450D03*
X46532800Y-35744150D03*
X46532800Y-30988000D03*
X41579800Y-28981400D03*
X38785800Y-28981400D03*
X48844200Y-92583000D03*
X46913800Y-93370400D03*
X49682400Y-90728800D03*
X36779200Y-92608400D03*
X34467800Y-90805008D03*
X34467796Y-88595200D03*
X35864800Y-94157800D03*
X41173400Y-93408510D03*
X36144200Y-90805000D03*
X36144200Y-88595200D03*
X36576000Y-86461600D03*
X44424600Y-92887800D03*
X38328600Y-84709000D03*
X42037000Y-81990452D03*
X39217600Y-82727800D03*
X43307000Y-80289400D03*
X37160200Y-82626200D03*
X25019000Y-81654559D03*
X25019000Y-79478626D03*
X25019000Y-77302693D03*
X25019000Y-75126760D03*
X25019000Y-75126759D03*
X26652170Y-70387273D03*
X29660073Y-81654559D03*
X31064200Y-81654559D03*
X32639000Y-79478626D03*
X29660073Y-79478626D03*
X29660073Y-77302693D03*
X31064200Y-77302693D03*
X32639000Y-77302693D03*
X31064200Y-75126760D03*
X29660073Y-75126760D03*
X28153155Y-81654559D03*
X28153155Y-77302693D03*
X28153155Y-75126760D03*
X26655331Y-75126760D03*
X26655331Y-77302693D03*
X26655331Y-79478626D03*
X29660073Y-75126759D03*
X31064200Y-75126759D03*
X32639000Y-72950826D03*
X31064200Y-72950826D03*
X29660073Y-70774893D03*
X31064200Y-70774893D03*
X32639000Y-70774893D03*
X32639000Y-68598960D03*
X31064200Y-68598960D03*
X29660073Y-68598960D03*
X28153155Y-75126759D03*
X28153155Y-72950826D03*
X28153155Y-70774893D03*
X28153155Y-68598960D03*
X26655331Y-68598960D03*
X26655331Y-75126759D03*
X29660073Y-68598959D03*
X31064200Y-68598959D03*
X32639000Y-68598959D03*
X32639000Y-66423026D03*
X31064200Y-66423026D03*
X29660073Y-66423026D03*
X29660073Y-64247093D03*
X31064200Y-64247093D03*
X32639000Y-64247093D03*
X32639000Y-62071160D03*
X31064200Y-62071160D03*
X29660073Y-62071160D03*
X28153155Y-68598959D03*
X28153155Y-66423026D03*
X28153155Y-64247093D03*
X28153155Y-62071160D03*
X26655331Y-62071160D03*
X26655331Y-64247093D03*
X26655331Y-66423026D03*
X26655331Y-68598959D03*
X29660073Y-62071159D03*
X31064200Y-62071159D03*
X32639000Y-62071159D03*
X32639000Y-59895226D03*
X31064200Y-59895226D03*
X29660073Y-59895226D03*
X29660073Y-57719293D03*
X31064200Y-57719293D03*
X32639000Y-57719293D03*
X32639000Y-55543360D03*
X31064200Y-55543360D03*
X29660073Y-55543360D03*
X28153155Y-62071159D03*
X28153155Y-59895226D03*
X28153155Y-57719293D03*
X28153155Y-55543360D03*
X26655331Y-55543360D03*
X26655331Y-57719293D03*
X26655331Y-59895226D03*
X26655331Y-62071159D03*
X29660073Y-55543359D03*
X31064200Y-55543359D03*
X32639000Y-55543359D03*
X32639000Y-53367426D03*
X31064200Y-53367426D03*
X29660073Y-53367426D03*
X29660073Y-51191493D03*
X31064200Y-51191493D03*
X32639000Y-51191493D03*
X32639000Y-49015560D03*
X31064200Y-49015560D03*
X29660073Y-49015560D03*
X28153155Y-55543359D03*
X28153155Y-53367426D03*
X28153155Y-51191493D03*
X28153155Y-49015560D03*
X26655331Y-49015560D03*
X26655331Y-51191493D03*
X26655331Y-53367426D03*
X26655331Y-55543359D03*
X29660073Y-49015559D03*
X31064200Y-49015559D03*
X32639000Y-49015559D03*
X32639000Y-46839626D03*
X31064200Y-46839626D03*
X29660073Y-46839626D03*
X29660073Y-44663693D03*
X31064200Y-44663693D03*
X32639000Y-44663693D03*
X32639000Y-42487760D03*
X31064200Y-42487760D03*
X29660073Y-42487760D03*
X28153155Y-49015559D03*
X28153155Y-46839626D03*
X28153155Y-44663693D03*
X28153155Y-42487760D03*
X26655331Y-42487760D03*
X26655331Y-44663693D03*
X26655331Y-46839626D03*
X26655331Y-49015559D03*
X32639000Y-42487759D03*
X31064200Y-42487759D03*
X29660073Y-42487759D03*
X28153155Y-42487759D03*
X26655331Y-42487759D03*
X32639000Y-40311826D03*
X31064200Y-40311826D03*
X29660073Y-40311826D03*
X28153155Y-40311826D03*
X26655331Y-40311826D03*
X32639000Y-38135893D03*
X31064200Y-38135893D03*
X29660073Y-38135893D03*
X28153155Y-38135893D03*
X26655331Y-38135893D03*
X29660073Y-35959960D03*
X28153155Y-35959960D03*
X31064200Y-35959960D03*
X25019000Y-72950826D03*
X25019000Y-70774893D03*
X25019000Y-68598960D03*
X25019000Y-68598959D03*
X25019000Y-66423026D03*
X25019000Y-64247093D03*
X25019000Y-62071160D03*
X25019000Y-62071159D03*
X25019000Y-59895226D03*
X25019000Y-57719293D03*
X25019000Y-55543360D03*
X25019000Y-55543359D03*
X25019000Y-53367426D03*
X25019000Y-51191493D03*
X25019000Y-49015560D03*
X25019000Y-49015559D03*
X25019000Y-46839626D03*
X25019000Y-44663693D03*
X32639000Y-81654559D03*
X26655331Y-81654559D03*
X32639000Y-35959960D03*
X26655331Y-35959960D03*
X25019000Y-42487760D03*
X25019000Y-42487759D03*
X25019000Y-40311826D03*
X25019000Y-38135893D03*
X25019000Y-35959960D03*
X37668200Y-42478960D03*
X40970200Y-42478960D03*
X34493200Y-42478960D03*
X37668200Y-70291960D03*
X34493200Y-70291960D03*
X40843200Y-70291960D03*
X33385579Y-76418621D03*
D19*
X31242000Y-93268000D03*
D20*
X39492000Y-92368000D03*
X22992000Y-92368000D03*
D21*
X39492000Y-85588000D03*
X22992000Y-85588000D03*
D19*
X31242000Y-83538000D03*
X32742000Y-83538000D03*
X34242000Y-83538000D03*
X29742000Y-83538000D03*
X28242000Y-83538000D03*
X26742000Y-83538000D03*
X31742000Y-85038000D03*
X33242000Y-85038000D03*
X34742000Y-85038000D03*
X30242000Y-85038000D03*
X28742000Y-85038000D03*
X27242000Y-85038000D03*
X25742000Y-85038000D03*
X32242000Y-86538000D03*
X33742000Y-86538000D03*
X35242000Y-86538000D03*
X30742000Y-86538000D03*
X29242000Y-86538000D03*
X27742000Y-86538000D03*
X26242000Y-86538000D03*
X45206920Y-68453000D03*
X47746920Y-68453000D03*
X45206920Y-70993000D03*
X47746920Y-70993000D03*
X45206920Y-73533000D03*
X47746920Y-73533000D03*
X45206920Y-76073000D03*
X47746920Y-76073000D03*
X45206920Y-78613000D03*
X47746920Y-78613000D03*
X45206920Y-81153000D03*
X47746920Y-81153000D03*
X45206920Y-83693000D03*
X47746920Y-83693000D03*
X45206920Y-86233000D03*
X47746920Y-86233000D03*
X45206920Y-88773000D03*
X47746920Y-88773000D03*
X45206920Y-91313000D03*
X47746920Y-91313000D03*
X35191700Y-51432460D03*
X35191700Y-48892460D03*
X37731700Y-51432460D03*
X37731700Y-48892460D03*
X40271700Y-51432460D03*
X40271700Y-48892460D03*
X35191700Y-57782460D03*
X35191700Y-55242460D03*
X37731700Y-57782460D03*
X37731700Y-55242460D03*
X40271700Y-57782460D03*
X40271700Y-55242460D03*
X42811700Y-57782460D03*
X42811700Y-55242460D03*
X45351700Y-57782460D03*
X45351700Y-55242460D03*
X47891700Y-57782460D03*
X47891700Y-55242460D03*
X35191700Y-61592460D03*
X35191700Y-64132460D03*
X37731700Y-61592460D03*
X37731700Y-64132460D03*
X40271700Y-61592460D03*
X40271700Y-64132460D03*
X31242000Y-24080000D03*
D20*
X39492000Y-24980000D03*
X22992000Y-24980000D03*
D21*
X39492000Y-31760000D03*
X22992000Y-31760000D03*
D19*
X31242000Y-33810000D03*
X32742000Y-33810000D03*
X34242000Y-33810000D03*
X29742000Y-33810000D03*
X28242000Y-33810000D03*
X26742000Y-33810000D03*
X31742000Y-32310000D03*
X33242000Y-32310000D03*
X34742000Y-32310000D03*
X30242000Y-32310000D03*
X28742000Y-32310000D03*
X27242000Y-32310000D03*
X25742000Y-32310000D03*
X32242000Y-30810000D03*
X33742000Y-30810000D03*
X35242000Y-30810000D03*
X30742000Y-30810000D03*
X29242000Y-30810000D03*
X27742000Y-30810000D03*
X26242000Y-30810000D03*
M02*
